SplineFontDB: 3.2
FontName: notosansmalayalam
FullName: notosansmalayalam
FamilyName: notosansmalayalam
Weight: Regular
Copyright: Copyright 2022 The Noto Project Authors (https://github.com/notofonts/malayalam)
Version: 2.104
ItalicAngle: 0
UnderlinePosition: -125
UnderlineWidth: 50
Ascent: 800
Descent: 200
InvalidEm: 0
sfntRevision: 0x00021aa0
LayerCount: 2
Layer: 0 1 "Back" 1
Layer: 1 1 "Fore" 0
XUID: [1021 238 -758118090 16082489]
StyleMap: 0x0040
FSType: 0
OS2Version: 4
OS2_WeightWidthSlopeOnly: 0
OS2_UseTypoMetrics: 1
CreationTime: 1634401886
ModificationTime: 1738533228
PfmFamily: 81
TTFWeight: 400
TTFWidth: 5
LineGap: 0
VLineGap: 0
Panose: 0 0 0 0 0 0 0 0 0 0
OS2TypoAscent: 864
OS2TypoAOffset: 0
OS2TypoDescent: -383
OS2TypoDOffset: 0
OS2TypoLinegap: 0
OS2WinAscent: 864
OS2WinAOffset: 0
OS2WinDescent: 383
OS2WinDOffset: 0
HheadAscent: 864
HheadAOffset: 0
HheadDescent: -383
HheadDOffset: 0
OS2SubXSize: 650
OS2SubYSize: 600
OS2SubXOff: 0
OS2SubYOff: 75
OS2SupXSize: 650
OS2SupYSize: 600
OS2SupXOff: 0
OS2SupYOff: 350
OS2StrikeYSize: 50
OS2StrikeYPos: 332
OS2CapHeight: 714
OS2XHeight: 554
OS2Vendor: 'NONE'
OS2CodePages: 00000093.00000000
OS2UnicodeRanges: 80808043.00002042.00000000.00000000
Lookup: 1 0 0 "Single Substitution lookup 0" { "Single Substitution lookup 0 subtable"  } []
Lookup: 1 0 0 "Single Substitution lookup 1" { "Single Substitution lookup 1 subtable"  } []
Lookup: 1 0 0 "Single Substitution lookup 2" { "Single Substitution lookup 2 subtable"  } []
Lookup: 1 0 0 "Single Substitution lookup 3" { "Single Substitution lookup 3 subtable"  } []
Lookup: 1 0 0 "Single Substitution lookup 4" { "Single Substitution lookup 4 subtable"  } []
Lookup: 1 0 0 "Single Substitution lookup 5" { "Single Substitution lookup 5 subtable"  } []
Lookup: 1 0 0 "Single Substitution lookup 6" { "Single Substitution lookup 6 subtable"  } []
Lookup: 1 0 0 "Single Substitution lookup 7" { "Single Substitution lookup 7 subtable"  } []

StartChar: .notdef
Encoding: 65536 -1 0
Width: 600
Flags: W
LayerCount: 2
Fore
SplineSet
94 0 m 1,0,-1
 94 714 l 1,1,-1
 505 714 l 1,2,-1
 505 0 l 1,3,-1
 94 0 l 1,0,-1
145 51 m 1,4,-1
 454 51 l 1,5,-1
 454 663 l 1,6,-1
 145 663 l 1,7,-1
 145 51 l 1,4,-1
EndSplineSet
EndChar

StartChar: uni0D00
Encoding: 3328 3328 4
Width: 0
GlyphClass: 4
Flags: W
AnchorPoint: "Anchor-7" -278 468 mark 0
AnchorPoint: "Anchor-4" -278 468 mark 0
AnchorPoint: "Anchor-2" -278 468 mark 0
AnchorPoint: "Anchor-0" -278 468 mark 0
LayerCount: 2
Fore
SplineSet
-429 721 m 256,0,1
 -429 781 -429 781 -388 822.5 c 128,-1,2
 -347 864 -347 864 -278 864 c 0,3,4
 -208 864 -208 864 -167 823 c 128,-1,5
 -126 782 -126 782 -126 721 c 256,6,7
 -126 660 -126 660 -167 619 c 128,-1,8
 -208 578 -208 578 -278 578 c 256,9,10
 -348 578 -348 578 -388.5 619.5 c 128,-1,11
 -429 661 -429 661 -429 721 c 256,0,1
-356 722 m 0,12,13
 -356 691 -356 691 -337 667 c 128,-1,14
 -318 643 -318 643 -278 643 c 0,15,16
 -237 643 -237 643 -218 667 c 128,-1,17
 -199 691 -199 691 -199 722 c 0,18,19
 -199 752 -199 752 -218.5 775.5 c 128,-1,20
 -238 799 -238 799 -278 799 c 0,21,22
 -317 799 -317 799 -336.5 775.5 c 128,-1,23
 -356 752 -356 752 -356 722 c 0,12,13
EndSplineSet
Substitution2: "Single Substitution lookup 23 subtable" vapostmlym
Substitution2: "Single Substitution lookup 22 subtable" yapostaltmlym
Substitution2: "Single Substitution lookup 21 subtable" vapostmlym
Substitution2: "Single Substitution lookup 20 subtable" yapostmlym
Substitution2: "Single Substitution lookup 19 subtable" llvocalicvowelsignaltmlym
Substitution2: "Single Substitution lookup 18 subtable" lvocalicvowelsignaltmlym
Substitution2: "Single Substitution lookup 17 subtable" aulengthmarkmlym
Substitution2: "Single Substitution lookup 16 subtable" rrvocalicvowelsignmlym
Substitution2: "Single Substitution lookup 15 subtable" rvocalicvowelsignmlym
Substitution2: "Single Substitution lookup 14 subtable" uuvowelsignmlym
Substitution2: "Single Substitution lookup 13 subtable" uvowelsignmlym
Substitution2: "Single Substitution lookup 12 subtable" iivowelsignmlym
Substitution2: "Single Substitution lookup 11 subtable" ivowelsignmlym
Substitution2: "Single Substitution lookup 10 subtable" aavowelsignmlym
Substitution2: "Single Substitution lookup 9 subtable" visargamlym
Substitution2: "Single Substitution lookup 8 subtable" anusvaramlym
EndChar

StartChar: candrabindumlym
Encoding: 3329 3329 5
Width: 0
GlyphClass: 4
Flags: W
AnchorPoint: "Anchor-7" -278 528 mark 0
AnchorPoint: "Anchor-4" -278 528 mark 0
AnchorPoint: "Anchor-2" -278 528 mark 0
AnchorPoint: "Anchor-0" -278 528 mark 0
LayerCount: 2
Fore
SplineSet
-278 652 m 0,0,1
 -362 652 -362 652 -407 692.5 c 128,-1,2
 -452 733 -452 733 -452 807 c 0,3,4
 -452 821 -452 821 -450 835.5 c 128,-1,5
 -448 850 -448 850 -444 862 c 1,6,-1
 -376 848 l 1,7,8
 -379 838 -379 838 -380 827.5 c 128,-1,9
 -381 817 -381 817 -381 809 c 0,10,11
 -381 773 -381 773 -366.5 753 c 128,-1,12
 -352 733 -352 733 -328 725 c 128,-1,13
 -304 717 -304 717 -278 717 c 0,14,15
 -251 717 -251 717 -227.5 726 c 128,-1,16
 -204 735 -204 735 -189.5 755.5 c 128,-1,17
 -175 776 -175 776 -175 811 c 0,18,19
 -175 819 -175 819 -176 828.5 c 128,-1,20
 -177 838 -177 838 -180 848 c 1,21,-1
 -111 862 l 1,22,23
 -108 850 -108 850 -106 835 c 128,-1,24
 -104 820 -104 820 -104 807 c 0,25,26
 -104 734 -104 734 -150.5 693 c 128,-1,27
 -197 652 -197 652 -278 652 c 0,0,1
-279 759 m 256,28,29
 -301 759 -301 759 -315 773 c 128,-1,30
 -329 787 -329 787 -329 810 c 0,31,32
 -329 831 -329 831 -315 845.5 c 128,-1,33
 -301 860 -301 860 -279 860 c 256,34,35
 -257 860 -257 860 -242.5 845.5 c 128,-1,36
 -228 831 -228 831 -228 810 c 0,37,38
 -228 787 -228 787 -242.5 773 c 128,-1,39
 -257 759 -257 759 -279 759 c 256,28,29
EndSplineSet
Substitution2: "Single Substitution lookup 23 subtable" vapostaltmlym
Substitution2: "Single Substitution lookup 22 subtable" yapostaltmlym
Substitution2: "Single Substitution lookup 21 subtable" vapostmlym
Substitution2: "Single Substitution lookup 20 subtable" yapostmlym
Substitution2: "Single Substitution lookup 19 subtable" llvocalicvowelsignaltmlym
Substitution2: "Single Substitution lookup 18 subtable" lvocalicvowelsignaltmlym
Substitution2: "Single Substitution lookup 17 subtable" aulengthmarkmlym
Substitution2: "Single Substitution lookup 16 subtable" rrvocalicvowelsignmlym
Substitution2: "Single Substitution lookup 15 subtable" rvocalicvowelsignmlym
Substitution2: "Single Substitution lookup 14 subtable" uuvowelsignmlym
Substitution2: "Single Substitution lookup 13 subtable" uvowelsignmlym
Substitution2: "Single Substitution lookup 12 subtable" iivowelsignmlym
Substitution2: "Single Substitution lookup 11 subtable" ivowelsignmlym
Substitution2: "Single Substitution lookup 10 subtable" aavowelsignmlym
Substitution2: "Single Substitution lookup 9 subtable" visargamlym
Substitution2: "Single Substitution lookup 8 subtable" anusvaramlym
EndChar

StartChar: anusvaramlym
Encoding: 3330 3330 6
Width: 453
GlyphClass: 4
Flags: W
LayerCount: 2
Fore
SplineSet
226 -12 m 0,0,1
 166 -12 166 -12 122.5 12 c 128,-1,2
 79 36 79 36 55.5 78.5 c 128,-1,3
 32 121 32 121 32 176 c 0,4,5
 32 232 32 232 56.5 274 c 128,-1,6
 81 316 81 316 125 339.5 c 128,-1,7
 169 363 169 363 226 363 c 0,8,9
 284 363 284 363 327.5 340 c 128,-1,10
 371 317 371 317 396 275.5 c 128,-1,11
 421 234 421 234 421 176 c 0,12,13
 421 119 421 119 396 77 c 128,-1,14
 371 35 371 35 327.5 11.5 c 128,-1,15
 284 -12 284 -12 226 -12 c 0,0,1
226 295 m 0,16,17
 179 295 179 295 147.5 265.5 c 128,-1,18
 116 236 116 236 116 175 c 0,19,20
 116 115 116 115 148 85.5 c 128,-1,21
 180 56 180 56 226 56 c 0,22,23
 273 56 273 56 305 85.5 c 128,-1,24
 337 115 337 115 337 176 c 0,25,26
 337 236 337 236 305.5 265.5 c 128,-1,27
 274 295 274 295 226 295 c 0,16,17
EndSplineSet
Substitution2: "Single Substitution lookup 7 subtable" candrabindu_1CDAmlym
Substitution2: "Single Substitution lookup 6 subtable" candrabindu_0952mlym
Substitution2: "Single Substitution lookup 5 subtable" candrabindu_0951mlym
Substitution2: "Single Substitution lookup 4 subtable" uni0D00
Substitution2: "Single Substitution lookup 3 subtable" uni1CDA
Substitution2: "Single Substitution lookup 2 subtable" uni0952
Substitution2: "Single Substitution lookup 1 subtable" uni0951
Substitution2: "Single Substitution lookup 0 subtable" candrabindumlym
EndChar

StartChar: visargamlym
Encoding: 3331 3331 7
Width: 336
GlyphClass: 4
Flags: W
LayerCount: 2
Fore
SplineSet
33 436 m 256,0,1
 33 491 33 491 70 528.5 c 128,-1,2
 107 566 107 566 168 566 c 0,3,4
 230 566 230 566 267 529 c 128,-1,5
 304 492 304 492 304 436 c 0,6,7
 304 381 304 381 267 343.5 c 128,-1,8
 230 306 230 306 168 306 c 256,9,10
 106 306 106 306 69.5 343.5 c 128,-1,11
 33 381 33 381 33 436 c 256,0,1
104 437 m 0,12,13
 104 409 104 409 120.5 390 c 128,-1,14
 137 371 137 371 168 371 c 0,15,16
 200 371 200 371 216.5 390 c 128,-1,17
 233 409 233 409 233 437 c 0,18,19
 233 464 233 464 216.5 482.5 c 128,-1,20
 200 501 200 501 168 501 c 0,21,22
 137 501 137 501 120.5 482.5 c 128,-1,23
 104 464 104 464 104 437 c 0,12,13
33 118 m 256,24,25
 33 173 33 173 70 210.5 c 128,-1,26
 107 248 107 248 168 248 c 0,27,28
 230 248 230 248 267 211 c 128,-1,29
 304 174 304 174 304 118 c 0,30,31
 304 63 304 63 267 25.5 c 128,-1,32
 230 -12 230 -12 168 -12 c 256,33,34
 106 -12 106 -12 69.5 25.5 c 128,-1,35
 33 63 33 63 33 118 c 256,24,25
104 119 m 0,36,37
 104 91 104 91 120.5 72 c 128,-1,38
 137 53 137 53 168 53 c 0,39,40
 200 53 200 53 216.5 72 c 128,-1,41
 233 91 233 91 233 119 c 0,42,43
 233 146 233 146 216.5 164.5 c 128,-1,44
 200 183 200 183 168 183 c 0,45,46
 137 183 137 183 120.5 164.5 c 128,-1,47
 104 146 104 146 104 119 c 0,36,37
EndSplineSet
Substitution2: "Single Substitution lookup 7 subtable" candrabindu_1CDAmlym
Substitution2: "Single Substitution lookup 6 subtable" candrabindu_0952mlym
Substitution2: "Single Substitution lookup 5 subtable" candrabindu_0951mlym
Substitution2: "Single Substitution lookup 4 subtable" uni0D00
Substitution2: "Single Substitution lookup 3 subtable" uni1CDA
Substitution2: "Single Substitution lookup 2 subtable" uni0952
Substitution2: "Single Substitution lookup 1 subtable" uni0951
Substitution2: "Single Substitution lookup 0 subtable" candrabindumlym
EndChar

StartChar: uni0D04
Encoding: 3332 3332 8
Width: 583
Flags: W
LayerCount: 2
Fore
SplineSet
48 318 m 1,0,-1
 131 303 l 1,1,2
 125 283 125 283 122.5 260.5 c 128,-1,3
 120 238 120 238 120 215 c 0,4,5
 120 148 120 148 158.5 106 c 128,-1,6
 197 64 197 64 291 64 c 0,7,8
 386 64 386 64 424.5 106 c 128,-1,9
 463 148 463 148 463 215 c 0,10,11
 463 238 463 238 460.5 260.5 c 128,-1,12
 458 283 458 283 452 303 c 1,13,-1
 535 318 l 1,14,15
 540 299 540 299 544.5 271 c 128,-1,16
 549 243 549 243 549 212 c 0,17,18
 549 149 549 149 523 99 c 128,-1,19
 497 49 497 49 440.5 20 c 128,-1,20
 384 -9 384 -9 291 -9 c 0,21,22
 199 -9 199 -9 142.5 20 c 128,-1,23
 86 49 86 49 60 99 c 128,-1,24
 34 149 34 149 34 212 c 0,25,26
 34 243 34 243 38.5 271 c 128,-1,27
 43 299 43 299 48 318 c 1,0,-1
253 403 m 1,28,-1
 331 403 l 1,29,-1
 331 171 l 1,30,-1
 253 171 l 1,31,-1
 253 403 l 1,28,-1
EndSplineSet
EndChar

StartChar: amlym
Encoding: 3333 3333 9
Width: 1495
GlyphClass: 2
Flags: W
AnchorPoint: "Anchor-3" 566 0 basechar 0
AnchorPoint: "Anchor-0" 747 554 basechar 0
LayerCount: 2
Fore
SplineSet
367 566 m 0,0,1
 411 566 411 566 458.5 558 c 128,-1,2
 506 550 506 550 546 533 c 0,3,4
 551 531 551 531 558 525.5 c 128,-1,5
 565 520 565 520 570 518 c 0,6,7
 625 504 625 504 655 480 c 128,-1,8
 685 456 685 456 697.5 427.5 c 128,-1,9
 710 399 710 399 710 368 c 0,10,11
 710 344 710 344 702 323 c 128,-1,12
 694 302 694 302 674.5 285 c 128,-1,13
 655 268 655 268 622 253 c 1,14,-1
 626 256 l 1,15,16
 670 242 670 242 695.5 211 c 128,-1,17
 721 180 721 180 721 136 c 0,18,19
 721 97 721 97 701.5 63 c 128,-1,20
 682 29 682 29 641 8.5 c 128,-1,21
 600 -12 600 -12 533 -12 c 0,22,23
 457 -12 457 -12 406.5 21 c 128,-1,24
 356 54 356 54 331 110 c 128,-1,25
 306 166 306 166 306 235 c 0,26,27
 306 291 306 291 323 342 c 128,-1,28
 340 393 340 393 375.5 437 c 128,-1,29
 411 481 411 481 468 515 c 0,30,31
 473 518 473 518 478 521 c 128,-1,32
 483 524 483 524 488 527 c 0,33,34
 524 545 524 545 568 555.5 c 128,-1,35
 612 566 612 566 669 566 c 0,36,37
 737 566 737 566 782 549 c 128,-1,38
 827 532 827 532 857.5 504.5 c 128,-1,39
 888 477 888 477 910 444 c 1,40,-1
 936 247 l 1,41,-1
 936 0 l 1,42,-1
 849 0 l 1,43,-1
 849 281 l 2,44,45
 849 355 849 355 837 393 c 128,-1,46
 825 431 825 431 800 454 c 0,47,48
 778 474 778 474 746 486.5 c 128,-1,49
 714 499 714 499 657 499 c 0,50,51
 630 499 630 499 605.5 495.5 c 128,-1,52
 581 492 581 492 561 486 c 0,53,54
 514 472 514 472 481 444 c 128,-1,55
 448 416 448 416 428 380 c 128,-1,56
 408 344 408 344 399 307.5 c 128,-1,57
 390 271 390 271 390 239 c 0,58,59
 390 151 390 151 427 103 c 128,-1,60
 464 55 464 55 534 55 c 0,61,62
 586 55 586 55 611.5 76 c 128,-1,63
 637 97 637 97 637 138 c 0,64,65
 637 175 637 175 608.5 196.5 c 128,-1,66
 580 218 580 218 519 218 c 2,67,-1
 500 218 l 1,68,-1
 500 288 l 1,69,-1
 514 288 l 2,70,71
 576 288 576 288 601 310 c 128,-1,72
 626 332 626 332 626 369 c 0,73,74
 626 416 626 416 593.5 444.5 c 128,-1,75
 561 473 561 473 497 484 c 0,76,77
 458 494 458 494 428 495.5 c 128,-1,78
 398 497 398 497 374 497 c 0,79,80
 291 497 291 497 236.5 467.5 c 128,-1,81
 182 438 182 438 155 387.5 c 128,-1,82
 128 337 128 337 128 273 c 0,83,84
 128 221 128 221 143 180 c 128,-1,85
 158 139 158 139 185.5 108 c 128,-1,86
 213 77 213 77 250 54 c 1,87,-1
 200 -9 l 1,88,89
 157 16 157 16 120.5 55.5 c 128,-1,90
 84 95 84 95 61.5 150.5 c 128,-1,91
 39 206 39 206 39 277 c 0,92,93
 39 339 39 339 59 391.5 c 128,-1,94
 79 444 79 444 120 483 c 128,-1,95
 161 522 161 522 222.5 544 c 128,-1,96
 284 566 284 566 367 566 c 0,0,1
1243 -12 m 0,97,98
 1179 -12 1179 -12 1136 17 c 128,-1,99
 1093 46 1093 46 1071.5 93.5 c 128,-1,100
 1050 141 1050 141 1050 196 c 0,101,102
 1050 291 1050 291 1101 347.5 c 128,-1,103
 1152 404 1152 404 1238 404 c 0,104,105
 1294 404 1294 404 1335.5 375 c 128,-1,106
 1377 346 1377 346 1401 301 c 128,-1,107
 1425 256 1425 256 1427 206 c 1,108,-1
 1402 209 l 1,109,110
 1395 240 1395 240 1375.5 268.5 c 128,-1,111
 1356 297 1356 297 1325.5 315.5 c 128,-1,112
 1295 334 1295 334 1255 334 c 0,113,114
 1192 334 1192 334 1163 296.5 c 128,-1,115
 1134 259 1134 259 1134 198 c 0,116,117
 1134 157 1134 157 1145.5 125 c 128,-1,118
 1157 93 1157 93 1181 75.5 c 128,-1,119
 1205 58 1205 58 1244 58 c 0,120,121
 1285 58 1285 58 1313.5 77 c 128,-1,122
 1342 96 1342 96 1357.5 138 c 128,-1,123
 1373 180 1373 180 1373 248 c 0,124,125
 1373 259 1373 259 1371.5 271.5 c 128,-1,126
 1370 284 1370 284 1368 298 c 0,127,128
 1367 306 1367 306 1366 316 c 128,-1,129
 1365 326 1365 326 1363 335 c 0,130,131
 1355 373 1355 373 1327.5 409.5 c 128,-1,132
 1300 446 1300 446 1251 470 c 128,-1,133
 1202 494 1202 494 1127 494 c 0,134,135
 1084 494 1084 494 1049.5 484 c 128,-1,136
 1015 474 1015 474 989 451 c 0,137,138
 973 436 973 436 961 415.5 c 128,-1,139
 949 395 949 395 942.5 365 c 128,-1,140
 936 335 936 335 936 289 c 2,141,-1
 936 204 l 1,142,-1
 884 454 l 1,143,144
 909 486 909 486 941 511.5 c 128,-1,145
 973 537 973 537 1018 551.5 c 128,-1,146
 1063 566 1063 566 1127 566 c 0,147,148
 1209 566 1209 566 1270.5 542 c 128,-1,149
 1332 518 1332 518 1373.5 474.5 c 128,-1,150
 1415 431 1415 431 1435.5 372 c 128,-1,151
 1456 313 1456 313 1456 242 c 0,152,153
 1456 153 1456 153 1428 96.5 c 128,-1,154
 1400 40 1400 40 1352 14 c 128,-1,155
 1304 -12 1304 -12 1243 -12 c 0,97,98
EndSplineSet
EndChar

StartChar: aamlym
Encoding: 3334 3334 10
Width: 1647
GlyphClass: 2
Flags: W
AnchorPoint: "Anchor-3" 619 0 basechar 0
AnchorPoint: "Anchor-0" 823 554 basechar 0
LayerCount: 2
Fore
SplineSet
367 566 m 0,0,1
 411 566 411 566 458.5 558 c 128,-1,2
 506 550 506 550 546 533 c 0,3,4
 551 531 551 531 558 525.5 c 128,-1,5
 565 520 565 520 570 518 c 0,6,7
 625 504 625 504 655 480 c 128,-1,8
 685 456 685 456 697.5 427.5 c 128,-1,9
 710 399 710 399 710 368 c 0,10,11
 710 344 710 344 702 323 c 128,-1,12
 694 302 694 302 674.5 285 c 128,-1,13
 655 268 655 268 622 253 c 1,14,-1
 626 256 l 1,15,16
 670 242 670 242 695.5 211 c 128,-1,17
 721 180 721 180 721 136 c 0,18,19
 721 97 721 97 701.5 63 c 128,-1,20
 682 29 682 29 641 8.5 c 128,-1,21
 600 -12 600 -12 533 -12 c 0,22,23
 457 -12 457 -12 406.5 21 c 128,-1,24
 356 54 356 54 331 110 c 128,-1,25
 306 166 306 166 306 235 c 0,26,27
 306 291 306 291 323 342 c 128,-1,28
 340 393 340 393 375.5 437 c 128,-1,29
 411 481 411 481 468 515 c 0,30,31
 473 518 473 518 478 521 c 128,-1,32
 483 524 483 524 488 527 c 0,33,34
 524 545 524 545 568 555.5 c 128,-1,35
 612 566 612 566 669 566 c 0,36,37
 737 566 737 566 782 549 c 128,-1,38
 827 532 827 532 857.5 504.5 c 128,-1,39
 888 477 888 477 910 444 c 1,40,-1
 936 247 l 1,41,-1
 936 0 l 1,42,-1
 849 0 l 1,43,-1
 849 281 l 2,44,45
 849 355 849 355 837 393 c 128,-1,46
 825 431 825 431 800 454 c 0,47,48
 778 474 778 474 746 486.5 c 128,-1,49
 714 499 714 499 657 499 c 0,50,51
 630 499 630 499 605.5 495.5 c 128,-1,52
 581 492 581 492 561 486 c 0,53,54
 514 472 514 472 481 444 c 128,-1,55
 448 416 448 416 428 380 c 128,-1,56
 408 344 408 344 399 307.5 c 128,-1,57
 390 271 390 271 390 239 c 0,58,59
 390 151 390 151 427 103 c 128,-1,60
 464 55 464 55 534 55 c 0,61,62
 586 55 586 55 611.5 76 c 128,-1,63
 637 97 637 97 637 138 c 0,64,65
 637 175 637 175 608.5 196.5 c 128,-1,66
 580 218 580 218 519 218 c 2,67,-1
 500 218 l 1,68,-1
 500 288 l 1,69,-1
 514 288 l 2,70,71
 576 288 576 288 601 310 c 128,-1,72
 626 332 626 332 626 369 c 0,73,74
 626 416 626 416 593.5 444.5 c 128,-1,75
 561 473 561 473 497 484 c 0,76,77
 458 494 458 494 428 495.5 c 128,-1,78
 398 497 398 497 374 497 c 0,79,80
 291 497 291 497 236.5 467.5 c 128,-1,81
 182 438 182 438 155 387.5 c 128,-1,82
 128 337 128 337 128 273 c 0,83,84
 128 221 128 221 143 180 c 128,-1,85
 158 139 158 139 185.5 108 c 128,-1,86
 213 77 213 77 250 54 c 1,87,-1
 200 -9 l 1,88,89
 157 16 157 16 120.5 55.5 c 128,-1,90
 84 95 84 95 61.5 150.5 c 128,-1,91
 39 206 39 206 39 277 c 0,92,93
 39 339 39 339 59 391.5 c 128,-1,94
 79 444 79 444 120 483 c 128,-1,95
 161 522 161 522 222.5 544 c 128,-1,96
 284 566 284 566 367 566 c 0,0,1
1117 566 m 0,97,98
 1203 566 1203 566 1266 536.5 c 128,-1,99
 1329 507 1329 507 1369 454 c 128,-1,100
 1409 401 1409 401 1425 329 c 0,101,102
 1431 304 1431 304 1433.5 278 c 128,-1,103
 1436 252 1436 252 1436 224 c 0,104,105
 1436 143 1436 143 1409.5 90.5 c 128,-1,106
 1383 38 1383 38 1335.5 13 c 128,-1,107
 1288 -12 1288 -12 1223 -12 c 256,108,109
 1158 -12 1158 -12 1116.5 15 c 128,-1,110
 1075 42 1075 42 1055.5 84.5 c 128,-1,111
 1036 127 1036 127 1036 171 c 0,112,113
 1036 269 1036 269 1105.5 325.5 c 128,-1,114
 1175 382 1175 382 1304 382 c 0,115,116
 1312 382 1312 382 1322.5 381.5 c 128,-1,117
 1333 381 1333 381 1345 379 c 2,118,-1
 1375 377 l 1,119,120
 1451 365 1451 365 1505.5 325.5 c 128,-1,121
 1560 286 1560 286 1589.5 225.5 c 128,-1,122
 1619 165 1619 165 1619 91 c 0,123,124
 1619 23 1619 23 1598.5 -31 c 128,-1,125
 1578 -85 1578 -85 1538 -123 c 128,-1,126
 1498 -161 1498 -161 1439.5 -181 c 128,-1,127
 1381 -201 1381 -201 1306 -201 c 0,128,129
 1254 -201 1254 -201 1211 -192 c 128,-1,130
 1168 -183 1168 -183 1138 -172 c 1,131,-1
 1166 -102 l 1,132,133
 1194 -114 1194 -114 1229.5 -121 c 128,-1,134
 1265 -128 1265 -128 1308 -128 c 0,135,136
 1370 -128 1370 -128 1412.5 -111.5 c 128,-1,137
 1455 -95 1455 -95 1482 -65 c 128,-1,138
 1509 -35 1509 -35 1521 5 c 128,-1,139
 1533 45 1533 45 1533 92 c 0,140,141
 1533 144 1533 144 1519.5 183 c 128,-1,142
 1506 222 1506 222 1479 250 c 128,-1,143
 1452 278 1452 278 1412 296 c 1,144,-1
 1374 302 l 2,145,146
 1356 308 1356 308 1337 310.5 c 128,-1,147
 1318 313 1318 313 1301 313 c 0,148,149
 1244 313 1244 313 1204 297.5 c 128,-1,150
 1164 282 1164 282 1143 251 c 128,-1,151
 1122 220 1122 220 1122 171 c 0,152,153
 1122 144 1122 144 1132 118 c 128,-1,154
 1142 92 1142 92 1165.5 75 c 128,-1,155
 1189 58 1189 58 1227 58 c 0,156,157
 1289 58 1289 58 1321 100 c 128,-1,158
 1353 142 1353 142 1353 225 c 0,159,160
 1353 252 1353 252 1350 279.5 c 128,-1,161
 1347 307 1347 307 1340 332 c 2,162,-1
 1335 354 l 1,163,164
 1321 394 1321 394 1294 425.5 c 128,-1,165
 1267 457 1267 457 1224 475.5 c 128,-1,166
 1181 494 1181 494 1118 494 c 0,167,168
 1083 494 1083 494 1048.5 484 c 128,-1,169
 1014 474 1014 474 988 451 c 0,170,171
 972 436 972 436 960.5 415.5 c 128,-1,172
 949 395 949 395 942.5 364.5 c 128,-1,173
 936 334 936 334 936 288 c 2,174,-1
 936 204 l 1,175,-1
 880 450 l 1,176,177
 907 487 907 487 941.5 513 c 128,-1,178
 976 539 976 539 1020 552.5 c 128,-1,179
 1064 566 1064 566 1117 566 c 0,97,98
EndSplineSet
EndChar

StartChar: imlym
Encoding: 3335 3335 11
Width: 986
GlyphClass: 2
Flags: W
AnchorPoint: "Anchor-3" 370 0 basechar 0
AnchorPoint: "Anchor-0" 493 554 basechar 0
LayerCount: 2
Fore
SplineSet
331 566 m 0,0,1
 392 566 392 566 434 553.5 c 128,-1,2
 476 541 476 541 504.5 518.5 c 128,-1,3
 533 496 533 496 552 466 c 1,4,-1
 534 470 l 1,5,6
 568 524 568 524 610.5 545 c 128,-1,7
 653 566 653 566 711 566 c 0,8,9
 772 566 772 566 816.5 544 c 128,-1,10
 861 522 861 522 890 484.5 c 128,-1,11
 919 447 919 447 933 400 c 128,-1,12
 947 353 947 353 947 304 c 0,13,14
 947 217 947 217 921 157 c 128,-1,15
 895 97 895 97 847 61 c 0,16,17
 819 40 819 40 784 26.5 c 128,-1,18
 749 13 749 13 700.5 6.5 c 128,-1,19
 652 0 652 0 584 0 c 2,20,-1
 263 0 l 2,21,22
 220 0 220 0 199 -3 c 128,-1,23
 178 -6 178 -6 166 -13 c 0,24,25
 150 -20 150 -20 143 -33 c 128,-1,26
 136 -46 136 -46 136 -62 c 0,27,28
 136 -77 136 -77 141 -89.5 c 128,-1,29
 146 -102 146 -102 159 -110 c 0,30,31
 172 -119 172 -119 194.5 -124 c 128,-1,32
 217 -129 217 -129 259 -129 c 2,33,-1
 925 -129 l 1,34,-1
 925 -201 l 1,35,-1
 255 -201 l 2,36,37
 203 -201 203 -201 167 -193 c 128,-1,38
 131 -185 131 -185 106 -170 c 0,39,40
 78 -153 78 -153 64 -127 c 128,-1,41
 50 -101 50 -101 50 -68 c 0,42,43
 50 -33 50 -33 62.5 -5.5 c 128,-1,44
 75 22 75 22 103 40 c 0,45,46
 117 50 117 50 135 56.5 c 128,-1,47
 153 63 153 63 178 66.5 c 128,-1,48
 203 70 203 70 238 70 c 2,49,-1
 572 70 l 2,50,51
 648 70 648 70 693.5 78.5 c 128,-1,52
 739 87 739 87 766.5 103 c 128,-1,53
 794 119 794 119 813 141 c 0,54,55
 840 173 840 173 849.5 214 c 128,-1,56
 859 255 859 255 859 301 c 0,57,58
 859 350 859 350 843 394 c 128,-1,59
 827 438 827 438 794 466 c 128,-1,60
 761 494 761 494 709 494 c 0,61,62
 676 494 676 494 653.5 484.5 c 128,-1,63
 631 475 631 475 615 455 c 0,64,65
 598 433 598 433 591 400 c 128,-1,66
 584 367 584 367 584 300 c 2,67,-1
 584 122 l 1,68,-1
 498 122 l 1,69,-1
 498 309 l 2,70,71
 498 372 498 372 486.5 404.5 c 128,-1,72
 475 437 475 437 453 458 c 0,73,74
 434 476 434 476 405 486 c 128,-1,75
 376 496 376 496 329 496 c 0,76,77
 285 496 285 496 251 486 c 128,-1,78
 217 476 217 476 192 458.5 c 128,-1,79
 167 441 167 441 150 417 c 128,-1,80
 133 393 133 393 122 365 c 0,81,82
 121 361 121 361 122.5 357.5 c 128,-1,83
 124 354 124 354 123 351 c 0,84,85
 120 340 120 340 118.5 329.5 c 128,-1,86
 117 319 117 319 117 308 c 0,87,88
 117 247 117 247 139.5 215 c 128,-1,89
 162 183 162 183 209 183 c 0,90,91
 254 183 254 183 274.5 209 c 128,-1,92
 295 235 295 235 295 270 c 0,93,94
 295 292 295 292 287 310 c 128,-1,95
 279 328 279 328 261 339 c 128,-1,96
 243 350 243 350 214 350 c 0,97,98
 168 350 168 350 138.5 324 c 128,-1,99
 109 298 109 298 89 271 c 1,100,-1
 66 329 l 1,101,102
 82 349 82 349 105.5 369 c 128,-1,103
 129 389 129 389 160 402.5 c 128,-1,104
 191 416 191 416 229 416 c 0,105,106
 281 416 281 416 314 395.5 c 128,-1,107
 347 375 347 375 362.5 342 c 128,-1,108
 378 309 378 309 378 270 c 0,109,110
 378 230 378 230 360 194.5 c 128,-1,111
 342 159 342 159 305 137 c 128,-1,112
 268 115 268 115 210 115 c 0,113,114
 159 115 159 115 120.5 138 c 128,-1,115
 82 161 82 161 61 204.5 c 128,-1,116
 40 248 40 248 40 311 c 0,117,118
 40 381 40 381 74 439 c 128,-1,119
 108 497 108 497 173 531.5 c 128,-1,120
 238 566 238 566 331 566 c 0,0,1
EndSplineSet
EndChar

StartChar: umlym
Encoding: 3337 3337 13
Width: 692
GlyphClass: 2
Flags: W
AnchorPoint: "Anchor-3" 264 0 basechar 0
AnchorPoint: "Anchor-0" 346 554 basechar 0
LayerCount: 2
Fore
SplineSet
347 566 m 0,0,1
 432 566 432 566 490.5 542 c 128,-1,2
 549 518 549 518 585 478 c 128,-1,3
 621 438 621 438 637 389.5 c 128,-1,4
 653 341 653 341 653 291 c 0,5,6
 653 219 653 219 633 166.5 c 128,-1,7
 613 114 613 114 573 79 c 0,8,9
 540 50 540 50 497.5 32.5 c 128,-1,10
 455 15 455 15 398 7.5 c 128,-1,11
 341 0 341 0 263 0 c 2,12,-1
 261 0 l 2,13,14
 220 0 220 0 199 -3 c 128,-1,15
 178 -6 178 -6 166 -13 c 0,16,17
 150 -20 150 -20 143 -33 c 128,-1,18
 136 -46 136 -46 136 -62 c 0,19,20
 136 -77 136 -77 141 -89.5 c 128,-1,21
 146 -102 146 -102 159 -110 c 0,22,23
 172 -119 172 -119 194.5 -124 c 128,-1,24
 217 -129 217 -129 259 -129 c 2,25,-1
 633 -129 l 1,26,-1
 633 -201 l 1,27,-1
 255 -201 l 2,28,29
 203 -201 203 -201 167 -193 c 128,-1,30
 131 -185 131 -185 106 -170 c 0,31,32
 78 -153 78 -153 64 -127 c 128,-1,33
 50 -101 50 -101 50 -68 c 0,34,35
 50 -33 50 -33 62.5 -5.5 c 128,-1,36
 75 22 75 22 103 40 c 0,37,38
 124 54 124 54 155 62 c 128,-1,39
 186 70 186 70 238 70 c 2,40,-1
 249 70 l 2,41,42
 330 70 330 70 382.5 77.5 c 128,-1,43
 435 85 435 85 468 101.5 c 128,-1,44
 501 118 501 118 523 143 c 0,45,46
 546 169 546 169 555.5 206 c 128,-1,47
 565 243 565 243 565 290 c 0,48,49
 565 329 565 329 553 366 c 128,-1,50
 541 403 541 403 514.5 432 c 128,-1,51
 488 461 488 461 445 478.5 c 128,-1,52
 402 496 402 496 339 496 c 0,53,54
 291 496 291 496 255 486 c 128,-1,55
 219 476 219 476 193 458.5 c 128,-1,56
 167 441 167 441 150 417 c 128,-1,57
 133 393 133 393 122 365 c 0,58,59
 121 361 121 361 122.5 357.5 c 128,-1,60
 124 354 124 354 123 351 c 0,61,62
 120 340 120 340 118.5 329.5 c 128,-1,63
 117 319 117 319 117 308 c 0,64,65
 117 247 117 247 139.5 215 c 128,-1,66
 162 183 162 183 209 183 c 0,67,68
 254 183 254 183 274.5 209 c 128,-1,69
 295 235 295 235 295 270 c 0,70,71
 295 292 295 292 287 310 c 128,-1,72
 279 328 279 328 261 339 c 128,-1,73
 243 350 243 350 214 350 c 0,74,75
 168 350 168 350 138.5 324 c 128,-1,76
 109 298 109 298 89 271 c 1,77,-1
 66 329 l 1,78,79
 82 349 82 349 105.5 369 c 128,-1,80
 129 389 129 389 160 402.5 c 128,-1,81
 191 416 191 416 229 416 c 0,82,83
 281 416 281 416 314 395.5 c 128,-1,84
 347 375 347 375 362.5 342 c 128,-1,85
 378 309 378 309 378 270 c 0,86,87
 378 230 378 230 360 194.5 c 128,-1,88
 342 159 342 159 305 137 c 128,-1,89
 268 115 268 115 210 115 c 0,90,91
 159 115 159 115 120.5 138 c 128,-1,92
 82 161 82 161 61 204.5 c 128,-1,93
 40 248 40 248 40 311 c 0,94,95
 40 364 40 364 59.5 410 c 128,-1,96
 79 456 79 456 118 491 c 128,-1,97
 157 526 157 526 214.5 546 c 128,-1,98
 272 566 272 566 347 566 c 0,0,1
EndSplineSet
EndChar

StartChar: rvocalicmlym
Encoding: 3339 3339 15
Width: 871
GlyphClass: 2
Flags: W
AnchorPoint: "Anchor-3" 339 0 basechar 0
AnchorPoint: "Anchor-0" 435 554 basechar 0
LayerCount: 2
Fore
SplineSet
656 566 m 0,0,1
 737 566 737 566 785.5 511.5 c 128,-1,2
 834 457 834 457 834 362 c 0,3,4
 834 293 834 293 810 241.5 c 128,-1,5
 786 190 786 190 739 152 c 0,6,7
 699 119 699 119 636 105 c 128,-1,8
 573 91 573 91 462 91 c 2,9,-1
 404 91 l 2,10,11
 335 91 335 91 288.5 95 c 128,-1,12
 242 99 242 99 211 109 c 128,-1,13
 180 119 180 119 154 135 c 0,14,15
 97 173 97 173 67 230.5 c 128,-1,16
 37 288 37 288 37 359 c 0,17,18
 37 422 37 422 60 468.5 c 128,-1,19
 83 515 83 515 125.5 540.5 c 128,-1,20
 168 566 168 566 228 566 c 0,21,22
 285 566 285 566 322 543 c 128,-1,23
 359 520 359 520 377 483 c 128,-1,24
 395 446 395 446 395 403 c 0,25,26
 395 362 395 362 377.5 327.5 c 128,-1,27
 360 293 360 293 325.5 272 c 128,-1,28
 291 251 291 251 238 251 c 0,29,30
 192 251 192 251 159.5 264.5 c 128,-1,31
 127 278 127 278 104.5 298.5 c 128,-1,32
 82 319 82 319 65 340 c 1,33,-1
 88 400 l 1,34,35
 103 382 103 382 119.5 363.5 c 128,-1,36
 136 345 136 345 161 332.5 c 128,-1,37
 186 320 186 320 225 320 c 0,38,39
 273 320 273 320 293.5 345 c 128,-1,40
 314 370 314 370 314 405 c 0,41,42
 314 443 314 443 292 469.5 c 128,-1,43
 270 496 270 496 224 496 c 0,44,45
 187 496 187 496 162.5 479.5 c 128,-1,46
 138 463 138 463 126.5 433 c 128,-1,47
 115 403 115 403 115 362 c 0,48,49
 115 350 115 350 116 338.5 c 128,-1,50
 117 327 117 327 120 315 c 1,51,-1
 115 301 l 1,52,53
 132 257 132 257 157 228.5 c 128,-1,54
 182 200 182 200 217.5 184 c 128,-1,55
 253 168 253 168 303 162 c 128,-1,56
 353 156 353 156 420 156 c 2,57,-1
 444 156 l 2,58,59
 518 156 518 156 570.5 163 c 128,-1,60
 623 170 623 170 658.5 186 c 128,-1,61
 694 202 694 202 717 230 c 128,-1,62
 740 258 740 258 756 301 c 1,63,-1
 751 315 l 1,64,65
 754 327 754 327 755 337.5 c 128,-1,66
 756 348 756 348 756 353 c 0,67,68
 756 402 756 402 744 433.5 c 128,-1,69
 732 465 732 465 709 480.5 c 128,-1,70
 686 496 686 496 652 496 c 0,71,72
 603 496 603 496 580 469.5 c 128,-1,73
 557 443 557 443 557 405 c 0,74,75
 557 370 557 370 578 345 c 128,-1,76
 599 320 599 320 646 320 c 0,77,78
 684 320 684 320 709 331.5 c 128,-1,79
 734 343 734 343 751.5 360.5 c 128,-1,80
 769 378 769 378 783 394 c 1,81,-1
 806 338 l 1,82,83
 790 318 790 318 767 298 c 128,-1,84
 744 278 744 278 711.5 264.5 c 128,-1,85
 679 251 679 251 633 251 c 0,86,87
 579 251 579 251 544 272.5 c 128,-1,88
 509 294 509 294 492.5 329.5 c 128,-1,89
 476 365 476 365 476 405 c 0,90,91
 476 447 476 447 495 484 c 128,-1,92
 514 521 514 521 554 543.5 c 128,-1,93
 594 566 594 566 656 566 c 0,0,1
439 -213 m 0,94,95
 316 -213 316 -213 234 -194.5 c 128,-1,96
 152 -176 152 -176 111 -134.5 c 128,-1,97
 70 -93 70 -93 70 -25 c 0,98,99
 70 19 70 19 95.5 49.5 c 128,-1,100
 121 80 121 80 164 98.5 c 128,-1,101
 207 117 207 117 261.5 125.5 c 128,-1,102
 316 134 316 134 373 134 c 2,103,-1
 493 134 l 2,104,105
 553 134 553 134 608.5 125.5 c 128,-1,106
 664 117 664 117 707 98.5 c 128,-1,107
 750 80 750 80 775.5 48.5 c 128,-1,108
 801 17 801 17 801 -28 c 0,109,110
 801 -87 801 -87 765 -128.5 c 128,-1,111
 729 -170 729 -170 649.5 -191.5 c 128,-1,112
 570 -213 570 -213 439 -213 c 0,94,95
438 -141 m 0,113,114
 538 -141 538 -141 598.5 -128.5 c 128,-1,115
 659 -116 659 -116 686.5 -90.5 c 128,-1,116
 714 -65 714 -65 714 -28 c 0,117,118
 714 8 714 8 692 30 c 128,-1,119
 670 52 670 52 632 63.5 c 128,-1,120
 594 75 594 75 544 79.5 c 128,-1,121
 494 84 494 84 437 84 c 2,122,-1
 429 84 l 2,123,124
 353 84 353 84 291.5 75 c 128,-1,125
 230 66 230 66 193.5 42 c 128,-1,126
 157 18 157 18 157 -27 c 0,127,128
 157 -67 157 -67 184.5 -92 c 128,-1,129
 212 -117 212 -117 274 -129 c 128,-1,130
 336 -141 336 -141 438 -141 c 0,113,114
EndSplineSet
EndChar

StartChar: lvocalicmlym
Encoding: 3340 3340 16
Width: 1167
GlyphClass: 2
Flags: W
AnchorPoint: "Anchor-3" 445 0 basechar 0
AnchorPoint: "Anchor-0" 583 554 basechar 0
LayerCount: 2
Fore
SplineSet
358 566 m 0,0,1
 442 566 442 566 493 538.5 c 128,-1,2
 544 511 544 511 583 460 c 1,3,-1
 597 394 l 1,4,-1
 608 229 l 1,5,-1
 608 0 l 1,6,-1
 522 0 l 1,7,-1
 522 306 l 2,8,9
 522 365 522 365 511.5 400 c 128,-1,10
 501 435 501 435 478 456 c 0,11,12
 457 475 457 475 429.5 484.5 c 128,-1,13
 402 494 402 494 357 494 c 0,14,15
 285 494 285 494 232.5 460.5 c 128,-1,16
 180 427 180 427 151.5 369.5 c 128,-1,17
 123 312 123 312 123 239 c 2,18,-1
 123 228 l 2,19,20
 123 172 123 172 138 134 c 128,-1,21
 153 96 153 96 179.5 77 c 128,-1,22
 206 58 206 58 242 58 c 0,23,24
 267 58 267 58 286 69.5 c 128,-1,25
 305 81 305 81 316 103 c 128,-1,26
 327 125 327 125 327 157 c 0,27,28
 327 207 327 207 301 232.5 c 128,-1,29
 275 258 275 258 233 258 c 0,30,31
 194 258 194 258 159 238 c 128,-1,32
 124 218 124 218 95 186 c 1,33,-1
 80 248 l 1,34,35
 109 284 109 284 154 306 c 128,-1,36
 199 328 199 328 248 328 c 0,37,38
 296 328 296 328 332.5 309 c 128,-1,39
 369 290 369 290 389.5 253.5 c 128,-1,40
 410 217 410 217 410 165 c 0,41,42
 410 110 410 110 389 70 c 128,-1,43
 368 30 368 30 330 9 c 128,-1,44
 292 -12 292 -12 240 -12 c 256,45,46
 188 -12 188 -12 142.5 14 c 128,-1,47
 97 40 97 40 69.5 96 c 128,-1,48
 42 152 42 152 42 241 c 0,49,50
 42 347 42 347 84.5 419 c 128,-1,51
 127 491 127 491 198.5 528.5 c 128,-1,52
 270 566 270 566 358 566 c 0,0,1
915 -12 m 0,53,54
 851 -12 851 -12 808 17 c 128,-1,55
 765 46 765 46 743.5 93.5 c 128,-1,56
 722 141 722 141 722 196 c 0,57,58
 722 291 722 291 773 347.5 c 128,-1,59
 824 404 824 404 910 404 c 0,60,61
 966 404 966 404 1007.5 375 c 128,-1,62
 1049 346 1049 346 1073 301 c 128,-1,63
 1097 256 1097 256 1099 206 c 1,64,-1
 1074 209 l 1,65,66
 1067 240 1067 240 1047.5 268.5 c 128,-1,67
 1028 297 1028 297 997.5 315.5 c 128,-1,68
 967 334 967 334 927 334 c 0,69,70
 864 334 864 334 835 296.5 c 128,-1,71
 806 259 806 259 806 198 c 0,72,73
 806 157 806 157 817.5 125 c 128,-1,74
 829 93 829 93 853 75.5 c 128,-1,75
 877 58 877 58 916 58 c 0,76,77
 957 58 957 58 985.5 77 c 128,-1,78
 1014 96 1014 96 1029.5 138 c 128,-1,79
 1045 180 1045 180 1045 248 c 0,80,81
 1045 259 1045 259 1043.5 271.5 c 128,-1,82
 1042 284 1042 284 1040 298 c 0,83,84
 1039 306 1039 306 1038 316 c 128,-1,85
 1037 326 1037 326 1035 335 c 0,86,87
 1027 373 1027 373 999.5 409.5 c 128,-1,88
 972 446 972 446 923 470 c 128,-1,89
 874 494 874 494 799 494 c 0,90,91
 756 494 756 494 721.5 484 c 128,-1,92
 687 474 687 474 661 451 c 0,93,94
 645 436 645 436 633 415.5 c 128,-1,95
 621 395 621 395 614.5 365 c 128,-1,96
 608 335 608 335 608 289 c 2,97,-1
 608 204 l 1,98,-1
 556 454 l 1,99,100
 581 486 581 486 613 511.5 c 128,-1,101
 645 537 645 537 690 551.5 c 128,-1,102
 735 566 735 566 799 566 c 0,103,104
 881 566 881 566 942.5 542 c 128,-1,105
 1004 518 1004 518 1045.5 474.5 c 128,-1,106
 1087 431 1087 431 1107.5 372 c 128,-1,107
 1128 313 1128 313 1128 242 c 0,108,109
 1128 153 1128 153 1100 96.5 c 128,-1,110
 1072 40 1072 40 1024 14 c 128,-1,111
 976 -12 976 -12 915 -12 c 0,53,54
EndSplineSet
EndChar

StartChar: emlym
Encoding: 3342 3342 17
Width: 1273
GlyphClass: 2
Flags: W
AnchorPoint: "Anchor-3" 480 0 basechar 0
AnchorPoint: "Anchor-0" 636 554 basechar 0
LayerCount: 2
Fore
SplineSet
229 346 m 0,0,1
 297 346 297 346 340.5 320.5 c 128,-1,2
 384 295 384 295 405.5 255.5 c 128,-1,3
 427 216 427 216 427 173 c 0,4,5
 427 133 427 133 414 102 c 128,-1,6
 401 71 401 71 382 57 c 1,7,-1
 357 70 l 1,8,-1
 864 70 l 1,9,-1
 864 0 l 1,10,-1
 328 0 l 1,11,-1
 299 52 l 1,12,13
 319 72 319 72 331 96.5 c 128,-1,14
 343 121 343 121 343 158 c 0,15,16
 343 212 343 212 314 244 c 128,-1,17
 285 276 285 276 229 276 c 0,18,19
 194 276 194 276 168.5 261 c 128,-1,20
 143 246 143 246 129.5 220.5 c 128,-1,21
 116 195 116 195 116 164 c 0,22,23
 116 130 116 130 130 101.5 c 128,-1,24
 144 73 144 73 175 51 c 1,25,-1
 129 -7 l 1,26,27
 86 23 86 23 59 66 c 128,-1,28
 32 109 32 109 32 166 c 0,29,30
 32 219 32 219 56.5 259.5 c 128,-1,31
 81 300 81 300 125.5 323 c 128,-1,32
 170 346 170 346 229 346 c 0,0,1
903 566 m 0,33,34
 980 566 980 566 1040 541 c 128,-1,35
 1100 516 1100 516 1142.5 466.5 c 128,-1,36
 1185 417 1185 417 1207 344.5 c 128,-1,37
 1229 272 1229 272 1229 176 c 0,38,39
 1229 109 1229 109 1213.5 37 c 128,-1,40
 1198 -35 1198 -35 1164.5 -103.5 c 128,-1,41
 1131 -172 1131 -172 1077 -228 c 1,42,-1
 1014 -178 l 1,43,44
 1059 -130 1059 -130 1087 -73 c 128,-1,45
 1115 -16 1115 -16 1128 47.5 c 128,-1,46
 1141 111 1141 111 1141 178 c 0,47,48
 1141 238 1141 238 1129 294.5 c 128,-1,49
 1117 351 1117 351 1089 396 c 128,-1,50
 1061 441 1061 441 1015 467.5 c 128,-1,51
 969 494 969 494 900 494 c 0,52,53
 819 494 819 494 765.5 450 c 128,-1,54
 712 406 712 406 685.5 325.5 c 128,-1,55
 659 245 659 245 659 137 c 0,56,57
 659 114 659 114 660 92.5 c 128,-1,58
 661 71 661 71 663 51 c 0,59,60
 663 46 663 46 663.5 41.5 c 128,-1,61
 664 37 664 37 665 32 c 0,62,63
 670 -37 670 -37 689.5 -79 c 128,-1,64
 709 -121 709 -121 736.5 -140 c 128,-1,65
 764 -159 764 -159 793 -159 c 0,66,67
 823 -159 823 -159 836 -139 c 0,68,69
 842 -130 842 -130 845 -115 c 128,-1,70
 848 -100 848 -100 848 -75 c 2,71,-1
 848 406 l 1,72,-1
 935 406 l 1,73,-1
 935 -56 l 2,74,75
 935 -105 935 -105 926.5 -135.5 c 128,-1,76
 918 -166 918 -166 900 -187 c 0,77,78
 883 -206 883 -206 857.5 -217 c 128,-1,79
 832 -228 832 -228 796 -228 c 0,80,81
 731 -228 731 -228 680 -187.5 c 128,-1,82
 629 -147 629 -147 600 -64 c 128,-1,83
 571 19 571 19 571 144 c 0,84,85
 571 239 571 239 592.5 317 c 128,-1,86
 614 395 614 395 656.5 450.5 c 128,-1,87
 699 506 699 506 760.5 536 c 128,-1,88
 822 566 822 566 903 566 c 0,33,34
EndSplineSet
EndChar

StartChar: eemlym
Encoding: 3343 3343 18
Width: 1272
GlyphClass: 2
Flags: W
AnchorPoint: "Anchor-3" 485 0 basechar 0
AnchorPoint: "Anchor-0" 636 554 basechar 0
LayerCount: 2
Fore
SplineSet
229 346 m 0,0,1
 297 346 297 346 340.5 320.5 c 128,-1,2
 384 295 384 295 405.5 255.5 c 128,-1,3
 427 216 427 216 427 173 c 0,4,5
 427 133 427 133 414 102 c 128,-1,6
 401 71 401 71 382 57 c 1,7,-1
 357 70 l 1,8,-1
 864 70 l 1,9,-1
 864 0 l 1,10,-1
 328 0 l 1,11,-1
 299 52 l 1,12,13
 319 72 319 72 331 96.5 c 128,-1,14
 343 121 343 121 343 158 c 0,15,16
 343 212 343 212 314 244 c 128,-1,17
 285 276 285 276 229 276 c 0,18,19
 194 276 194 276 168.5 260.5 c 128,-1,20
 143 245 143 245 129.5 220 c 128,-1,21
 116 195 116 195 116 164 c 0,22,23
 116 130 116 130 130 102 c 128,-1,24
 144 74 144 74 175 51 c 1,25,-1
 129 -7 l 1,26,27
 86 23 86 23 59 66 c 128,-1,28
 32 109 32 109 32 166 c 0,29,30
 32 219 32 219 56.5 259.5 c 128,-1,31
 81 300 81 300 125.5 323 c 128,-1,32
 170 346 170 346 229 346 c 0,0,1
945 566 m 0,33,34
 1022 566 1022 566 1076.5 546.5 c 128,-1,35
 1131 527 1131 527 1164.5 493.5 c 128,-1,36
 1198 460 1198 460 1213.5 418.5 c 128,-1,37
 1229 377 1229 377 1229 332 c 0,38,39
 1229 285 1229 285 1212.5 248.5 c 128,-1,40
 1196 212 1196 212 1168 185 c 128,-1,41
 1140 158 1140 158 1104 141 c 1,42,-1
 1107 146 l 1,43,44
 1167 125 1167 125 1203 81 c 128,-1,45
 1239 37 1239 37 1239 -36 c 0,46,47
 1239 -101 1239 -101 1214 -143.5 c 128,-1,48
 1189 -186 1189 -186 1145 -207 c 128,-1,49
 1101 -228 1101 -228 1042 -228 c 0,50,51
 1027 -228 1027 -228 1003 -226 c 128,-1,52
 979 -224 979 -224 965 -220 c 1,53,-1
 982 -151 l 1,54,55
 995 -154 995 -154 1011 -155.5 c 128,-1,56
 1027 -157 1027 -157 1037 -157 c 0,57,58
 1074 -157 1074 -157 1099.5 -142.5 c 128,-1,59
 1125 -128 1125 -128 1138 -100.5 c 128,-1,60
 1151 -73 1151 -73 1151 -34 c 0,61,62
 1151 25 1151 25 1114.5 64.5 c 128,-1,63
 1078 104 1078 104 1002 104 c 1,64,-1
 1002 173 l 1,65,66
 1047 183 1047 183 1078 202 c 128,-1,67
 1109 221 1109 221 1125 253 c 128,-1,68
 1141 285 1141 285 1141 332 c 0,69,70
 1141 373 1141 373 1122 410 c 128,-1,71
 1103 447 1103 447 1060 470.5 c 128,-1,72
 1017 494 1017 494 944 494 c 0,73,74
 842 494 842 494 779 448.5 c 128,-1,75
 716 403 716 403 687.5 322.5 c 128,-1,76
 659 242 659 242 659 137 c 0,77,78
 659 115 659 115 660 92.5 c 128,-1,79
 661 70 661 70 663 51 c 0,80,81
 663 46 663 46 663.5 41.5 c 128,-1,82
 664 37 664 37 665 32 c 0,83,84
 670 -37 670 -37 689.5 -79 c 128,-1,85
 709 -121 709 -121 736.5 -140 c 128,-1,86
 764 -159 764 -159 793 -159 c 0,87,88
 823 -159 823 -159 836 -139 c 0,89,90
 842 -130 842 -130 845 -115 c 128,-1,91
 848 -100 848 -100 848 -75 c 2,92,-1
 848 406 l 1,93,-1
 935 406 l 1,94,-1
 935 -56 l 2,95,96
 935 -105 935 -105 926.5 -135.5 c 128,-1,97
 918 -166 918 -166 900 -187 c 0,98,99
 883 -206 883 -206 857.5 -217 c 128,-1,100
 832 -228 832 -228 796 -228 c 0,101,102
 731 -228 731 -228 680 -187.5 c 128,-1,103
 629 -147 629 -147 600 -64 c 128,-1,104
 571 19 571 19 571 144 c 0,105,106
 571 237 571 237 594 314 c 128,-1,107
 617 391 617 391 663.5 447.5 c 128,-1,108
 710 504 710 504 780.5 535 c 128,-1,109
 851 566 851 566 945 566 c 0,33,34
EndSplineSet
EndChar

StartChar: omlym
Encoding: 3346 3346 20
Width: 757
GlyphClass: 2
Flags: W
AnchorPoint: "Anchor-3" 295 0 basechar 0
AnchorPoint: "Anchor-0" 378 554 basechar 0
LayerCount: 2
Fore
SplineSet
448 566 m 256,0,1
 544 566 544 566 600.5 545 c 128,-1,2
 657 524 657 524 682 487.5 c 128,-1,3
 707 451 707 451 707 404 c 0,4,5
 707 376 707 376 696.5 351.5 c 128,-1,6
 686 327 686 327 663.5 307.5 c 128,-1,7
 641 288 641 288 605 274 c 1,8,-1
 601 280 l 1,9,10
 658 264 658 264 688 227 c 128,-1,11
 718 190 718 190 718 140 c 0,12,13
 718 69 718 69 670.5 29 c 128,-1,14
 623 -11 623 -11 539 -11 c 0,15,16
 511 -11 511 -11 485.5 -7.5 c 128,-1,17
 460 -4 460 -4 441 0 c 1,18,-1
 459 69 l 1,19,20
 477 65 477 65 493.5 62 c 128,-1,21
 510 59 510 59 529 59 c 0,22,23
 579 59 579 59 605 78.5 c 128,-1,24
 631 98 631 98 631 144 c 0,25,26
 631 163 631 163 624 180 c 128,-1,27
 617 197 617 197 601 210 c 0,28,29
 585 224 585 224 561.5 232 c 128,-1,30
 538 240 538 240 490 240 c 2,31,-1
 468 240 l 1,32,-1
 468 310 l 1,33,-1
 492 310 l 2,34,35
 523 310 523 310 551.5 317.5 c 128,-1,36
 580 325 580 325 597 341 c 0,37,38
 609 352 609 352 614.5 366 c 128,-1,39
 620 380 620 380 620 399 c 0,40,41
 620 441 620 441 580 467.5 c 128,-1,42
 540 494 540 494 445 494 c 0,43,44
 370 494 370 494 309.5 474 c 128,-1,45
 249 454 249 454 207 419 c 128,-1,46
 165 384 165 384 142.5 336.5 c 128,-1,47
 120 289 120 289 120 233 c 2,48,-1
 120 225 l 2,49,50
 120 171 120 171 135 133.5 c 128,-1,51
 150 96 150 96 176.5 77 c 128,-1,52
 203 58 203 58 239 58 c 0,53,54
 265 58 265 58 284 69.5 c 128,-1,55
 303 81 303 81 314 103.5 c 128,-1,56
 325 126 325 126 325 157 c 0,57,58
 325 206 325 206 298.5 232 c 128,-1,59
 272 258 272 258 231 258 c 0,60,61
 197 258 197 258 166 242.5 c 128,-1,62
 135 227 135 227 109 201 c 1,63,-1
 113 283 l 1,64,65
 141 303 141 303 175.5 315.5 c 128,-1,66
 210 328 210 328 245 328 c 0,67,68
 294 328 294 328 330.5 309 c 128,-1,69
 367 290 367 290 387.5 253.5 c 128,-1,70
 408 217 408 217 408 165 c 0,71,72
 408 110 408 110 387 70 c 128,-1,73
 366 30 366 30 327.5 9 c 128,-1,74
 289 -12 289 -12 237 -12 c 256,75,76
 185 -12 185 -12 139.5 14 c 128,-1,77
 94 40 94 40 66.5 93.5 c 128,-1,78
 39 147 39 147 39 229 c 0,79,80
 39 304 39 304 66.5 366 c 128,-1,81
 94 428 94 428 147 473 c 128,-1,82
 200 518 200 518 276 542 c 128,-1,83
 352 566 352 566 448 566 c 256,0,1
EndSplineSet
EndChar

StartChar: kamlym
Encoding: 3349 3349 23
Width: 1038
GlyphClass: 2
Flags: W
AnchorPoint: "Anchor-3" 397 0 basechar 0
AnchorPoint: "Anchor-0" 519 554 basechar 0
LayerCount: 2
Fore
SplineSet
216 -12 m 0,0,1
 126 -12 126 -12 79 32 c 128,-1,2
 32 76 32 76 32 152 c 0,3,4
 32 199 32 199 53 233.5 c 128,-1,5
 74 268 74 268 109 288 c 0,6,7
 133 302 133 302 162.5 311 c 128,-1,8
 192 320 192 320 233.5 324 c 128,-1,9
 275 328 275 328 333 328 c 2,10,-1
 716 328 l 2,11,12
 802 328 802 328 853.5 318 c 128,-1,13
 905 308 905 308 942 282 c 0,14,15
 971 262 971 262 988.5 230.5 c 128,-1,16
 1006 199 1006 199 1006 152 c 0,17,18
 1006 76 1006 76 961 32 c 128,-1,19
 916 -12 916 -12 832 -12 c 0,20,21
 807 -12 807 -12 780.5 -9.5 c 128,-1,22
 754 -7 754 -7 731 0 c 1,23,-1
 750 67 l 1,24,25
 764 63 764 63 783.5 60.5 c 128,-1,26
 803 58 803 58 819 58 c 0,27,28
 870 58 870 58 895 81.5 c 128,-1,29
 920 105 920 105 920 151 c 0,30,31
 920 180 920 180 909 198.5 c 128,-1,32
 898 217 898 217 880 229 c 0,33,34
 852 247 852 247 811.5 252.5 c 128,-1,35
 771 258 771 258 708 258 c 2,36,-1
 331 258 l 2,37,38
 260 258 260 258 222.5 252.5 c 128,-1,39
 185 247 185 247 157 229 c 0,40,41
 139 218 139 218 128.5 199 c 128,-1,42
 118 180 118 180 118 154 c 0,43,44
 118 121 118 121 130.5 99.5 c 128,-1,45
 143 78 143 78 166 68 c 128,-1,46
 189 58 189 58 219 58 c 0,47,48
 251 58 251 58 283.5 68.5 c 128,-1,49
 316 79 316 79 352 106 c 1,50,-1
 402 52 l 1,51,52
 372 30 372 30 343 16 c 128,-1,53
 314 2 314 2 283.5 -5 c 128,-1,54
 253 -12 253 -12 216 -12 c 0,0,1
523 566 m 0,55,56
 603 566 603 566 654.5 528.5 c 128,-1,57
 706 491 706 491 731 426.5 c 128,-1,58
 756 362 756 362 756 279 c 0,59,60
 756 185 756 185 728 120 c 128,-1,61
 700 55 700 55 648 21.5 c 128,-1,62
 596 -12 596 -12 524 -12 c 0,63,64
 470 -12 470 -12 426.5 6.5 c 128,-1,65
 383 25 383 25 352 62 c 256,66,67
 321 99 321 99 304.5 153.5 c 128,-1,68
 288 208 288 208 288 279 c 0,69,70
 288 413 288 413 351 489.5 c 128,-1,71
 414 566 414 566 523 566 c 0,55,56
523 496 m 0,72,73
 447 496 447 496 410.5 442 c 128,-1,74
 374 388 374 388 374 278 c 0,75,76
 374 204 374 204 390.5 155 c 128,-1,77
 407 106 407 106 440 82 c 128,-1,78
 473 58 473 58 521 58 c 0,79,80
 570 58 570 58 603 81.5 c 128,-1,81
 636 105 636 105 653 154 c 128,-1,82
 670 203 670 203 670 278 c 256,83,84
 670 353 670 353 653.5 401.5 c 128,-1,85
 637 450 637 450 604 473 c 128,-1,86
 571 496 571 496 523 496 c 0,72,73
EndSplineSet
EndChar

StartChar: khamlym
Encoding: 3350 3350 24
Width: 1000
GlyphClass: 2
Flags: W
AnchorPoint: "Anchor-3" 382 0 basechar 0
AnchorPoint: "Anchor-0" 500 554 basechar 0
LayerCount: 2
Fore
SplineSet
374 566 m 0,0,1
 452 566 452 566 509 544 c 128,-1,2
 566 522 566 522 603 483 c 128,-1,3
 640 444 640 444 658 392 c 128,-1,4
 676 340 676 340 676 281 c 0,5,6
 676 232 676 232 665 193 c 128,-1,7
 654 154 654 154 635.5 122.5 c 128,-1,8
 617 91 617 91 592 64 c 1,9,-1
 585 0 l 1,10,-1
 512 0 l 1,11,-1
 476 54 l 1,12,13
 505 80 505 80 530.5 110 c 128,-1,14
 556 140 556 140 571.5 179 c 128,-1,15
 587 218 587 218 587 271 c 0,16,17
 587 339 587 339 561 389 c 128,-1,18
 535 439 535 439 486.5 466.5 c 128,-1,19
 438 494 438 494 370 494 c 0,20,21
 298 494 298 494 241.5 459.5 c 128,-1,22
 185 425 185 425 152.5 367 c 128,-1,23
 120 309 120 309 120 237 c 2,24,-1
 120 225 l 2,25,26
 120 171 120 171 135 133.5 c 128,-1,27
 150 96 150 96 176.5 77 c 128,-1,28
 203 58 203 58 239 58 c 0,29,30
 265 58 265 58 284 69.5 c 128,-1,31
 303 81 303 81 314 103.5 c 128,-1,32
 325 126 325 126 325 158 c 0,33,34
 325 206 325 206 298.5 232 c 128,-1,35
 272 258 272 258 231 258 c 0,36,37
 197 258 197 258 166 242.5 c 128,-1,38
 135 227 135 227 109 201 c 1,39,-1
 113 283 l 1,40,41
 141 303 141 303 175.5 315.5 c 128,-1,42
 210 328 210 328 245 328 c 0,43,44
 294 328 294 328 330.5 309 c 128,-1,45
 367 290 367 290 387.5 253.5 c 128,-1,46
 408 217 408 217 408 165 c 0,47,48
 408 110 408 110 387 70 c 128,-1,49
 366 30 366 30 327.5 9 c 128,-1,50
 289 -12 289 -12 237 -12 c 256,51,52
 185 -12 185 -12 139.5 14 c 128,-1,53
 94 40 94 40 66.5 94.5 c 128,-1,54
 39 149 39 149 39 232 c 0,55,56
 39 336 39 336 83.5 410.5 c 128,-1,57
 128 485 128 485 204 525.5 c 128,-1,58
 280 566 280 566 374 566 c 0,0,1
929 554 m 1,59,-1
 929 0 l 1,60,-1
 546 0 l 1,61,-1
 558 70 l 1,62,-1
 843 70 l 1,63,-1
 843 554 l 1,64,-1
 929 554 l 1,59,-1
EndSplineSet
EndChar

StartChar: gamlym
Encoding: 3351 3351 25
Width: 897
GlyphClass: 2
Flags: W
AnchorPoint: "Anchor-3" 341 0 basechar 0
AnchorPoint: "Anchor-0" 448 554 basechar 0
LayerCount: 2
Fore
SplineSet
622 566 m 0,0,1
 694 566 694 566 747 532 c 128,-1,2
 800 498 800 498 829 437 c 128,-1,3
 858 376 858 376 858 293 c 0,4,5
 858 227 858 227 840.5 173.5 c 128,-1,6
 823 120 823 120 788.5 75.5 c 128,-1,7
 754 31 754 31 703 -8 c 1,8,-1
 649 53 l 1,9,10
 685 78 685 78 712 111 c 128,-1,11
 739 144 739 144 754.5 188.5 c 128,-1,12
 770 233 770 233 770 290 c 0,13,14
 770 351 770 351 751.5 397 c 128,-1,15
 733 443 733 443 699.5 468.5 c 128,-1,16
 666 494 666 494 620 494 c 0,17,18
 581 494 581 494 558 480.5 c 128,-1,19
 535 467 535 467 521 447 c 0,20,21
 505 422 505 422 498.5 380 c 128,-1,22
 492 338 492 338 492 252 c 2,23,-1
 492 243 l 2,24,25
 492 196 492 196 486.5 161 c 128,-1,26
 481 126 481 126 469.5 99.5 c 128,-1,27
 458 73 458 73 439 51 c 0,28,29
 413 21 413 21 374 4.5 c 128,-1,30
 335 -12 335 -12 278 -12 c 0,31,32
 205 -12 205 -12 151 20.5 c 128,-1,33
 97 53 97 53 68 115 c 128,-1,34
 39 177 39 177 39 263 c 0,35,36
 39 331 39 331 56.5 384.5 c 128,-1,37
 74 438 74 438 109 482.5 c 128,-1,38
 144 527 144 527 194 566 c 1,39,-1
 248 504 l 1,40,41
 213 480 213 480 185.5 446 c 128,-1,42
 158 412 158 412 142.5 367 c 128,-1,43
 127 322 127 322 127 265 c 0,44,45
 127 203 127 203 145 157 c 128,-1,46
 163 111 163 111 196.5 85.5 c 128,-1,47
 230 60 230 60 274 60 c 256,48,49
 318 60 318 60 340.5 72.5 c 128,-1,50
 363 85 363 85 377 106 c 0,51,52
 394 132 394 132 399 176.5 c 128,-1,53
 404 221 404 221 404 300 c 2,54,-1
 404 313 l 2,55,56
 404 381 404 381 416.5 425 c 128,-1,57
 429 469 429 469 454 499 c 0,58,59
 483 532 483 532 522 549 c 128,-1,60
 561 566 561 566 622 566 c 0,0,1
EndSplineSet
EndChar

StartChar: ghamlym
Encoding: 3352 3352 26
Width: 1325
GlyphClass: 2
Flags: W
AnchorPoint: "Anchor-3" 504 0 basechar 0
AnchorPoint: "Anchor-0" 662 554 basechar 0
LayerCount: 2
Fore
SplineSet
229 566 m 0,0,1
 297 566 297 566 340.5 540.5 c 128,-1,2
 384 515 384 515 405.5 475.5 c 128,-1,3
 427 436 427 436 427 392 c 0,4,5
 427 354 427 354 414 323.5 c 128,-1,6
 401 293 401 293 382 279 c 1,7,-1
 357 292 l 1,8,-1
 556 292 l 1,9,-1
 573 222 l 1,10,-1
 328 222 l 1,11,-1
 299 274 l 1,12,13
 319 293 319 293 331 318 c 128,-1,14
 343 343 343 343 343 379 c 0,15,16
 343 433 343 433 314 464.5 c 128,-1,17
 285 496 285 496 229 496 c 0,18,19
 193 496 193 496 167.5 481 c 128,-1,20
 142 466 142 466 129 440.5 c 128,-1,21
 116 415 116 415 116 385 c 0,22,23
 116 351 116 351 130 323 c 128,-1,24
 144 295 144 295 175 273 c 1,25,-1
 129 215 l 1,26,27
 86 245 86 245 59 288 c 128,-1,28
 32 331 32 331 32 387 c 0,29,30
 32 440 32 440 56.5 480 c 128,-1,31
 81 520 81 520 125.5 543 c 128,-1,32
 170 566 170 566 229 566 c 0,0,1
1254 554 m 1,33,-1
 1254 0 l 1,34,-1
 529 0 l 1,35,-1
 529 313 l 2,36,37
 529 387 529 387 545.5 431 c 128,-1,38
 562 475 562 475 592 504 c 0,39,40
 624 535 624 535 668.5 550.5 c 128,-1,41
 713 566 713 566 771 566 c 0,42,43
 831 566 831 566 875.5 551 c 128,-1,44
 920 536 920 536 949 507 c 0,45,46
 981 476 981 476 995.5 429.5 c 128,-1,47
 1010 383 1010 383 1010 322 c 2,48,-1
 1010 222 l 1,49,-1
 615 222 l 1,50,-1
 615 70 l 1,51,-1
 1168 70 l 1,52,-1
 1168 554 l 1,53,-1
 1254 554 l 1,33,-1
770 496 m 0,54,55
 689 496 689 496 652 454.5 c 128,-1,56
 615 413 615 413 615 321 c 2,57,-1
 615 292 l 1,58,-1
 924 292 l 1,59,-1
 924 320 l 2,60,61
 924 415 924 415 887 455.5 c 128,-1,62
 850 496 850 496 770 496 c 0,54,55
EndSplineSet
EndChar

StartChar: ngamlym
Encoding: 3353 3353 27
Width: 1065
GlyphClass: 2
Flags: W
AnchorPoint: "Anchor-3" 404 0 basechar 0
AnchorPoint: "Anchor-0" 532 554 basechar 0
LayerCount: 2
Fore
SplineSet
358 566 m 0,0,1
 442 566 442 566 493 538.5 c 128,-1,2
 544 511 544 511 583 460 c 1,3,-1
 595 386 l 1,4,-1
 608 229 l 1,5,-1
 608 0 l 1,6,-1
 522 0 l 1,7,-1
 522 306 l 2,8,9
 522 365 522 365 511.5 400 c 128,-1,10
 501 435 501 435 478 456 c 0,11,12
 457 475 457 475 429.5 484.5 c 128,-1,13
 402 494 402 494 357 494 c 0,14,15
 285 494 285 494 232.5 460.5 c 128,-1,16
 180 427 180 427 151.5 369.5 c 128,-1,17
 123 312 123 312 123 239 c 2,18,-1
 123 228 l 2,19,20
 123 172 123 172 138 134 c 128,-1,21
 153 96 153 96 179.5 77 c 128,-1,22
 206 58 206 58 242 58 c 0,23,24
 267 58 267 58 286 69.5 c 128,-1,25
 305 81 305 81 316 103 c 128,-1,26
 327 125 327 125 327 157 c 0,27,28
 327 207 327 207 301 232.5 c 128,-1,29
 275 258 275 258 233 258 c 0,30,31
 194 258 194 258 159 238 c 128,-1,32
 124 218 124 218 95 186 c 1,33,-1
 80 248 l 1,34,35
 109 284 109 284 154 306 c 128,-1,36
 199 328 199 328 248 328 c 0,37,38
 296 328 296 328 332.5 309 c 128,-1,39
 369 290 369 290 389.5 253.5 c 128,-1,40
 410 217 410 217 410 165 c 0,41,42
 410 110 410 110 389 70 c 128,-1,43
 368 30 368 30 330 9 c 128,-1,44
 292 -12 292 -12 240 -12 c 256,45,46
 188 -12 188 -12 142.5 14 c 128,-1,47
 97 40 97 40 69.5 96 c 128,-1,48
 42 152 42 152 42 241 c 0,49,50
 42 347 42 347 84.5 419 c 128,-1,51
 127 491 127 491 198.5 528.5 c 128,-1,52
 270 566 270 566 358 566 c 0,0,1
803 566 m 0,53,54
 872 566 872 566 919 545.5 c 128,-1,55
 966 525 966 525 990.5 490 c 128,-1,56
 1015 455 1015 455 1015 411 c 0,57,58
 1015 379 1015 379 1004.5 353.5 c 128,-1,59
 994 328 994 328 971.5 308.5 c 128,-1,60
 949 289 949 289 913 274 c 1,61,-1
 909 280 l 1,62,63
 967 264 967 264 996.5 227 c 128,-1,64
 1026 190 1026 190 1026 140 c 0,65,66
 1026 70 1026 70 978.5 29.5 c 128,-1,67
 931 -11 931 -11 847 -11 c 0,68,69
 816 -11 816 -11 792.5 -7.5 c 128,-1,70
 769 -4 769 -4 749 0 c 1,71,-1
 767 69 l 1,72,73
 787 65 787 65 802.5 62 c 128,-1,74
 818 59 818 59 837 59 c 0,75,76
 887 59 887 59 913 78.5 c 128,-1,77
 939 98 939 98 939 144 c 0,78,79
 939 163 939 163 932 180 c 128,-1,80
 925 197 925 197 909 210 c 0,81,82
 893 224 893 224 868.5 232 c 128,-1,83
 844 240 844 240 791 240 c 2,84,-1
 766 240 l 1,85,-1
 766 310 l 1,86,-1
 791 310 l 2,87,88
 829 310 829 310 858 317 c 128,-1,89
 887 324 887 324 904 341 c 0,90,91
 916 352 916 352 922 367.5 c 128,-1,92
 928 383 928 383 928 403 c 0,93,94
 928 448 928 448 894 471 c 128,-1,95
 860 494 860 494 803 494 c 0,96,97
 755 494 755 494 719.5 479.5 c 128,-1,98
 684 465 684 465 661 440 c 0,99,100
 645 423 645 423 633 399.5 c 128,-1,101
 621 376 621 376 614.5 339 c 128,-1,102
 608 302 608 302 608 243 c 2,103,-1
 608 80 l 1,104,-1
 532 80 l 1,105,-1
 532 243 l 1,106,-1
 564 438 l 1,107,108
 583 475 583 475 617 504 c 128,-1,109
 651 533 651 533 698.5 549.5 c 128,-1,110
 746 566 746 566 803 566 c 0,53,54
EndSplineSet
EndChar

StartChar: camlym
Encoding: 3354 3354 28
Width: 933
GlyphClass: 2
Flags: W
AnchorPoint: "Anchor-3" 355 0 basechar 0
AnchorPoint: "Anchor-0" 466 554 basechar 0
LayerCount: 2
Fore
SplineSet
862 554 m 1,0,-1
 862 0 l 1,1,-1
 17 0 l 1,2,-1
 17 70 l 1,3,-1
 448 70 l 1,4,-1
 394 58 l 1,5,6
 414 72 414 72 434.5 101.5 c 128,-1,7
 455 131 455 131 455 179 c 0,8,9
 455 231 455 231 428.5 263 c 128,-1,10
 402 295 402 295 351 295 c 256,11,12
 300 295 300 295 273.5 265 c 128,-1,13
 247 235 247 235 247 185 c 0,14,15
 247 172 247 172 248 162.5 c 128,-1,16
 249 153 249 153 250 146 c 1,17,-1
 167 135 l 1,18,19
 165 145 165 145 163 161.5 c 128,-1,20
 161 178 161 178 161 194 c 0,21,22
 161 271 161 271 213.5 318 c 128,-1,23
 266 365 266 365 354 365 c 0,24,25
 404 365 404 365 439 350 c 128,-1,26
 474 335 474 335 496 309 c 128,-1,27
 518 283 518 283 528.5 251 c 128,-1,28
 539 219 539 219 539 185 c 0,29,30
 539 156 539 156 531.5 131.5 c 128,-1,31
 524 107 524 107 511.5 87.5 c 128,-1,32
 499 68 499 68 485 54 c 1,33,-1
 460 70 l 1,34,-1
 776 70 l 1,35,-1
 776 554 l 1,36,-1
 862 554 l 1,0,-1
EndSplineSet
EndChar

StartChar: chamlym
Encoding: 3355 3355 29
Width: 1349
GlyphClass: 2
Flags: W
AnchorPoint: "Anchor-3" 509 0 basechar 0
AnchorPoint: "Anchor-0" 674 554 basechar 0
LayerCount: 2
Fore
SplineSet
354 365 m 0,0,1
 404 365 404 365 439 350 c 128,-1,2
 474 335 474 335 496 309 c 128,-1,3
 518 283 518 283 528.5 251 c 128,-1,4
 539 219 539 219 539 185 c 0,5,6
 539 156 539 156 531.5 131.5 c 128,-1,7
 524 107 524 107 511.5 87.5 c 128,-1,8
 499 68 499 68 485 54 c 1,9,-1
 460 70 l 1,10,-1
 775 70 l 1,11,-1
 790 0 l 1,12,-1
 17 0 l 1,13,-1
 17 70 l 1,14,-1
 448 70 l 1,15,-1
 394 58 l 1,16,17
 414 72 414 72 434.5 101.5 c 128,-1,18
 455 131 455 131 455 179 c 0,19,20
 455 231 455 231 428.5 263 c 128,-1,21
 402 295 402 295 351 295 c 256,22,23
 300 295 300 295 273.5 265 c 128,-1,24
 247 235 247 235 247 185 c 0,25,26
 247 172 247 172 248 162.5 c 128,-1,27
 249 153 249 153 250 146 c 1,28,-1
 167 135 l 1,29,30
 165 145 165 145 163 161.5 c 128,-1,31
 161 178 161 178 161 194 c 0,32,33
 161 271 161 271 213.5 318 c 128,-1,34
 266 365 266 365 354 365 c 0,0,1
977 566 m 0,35,36
 1060 566 1060 566 1122.5 542 c 128,-1,37
 1185 518 1185 518 1226.5 474 c 128,-1,38
 1268 430 1268 430 1289 371 c 128,-1,39
 1310 312 1310 312 1310 242 c 0,40,41
 1310 153 1310 153 1282 96.5 c 128,-1,42
 1254 40 1254 40 1206 14 c 128,-1,43
 1158 -12 1158 -12 1098 -12 c 0,44,45
 1033 -12 1033 -12 990 17 c 128,-1,46
 947 46 947 46 925.5 93.5 c 128,-1,47
 904 141 904 141 904 196 c 0,48,49
 904 291 904 291 955 347.5 c 128,-1,50
 1006 404 1006 404 1091 404 c 0,51,52
 1147 404 1147 404 1189 375 c 128,-1,53
 1231 346 1231 346 1255 301 c 128,-1,54
 1279 256 1279 256 1281 206 c 1,55,-1
 1256 209 l 1,56,57
 1249 240 1249 240 1229 268.5 c 128,-1,58
 1209 297 1209 297 1178.5 315.5 c 128,-1,59
 1148 334 1148 334 1108 334 c 0,60,61
 1046 334 1046 334 1017 296.5 c 128,-1,62
 988 259 988 259 988 198 c 0,63,64
 988 157 988 157 999.5 125 c 128,-1,65
 1011 93 1011 93 1035 75.5 c 128,-1,66
 1059 58 1059 58 1098 58 c 0,67,68
 1139 58 1139 58 1167.5 77 c 128,-1,69
 1196 96 1196 96 1211.5 138 c 128,-1,70
 1227 180 1227 180 1227 248 c 0,71,72
 1227 250 1227 250 1225.5 270 c 128,-1,73
 1224 290 1224 290 1220 310 c 0,74,75
 1219 315 1219 315 1219 323 c 128,-1,76
 1219 331 1219 331 1217 335 c 0,77,78
 1208 378 1208 378 1178 414 c 128,-1,79
 1148 450 1148 450 1098 472 c 128,-1,80
 1048 494 1048 494 977 494 c 0,81,82
 905 494 905 494 852 468 c 128,-1,83
 799 442 799 442 770 393 c 128,-1,84
 741 344 741 344 741 273 c 0,85,86
 741 217 741 217 756.5 178 c 128,-1,87
 772 139 772 139 797.5 109.5 c 128,-1,88
 823 80 823 80 852 54 c 1,89,-1
 816 0 l 1,90,-1
 774 0 l 1,91,-1
 758 43 l 1,92,93
 732 67 732 67 707.5 101.5 c 128,-1,94
 683 136 683 136 667.5 180.5 c 128,-1,95
 652 225 652 225 652 277 c 0,96,97
 652 333 652 333 671 385 c 128,-1,98
 690 437 690 437 729.5 478 c 128,-1,99
 769 519 769 519 830.5 542.5 c 128,-1,100
 892 566 892 566 977 566 c 0,35,36
EndSplineSet
EndChar

StartChar: jamlym
Encoding: 3356 3356 30
Width: 939
GlyphClass: 2
Flags: W
AnchorPoint: "Anchor-3" 356 0 basechar 0
AnchorPoint: "Anchor-0" 469 554 basechar 0
LayerCount: 2
Fore
SplineSet
297 566 m 0,0,1
 352 566 352 566 394.5 555 c 128,-1,2
 437 544 437 544 470 520.5 c 128,-1,3
 503 497 503 497 531 458 c 1,4,-1
 501 470 l 1,5,6
 531 512 531 512 572.5 539 c 128,-1,7
 614 566 614 566 685 566 c 0,8,9
 759 566 759 566 806.5 538 c 128,-1,10
 854 510 854 510 876.5 467 c 128,-1,11
 899 424 899 424 899 377 c 0,12,13
 899 337 899 337 888 307 c 128,-1,14
 877 277 877 277 855.5 255 c 128,-1,15
 834 233 834 233 801 216 c 1,16,-1
 636 181 l 1,17,-1
 574 173 l 2,18,19
 546 169 546 169 507 167.5 c 128,-1,20
 468 166 468 166 439 166 c 2,21,-1
 242 166 l 2,22,23
 202 166 202 166 181.5 163.5 c 128,-1,24
 161 161 161 161 149 156 c 0,25,26
 133 149 133 149 127 138.5 c 128,-1,27
 121 128 121 128 121 114 c 0,28,29
 121 89 121 89 134 76.5 c 128,-1,30
 147 64 147 64 165.5 60 c 128,-1,31
 184 56 184 56 199 56 c 0,32,33
 245 56 245 56 288 66 c 128,-1,34
 331 76 331 76 370 91 c 128,-1,35
 409 106 409 106 444 121 c 0,36,37
 467 131 467 131 488.5 140.5 c 128,-1,38
 510 150 510 150 532 158.5 c 128,-1,39
 554 167 554 167 576 174.5 c 128,-1,40
 598 182 598 182 621 188 c 0,41,42
 644 196 644 196 658.5 203.5 c 128,-1,43
 673 211 673 211 684 216.5 c 128,-1,44
 695 222 695 222 706.5 225.5 c 128,-1,45
 718 229 718 229 735 229 c 0,46,47
 772 229 772 229 803.5 217.5 c 128,-1,48
 835 206 835 206 854 181 c 128,-1,49
 873 156 873 156 873 115 c 0,50,51
 873 54 873 54 834 21 c 128,-1,52
 795 -12 795 -12 726 -12 c 0,53,54
 669 -12 669 -12 636.5 7.5 c 128,-1,55
 604 27 604 27 590 57.5 c 128,-1,56
 576 88 576 88 576 119 c 0,57,58
 576 148 576 148 593 168.5 c 128,-1,59
 610 189 610 189 638 198 c 2,60,-1
 690 217 l 1,61,62
 680 211 680 211 669.5 199 c 128,-1,63
 659 187 659 187 652 168.5 c 128,-1,64
 645 150 645 150 645 124 c 0,65,66
 645 85 645 85 667.5 67.5 c 128,-1,67
 690 50 690 50 725 50 c 0,68,69
 765 50 765 50 781 69.5 c 128,-1,70
 797 89 797 89 797 115 c 256,71,72
 797 141 797 141 786 155 c 128,-1,73
 775 169 775 169 757.5 175 c 128,-1,74
 740 181 740 181 722 181 c 0,75,76
 696 181 696 181 675 172 c 128,-1,77
 654 163 654 163 632 146 c 1,78,-1
 626 155 l 1,79,80
 613 142 613 142 597.5 129.5 c 128,-1,81
 582 117 582 117 563 105 c 128,-1,82
 544 93 544 93 520 81 c 0,83,84
 464 53 464 53 410.5 32 c 128,-1,85
 357 11 357 11 304.5 -0.5 c 128,-1,86
 252 -12 252 -12 199 -12 c 0,87,88
 158 -12 158 -12 121 -0.5 c 128,-1,89
 84 11 84 11 61 38.5 c 128,-1,90
 38 66 38 66 38 113 c 0,91,92
 38 140 38 140 50 165 c 128,-1,93
 62 190 62 190 89 206 c 0,94,95
 109 219 109 219 139.5 226 c 128,-1,96
 170 233 170 233 225 233 c 2,97,-1
 572 233 l 2,98,99
 628 233 628 233 666.5 237.5 c 128,-1,100
 705 242 705 242 731.5 251.5 c 128,-1,101
 758 261 758 261 775 276 c 0,102,103
 795 293 795 293 804 317.5 c 128,-1,104
 813 342 813 342 813 373 c 0,105,106
 813 400 813 400 800.5 428.5 c 128,-1,107
 788 457 788 457 758.5 476.5 c 128,-1,108
 729 496 729 496 677 496 c 0,109,110
 645 496 645 496 621 486.5 c 128,-1,111
 597 477 597 477 582 459 c 0,112,113
 564 438 564 438 557 405 c 128,-1,114
 550 372 550 372 550 310 c 2,115,-1
 550 259 l 1,116,-1
 467 259 l 1,117,-1
 467 323 l 2,118,119
 467 367 467 367 457.5 404.5 c 128,-1,120
 448 442 448 442 417 467 c 0,121,122
 399 481 399 481 371.5 490 c 128,-1,123
 344 499 344 499 294 499 c 0,124,125
 238 499 238 499 200.5 490 c 128,-1,126
 163 481 163 481 136 456 c 0,127,128
 132 452 132 452 129 444.5 c 128,-1,129
 126 437 126 437 124 430 c 0,130,131
 119 414 119 414 117 404 c 128,-1,132
 115 394 115 394 115 381 c 0,133,134
 115 337 115 337 137 318.5 c 128,-1,135
 159 300 159 300 194 300 c 0,136,137
 222 300 222 300 237.5 310 c 128,-1,138
 253 320 253 320 259.5 335.5 c 128,-1,139
 266 351 266 351 266 367 c 0,140,141
 266 397 266 397 248 413.5 c 128,-1,142
 230 430 230 430 192 430 c 0,143,144
 151 430 151 430 120.5 412 c 128,-1,145
 90 394 90 394 71 373 c 1,146,-1
 75 415 l 1,147,148
 100 442 100 442 135 460 c 128,-1,149
 170 478 170 478 212 478 c 0,150,151
 259 478 259 478 287.5 462 c 128,-1,152
 316 446 316 446 329 420.5 c 128,-1,153
 342 395 342 395 342 366 c 0,154,155
 342 333 342 333 327 304 c 128,-1,156
 312 275 312 275 279.5 257.5 c 128,-1,157
 247 240 247 240 195 240 c 0,158,159
 122 240 122 240 82.5 277.5 c 128,-1,160
 43 315 43 315 43 385 c 0,161,162
 43 436 43 436 72 477 c 128,-1,163
 101 518 101 518 157.5 542 c 128,-1,164
 214 566 214 566 297 566 c 0,0,1
EndSplineSet
EndChar

StartChar: jhamlym
Encoding: 3357 3357 31
Width: 1655
GlyphClass: 2
Flags: W
AnchorPoint: "Anchor-3" 626 0 basechar 0
AnchorPoint: "Anchor-0" 827 554 basechar 0
LayerCount: 2
Fore
SplineSet
652 566 m 0,0,1
 716 566 716 566 761 552.5 c 128,-1,2
 806 539 806 539 840 512 c 0,3,4
 881 478 881 478 902 426 c 128,-1,5
 923 374 923 374 923 285 c 2,6,-1
 923 258 l 2,7,8
 923 185 923 185 931 150.5 c 128,-1,9
 939 116 939 116 956 94 c 0,10,11
 970 77 970 77 990 68.5 c 128,-1,12
 1010 60 1010 60 1040 60 c 0,13,14
 1068 60 1068 60 1089 70 c 128,-1,15
 1110 80 1110 80 1124 97 c 0,16,17
 1141 119 1141 119 1149 152 c 128,-1,18
 1157 185 1157 185 1157 247 c 2,19,-1
 1157 554 l 1,20,-1
 1243 554 l 1,21,-1
 1243 264 l 2,22,23
 1243 207 1243 207 1247.5 174 c 128,-1,24
 1252 141 1252 141 1265 118 c 0,25,26
 1282 89 1282 89 1308.5 74.5 c 128,-1,27
 1335 60 1335 60 1371 60 c 0,28,29
 1417 60 1417 60 1452 87 c 128,-1,30
 1487 114 1487 114 1507.5 159.5 c 128,-1,31
 1528 205 1528 205 1528 262 c 0,32,33
 1528 323 1528 323 1512 368 c 128,-1,34
 1496 413 1496 413 1468.5 445.5 c 128,-1,35
 1441 478 1441 478 1408 500 c 1,36,-1
 1466 563 l 1,37,38
 1509 528 1509 528 1543 486.5 c 128,-1,39
 1577 445 1577 445 1596.5 391 c 128,-1,40
 1616 337 1616 337 1616 264 c 0,41,42
 1616 187 1616 187 1587 124.5 c 128,-1,43
 1558 62 1558 62 1502.5 25 c 128,-1,44
 1447 -12 1447 -12 1367 -12 c 0,45,46
 1302 -12 1302 -12 1262.5 14 c 128,-1,47
 1223 40 1223 40 1196 83 c 1,48,-1
 1201 82 l 1,49,50
 1183 51 1183 51 1157.5 30 c 128,-1,51
 1132 9 1132 9 1100 -1.5 c 128,-1,52
 1068 -12 1068 -12 1028 -12 c 0,53,54
 984 -12 984 -12 948 2.5 c 128,-1,55
 912 17 912 17 887 47 c 0,56,57
 874 63 874 63 862 85 c 128,-1,58
 850 107 850 107 843 146.5 c 128,-1,59
 836 186 836 186 836 252 c 2,60,-1
 836 263 l 2,61,62
 836 315 836 315 829 352.5 c 128,-1,63
 822 390 822 390 807.5 417 c 128,-1,64
 793 444 793 444 770 462 c 0,65,66
 748 479 748 479 716.5 488.5 c 128,-1,67
 685 498 685 498 646 498 c 0,68,69
 633 498 633 498 608.5 496 c 128,-1,70
 584 494 584 494 558 484 c 2,71,-1
 526 468 l 2,72,73
 489 449 489 449 458.5 414 c 128,-1,74
 428 379 428 379 409.5 330.5 c 128,-1,75
 391 282 391 282 391 221 c 0,76,77
 391 157 391 157 407.5 121.5 c 128,-1,78
 424 86 424 86 450.5 72 c 128,-1,79
 477 58 477 58 507 58 c 0,80,81
 538 58 538 58 564.5 72 c 128,-1,82
 591 86 591 86 607 121.5 c 128,-1,83
 623 157 623 157 623 221 c 0,84,85
 623 277 623 277 604 327 c 128,-1,86
 585 377 585 377 552 415 c 128,-1,87
 519 453 519 453 475 473 c 2,88,-1
 454 483 l 2,89,90
 431 491 431 491 409 494 c 128,-1,91
 387 497 387 497 359 497 c 0,92,93
 284 497 284 497 232.5 467.5 c 128,-1,94
 181 438 181 438 154.5 387.5 c 128,-1,95
 128 337 128 337 128 273 c 0,96,97
 128 221 128 221 143 180 c 128,-1,98
 158 139 158 139 185.5 108 c 128,-1,99
 213 77 213 77 250 54 c 1,100,-1
 200 -9 l 1,101,102
 157 16 157 16 120.5 55.5 c 128,-1,103
 84 95 84 95 61.5 150.5 c 128,-1,104
 39 206 39 206 39 277 c 0,105,106
 39 339 39 339 59.5 391.5 c 128,-1,107
 80 444 80 444 120 483 c 128,-1,108
 160 522 160 522 218 544 c 128,-1,109
 276 566 276 566 351 566 c 0,110,111
 400 566 400 566 441.5 556.5 c 128,-1,112
 483 547 483 547 524 524 c 1,113,-1
 548 504 l 1,114,115
 619 464 619 464 665 389.5 c 128,-1,116
 711 315 711 315 711 219 c 0,117,118
 711 148 711 148 687.5 96 c 128,-1,119
 664 44 664 44 618.5 16 c 128,-1,120
 573 -12 573 -12 507 -12 c 0,121,122
 442 -12 442 -12 396 16 c 128,-1,123
 350 44 350 44 326.5 96 c 128,-1,124
 303 148 303 148 303 219 c 0,125,126
 303 285 303 285 323 338 c 128,-1,127
 343 391 343 391 379 432.5 c 128,-1,128
 415 474 415 474 462 503 c 1,129,-1
 480 521 l 1,130,131
 525 546 525 546 569.5 556 c 128,-1,132
 614 566 614 566 652 566 c 0,0,1
EndSplineSet
EndChar

StartChar: nyamlym
Encoding: 3358 3358 32
Width: 1446
GlyphClass: 2
Flags: W
AnchorPoint: "Anchor-3" 550 0 basechar 0
AnchorPoint: "Anchor-0" 723 554 basechar 0
LayerCount: 2
Fore
SplineSet
358 566 m 0,0,1
 442 566 442 566 493 538.5 c 128,-1,2
 544 511 544 511 583 460 c 1,3,-1
 596 428 l 1,4,-1
 608 252 l 1,5,-1
 608 0 l 1,6,-1
 522 0 l 1,7,-1
 522 306 l 2,8,9
 522 366 522 366 511.5 400.5 c 128,-1,10
 501 435 501 435 478 456 c 0,11,12
 457 475 457 475 430.5 484.5 c 128,-1,13
 404 494 404 494 357 494 c 0,14,15
 285 494 285 494 232.5 460.5 c 128,-1,16
 180 427 180 427 151.5 369.5 c 128,-1,17
 123 312 123 312 123 239 c 2,18,-1
 123 228 l 2,19,20
 123 172 123 172 138 134 c 128,-1,21
 153 96 153 96 179.5 77 c 128,-1,22
 206 58 206 58 242 58 c 0,23,24
 267 58 267 58 286 69.5 c 128,-1,25
 305 81 305 81 316 103 c 128,-1,26
 327 125 327 125 327 157 c 0,27,28
 327 207 327 207 301 232.5 c 128,-1,29
 275 258 275 258 233 258 c 0,30,31
 194 258 194 258 159 238 c 128,-1,32
 124 218 124 218 95 186 c 1,33,-1
 80 248 l 1,34,35
 109 284 109 284 154 306 c 128,-1,36
 199 328 199 328 248 328 c 0,37,38
 296 328 296 328 332.5 309 c 128,-1,39
 369 290 369 290 389.5 253.5 c 128,-1,40
 410 217 410 217 410 165 c 0,41,42
 410 110 410 110 389 70 c 128,-1,43
 368 30 368 30 330 9 c 128,-1,44
 292 -12 292 -12 240 -12 c 256,45,46
 188 -12 188 -12 142.5 14 c 128,-1,47
 97 40 97 40 69.5 96 c 128,-1,48
 42 152 42 152 42 241 c 0,49,50
 42 347 42 347 84.5 419 c 128,-1,51
 127 491 127 491 198.5 528.5 c 128,-1,52
 270 566 270 566 358 566 c 0,0,1
791 566 m 0,53,54
 844 566 844 566 884 556.5 c 128,-1,55
 924 547 924 547 963 524 c 1,56,-1
 988 504 l 1,57,58
 1054 463 1054 463 1098.5 390 c 128,-1,59
 1143 317 1143 317 1143 219 c 0,60,61
 1143 148 1143 148 1119.5 96 c 128,-1,62
 1096 44 1096 44 1050.5 16 c 128,-1,63
 1005 -12 1005 -12 939 -12 c 0,64,65
 874 -12 874 -12 828 16 c 128,-1,66
 782 44 782 44 758.5 96 c 128,-1,67
 735 148 735 148 735 219 c 0,68,69
 735 285 735 285 757 338.5 c 128,-1,70
 779 392 779 392 817 433.5 c 128,-1,71
 855 475 855 475 903 504 c 1,72,-1
 918 520 l 1,73,74
 962 545 962 545 1008.5 555.5 c 128,-1,75
 1055 566 1055 566 1110 566 c 0,76,77
 1185 566 1185 566 1240.5 544 c 128,-1,78
 1296 522 1296 522 1333 483 c 128,-1,79
 1370 444 1370 444 1388.5 392 c 128,-1,80
 1407 340 1407 340 1407 281 c 0,81,82
 1407 211 1407 211 1386 156.5 c 128,-1,83
 1365 102 1365 102 1329 61 c 128,-1,84
 1293 20 1293 20 1246 -9 c 1,85,-1
 1196 54 l 1,86,87
 1229 74 1229 74 1256.5 103.5 c 128,-1,88
 1284 133 1284 133 1301 174.5 c 128,-1,89
 1318 216 1318 216 1318 271 c 0,90,91
 1318 334 1318 334 1293.5 385.5 c 128,-1,92
 1269 437 1269 437 1220.5 467 c 128,-1,93
 1172 497 1172 497 1100 497 c 0,94,95
 1070 497 1070 497 1044.5 494 c 128,-1,96
 1019 491 1019 491 994 482 c 2,97,-1
 963 467 l 2,98,99
 925 449 925 449 893 414 c 128,-1,100
 861 379 861 379 842 330.5 c 128,-1,101
 823 282 823 282 823 221 c 0,102,103
 823 157 823 157 839.5 121.5 c 128,-1,104
 856 86 856 86 882.5 72 c 128,-1,105
 909 58 909 58 939 58 c 0,106,107
 970 58 970 58 996 72 c 128,-1,108
 1022 86 1022 86 1038.5 121.5 c 128,-1,109
 1055 157 1055 157 1055 221 c 0,110,111
 1055 278 1055 278 1038 326.5 c 128,-1,112
 1021 375 1021 375 990.5 412.5 c 128,-1,113
 960 450 960 450 919 471 c 2,114,-1
 895 482 l 2,115,116
 882 487 882 487 868 490 c 128,-1,117
 854 493 854 493 837.5 495 c 128,-1,118
 821 497 821 497 799 497 c 0,119,120
 746 497 746 497 712.5 484 c 128,-1,121
 679 471 679 471 659 450 c 0,122,123
 634 425 634 425 621 388.5 c 128,-1,124
 608 352 608 352 608 289 c 2,125,-1
 608 0 l 1,126,-1
 522 0 l 1,127,-1
 522 209 l 1,128,-1
 556 454 l 1,129,130
 581 486 581 486 612.5 511.5 c 128,-1,131
 644 537 644 537 687.5 551.5 c 128,-1,132
 731 566 731 566 791 566 c 0,53,54
EndSplineSet
EndChar

StartChar: ttamlym
Encoding: 3359 3359 33
Width: 563
GlyphClass: 2
Flags: W
AnchorPoint: "Anchor-3" 213 0 basechar 0
AnchorPoint: "Anchor-0" 281 554 basechar 0
LayerCount: 2
Fore
SplineSet
269 566 m 0,0,1
 358 566 358 566 422.5 546.5 c 128,-1,2
 487 527 487 527 536 500 c 1,3,-1
 489 433 l 1,4,5
 449 459 449 459 394 476.5 c 128,-1,6
 339 494 339 494 268 494 c 0,7,8
 217 494 217 494 185 482 c 128,-1,9
 153 470 153 470 137.5 449.5 c 128,-1,10
 122 429 122 429 122 403 c 0,11,12
 122 384 122 384 127 371 c 128,-1,13
 132 358 132 358 142 349 c 0,14,15
 162 329 162 329 203 323 c 128,-1,16
 244 317 244 317 299 317 c 2,17,-1
 307 317 l 2,18,19
 386 317 386 317 430.5 301 c 128,-1,20
 475 285 475 285 500 253 c 0,21,22
 515 235 515 235 521.5 210 c 128,-1,23
 528 185 528 185 528 158 c 0,24,25
 528 108 528 108 502 69.5 c 128,-1,26
 476 31 476 31 423 9.5 c 128,-1,27
 370 -12 370 -12 289 -12 c 0,28,29
 204 -12 204 -12 141.5 7 c 128,-1,30
 79 26 79 26 20 59 c 1,31,-1
 66 125 l 1,32,33
 96 107 96 107 130.5 92 c 128,-1,34
 165 77 165 77 205.5 68.5 c 128,-1,35
 246 60 246 60 293 60 c 0,36,37
 346 60 346 60 378.5 72 c 128,-1,38
 411 84 411 84 426 105 c 128,-1,39
 441 126 441 126 441 153 c 0,40,41
 441 175 441 175 434.5 192 c 128,-1,42
 428 209 428 209 412 220 c 0,43,44
 396 232 396 232 366 238 c 128,-1,45
 336 244 336 244 280 244 c 2,46,-1
 270 244 l 2,47,48
 201 244 201 244 146.5 259 c 128,-1,49
 92 274 92 274 65 307 c 0,50,51
 50 325 50 325 42.5 348 c 128,-1,52
 35 371 35 371 35 402 c 0,53,54
 35 450 35 450 60 487 c 128,-1,55
 85 524 85 524 137 545 c 128,-1,56
 189 566 189 566 269 566 c 0,0,1
EndSplineSet
EndChar

StartChar: tthamlym
Encoding: 3360 3360 34
Width: 655
GlyphClass: 2
Flags: W
AnchorPoint: "Anchor-3" 254 0 basechar 0
AnchorPoint: "Anchor-0" 327 554 basechar 0
LayerCount: 2
Fore
SplineSet
326 566 m 0,0,1
 416 566 416 566 481 531 c 128,-1,2
 546 496 546 496 581 431 c 128,-1,3
 616 366 616 366 616 276 c 0,4,5
 616 189 616 189 581 124.5 c 128,-1,6
 546 60 546 60 481.5 24 c 128,-1,7
 417 -12 417 -12 327 -12 c 0,8,9
 229 -12 229 -12 165 28.5 c 128,-1,10
 101 69 101 69 70 135.5 c 128,-1,11
 39 202 39 202 39 279 c 0,12,13
 39 366 39 366 74 430.5 c 128,-1,14
 109 495 109 495 173.5 530.5 c 128,-1,15
 238 566 238 566 326 566 c 0,0,1
327 60 m 0,16,17
 394 60 394 60 438 88 c 128,-1,18
 482 116 482 116 504.5 165.5 c 128,-1,19
 527 215 527 215 527 278 c 0,20,21
 527 340 527 340 504.5 389 c 128,-1,22
 482 438 482 438 438 466 c 128,-1,23
 394 494 394 494 328 494 c 0,24,25
 233 494 233 494 180.5 435.5 c 128,-1,26
 128 377 128 377 128 278 c 0,27,28
 128 180 128 180 179.5 120 c 128,-1,29
 231 60 231 60 327 60 c 0,16,17
EndSplineSet
EndChar

StartChar: ddamlym
Encoding: 3361 3361 35
Width: 1223
GlyphClass: 2
Flags: W
AnchorPoint: "Anchor-3" 463 0 basechar 0
AnchorPoint: "Anchor-0" 611 554 basechar 0
LayerCount: 2
Fore
SplineSet
596 -12 m 0,0,1
 552 -12 552 -12 516 2.5 c 128,-1,2
 480 17 480 17 455 47 c 0,3,4
 442 63 442 63 430 85 c 128,-1,5
 418 107 418 107 411 146 c 128,-1,6
 404 185 404 185 404 251 c 2,7,-1
 404 285 l 2,8,9
 404 340 404 340 399 381.5 c 128,-1,10
 394 423 394 423 377 448 c 0,11,12
 364 469 364 469 341 481.5 c 128,-1,13
 318 494 318 494 274 494 c 256,14,15
 230 494 230 494 196.5 468.5 c 128,-1,16
 163 443 163 443 145 397 c 128,-1,17
 127 351 127 351 127 289 c 0,18,19
 127 233 127 233 142.5 188 c 128,-1,20
 158 143 158 143 185 109.5 c 128,-1,21
 212 76 212 76 247 51 c 1,22,-1
 194 -11 l 1,23,24
 144 29 144 29 109 73 c 128,-1,25
 74 117 74 117 56.5 171 c 128,-1,26
 39 225 39 225 39 292 c 0,27,28
 39 378 39 378 68 439.5 c 128,-1,29
 97 501 97 501 151 533.5 c 128,-1,30
 205 566 205 566 278 566 c 0,31,32
 335 566 335 566 374 549.5 c 128,-1,33
 413 533 413 533 439 503 c 0,34,35
 458 481 458 481 469.5 454.5 c 128,-1,36
 481 428 481 428 486 393 c 128,-1,37
 491 358 491 358 491 308 c 2,38,-1
 491 259 l 2,39,40
 491 189 491 189 498.5 152 c 128,-1,41
 506 115 506 115 524 94 c 0,42,43
 538 78 538 78 558 69 c 128,-1,44
 578 60 578 60 608 60 c 0,45,46
 636 60 636 60 657 70 c 128,-1,47
 678 80 678 80 692 97 c 0,48,49
 709 118 709 118 717 151 c 128,-1,50
 725 184 725 184 725 245 c 2,51,-1
 725 554 l 1,52,-1
 811 554 l 1,53,-1
 811 262 l 2,54,55
 811 206 811 206 815.5 173.5 c 128,-1,56
 820 141 820 141 833 118 c 0,57,58
 850 89 850 89 876.5 74.5 c 128,-1,59
 903 60 903 60 939 60 c 0,60,61
 985 60 985 60 1020.5 86.5 c 128,-1,62
 1056 113 1056 113 1076 159 c 128,-1,63
 1096 205 1096 205 1096 263 c 0,64,65
 1096 324 1096 324 1080 368.5 c 128,-1,66
 1064 413 1064 413 1036.5 445.5 c 128,-1,67
 1009 478 1009 478 976 500 c 1,68,-1
 1034 563 l 1,69,70
 1077 528 1077 528 1111 486.5 c 128,-1,71
 1145 445 1145 445 1164.5 390.5 c 128,-1,72
 1184 336 1184 336 1184 263 c 0,73,74
 1184 187 1184 187 1155 124.5 c 128,-1,75
 1126 62 1126 62 1070.5 25 c 128,-1,76
 1015 -12 1015 -12 935 -12 c 0,77,78
 870 -12 870 -12 831 13.5 c 128,-1,79
 792 39 792 39 764 82 c 1,80,-1
 769 81 l 1,81,82
 741 34 741 34 698 11 c 128,-1,83
 655 -12 655 -12 596 -12 c 0,0,1
EndSplineSet
EndChar

StartChar: ddhamlym
Encoding: 3362 3362 36
Width: 1334
GlyphClass: 2
Flags: W
AnchorPoint: "Anchor-3" 506 0 basechar 0
AnchorPoint: "Anchor-0" 667 554 basechar 0
LayerCount: 2
Fore
SplineSet
596 -12 m 0,0,1
 552 -12 552 -12 516 2.5 c 128,-1,2
 480 17 480 17 455 47 c 0,3,4
 442 63 442 63 430 85 c 128,-1,5
 418 107 418 107 411 146.5 c 128,-1,6
 404 186 404 186 404 252 c 2,7,-1
 404 286 l 2,8,9
 404 340 404 340 399 381.5 c 128,-1,10
 394 423 394 423 377 448 c 0,11,12
 364 469 364 469 341 481.5 c 128,-1,13
 318 494 318 494 274 494 c 256,14,15
 230 494 230 494 196.5 468.5 c 128,-1,16
 163 443 163 443 145 397.5 c 128,-1,17
 127 352 127 352 127 290 c 0,18,19
 127 233 127 233 142.5 188 c 128,-1,20
 158 143 158 143 185 109.5 c 128,-1,21
 212 76 212 76 247 51 c 1,22,-1
 194 -12 l 1,23,24
 143 29 143 29 108.5 73.5 c 128,-1,25
 74 118 74 118 56.5 171.5 c 128,-1,26
 39 225 39 225 39 293 c 0,27,28
 39 379 39 379 68 440 c 128,-1,29
 97 501 97 501 151 533.5 c 128,-1,30
 205 566 205 566 278 566 c 0,31,32
 335 566 335 566 374 549.5 c 128,-1,33
 413 533 413 533 439 503 c 0,34,35
 458 481 458 481 469.5 454.5 c 128,-1,36
 481 428 481 428 486 393 c 128,-1,37
 491 358 491 358 491 308 c 2,38,-1
 491 257 l 2,39,40
 491 189 491 189 498.5 152.5 c 128,-1,41
 506 116 506 116 524 94 c 0,42,43
 538 78 538 78 558 69 c 128,-1,44
 578 60 578 60 608 60 c 0,45,46
 636 60 636 60 657 70 c 128,-1,47
 678 80 678 80 692 97 c 0,48,49
 709 119 709 119 717 151.5 c 128,-1,50
 725 184 725 184 725 246 c 2,51,-1
 725 554 l 1,52,-1
 811 554 l 1,53,-1
 811 264 l 1,54,-1
 769 82 l 1,55,56
 741 35 741 35 698 11.5 c 128,-1,57
 655 -12 655 -12 596 -12 c 0,0,1
1098 566 m 0,58,59
 1149 566 1149 566 1193 540.5 c 128,-1,60
 1237 515 1237 515 1264.5 459.5 c 128,-1,61
 1292 404 1292 404 1292 313 c 0,62,63
 1292 209 1292 209 1249.5 136 c 128,-1,64
 1207 63 1207 63 1135.5 25.5 c 128,-1,65
 1064 -12 1064 -12 975 -12 c 0,66,67
 893 -12 893 -12 845 13 c 128,-1,68
 797 38 797 38 759 84 c 1,69,-1
 735 304 l 1,70,-1
 735 534 l 1,71,-1
 811 534 l 1,72,-1
 811 250 l 2,73,74
 811 186 811 186 822 152.5 c 128,-1,75
 833 119 833 119 855 98 c 0,76,77
 876 79 876 79 903.5 69.5 c 128,-1,78
 931 60 931 60 977 60 c 0,79,80
 1049 60 1049 60 1101.5 94 c 128,-1,81
 1154 128 1154 128 1182.5 185.5 c 128,-1,82
 1211 243 1211 243 1211 315 c 2,83,-1
 1211 327 l 2,84,85
 1211 387 1211 387 1195 424.5 c 128,-1,86
 1179 462 1179 462 1152.5 479 c 128,-1,87
 1126 496 1126 496 1092 496 c 0,88,89
 1067 496 1067 496 1048 485 c 128,-1,90
 1029 474 1029 474 1018 452.5 c 128,-1,91
 1007 431 1007 431 1007 398 c 0,92,93
 1007 346 1007 346 1033 321 c 128,-1,94
 1059 296 1059 296 1101 296 c 256,95,96
 1143 296 1143 296 1176.5 316 c 128,-1,97
 1210 336 1210 336 1239 368 c 1,98,-1
 1254 306 l 1,99,100
 1225 270 1225 270 1181.5 248 c 128,-1,101
 1138 226 1138 226 1088 226 c 0,102,103
 1039 226 1039 226 1002 245.5 c 128,-1,104
 965 265 965 265 944.5 302 c 128,-1,105
 924 339 924 339 924 393 c 0,106,107
 924 444 924 444 944.5 483 c 128,-1,108
 965 522 965 522 1004 544 c 128,-1,109
 1043 566 1043 566 1098 566 c 0,58,59
EndSplineSet
EndChar

StartChar: nnamlym
Encoding: 3363 3363 37
Width: 1368
GlyphClass: 2
Flags: W
AnchorPoint: "Anchor-3" 515 0 basechar 0
AnchorPoint: "Anchor-0" 684 554 basechar 0
LayerCount: 2
Fore
SplineSet
358 566 m 0,0,1
 442 566 442 566 492 539 c 128,-1,2
 542 512 542 512 576 469 c 1,3,-1
 562 472 l 1,4,5
 594 519 594 519 639.5 542.5 c 128,-1,6
 685 566 685 566 740 566 c 0,7,8
 807 566 807 566 848.5 541 c 128,-1,9
 890 516 890 516 915 472 c 1,10,-1
 903 465 l 1,11,12
 941 521 941 521 984 543.5 c 128,-1,13
 1027 566 1027 566 1088 566 c 0,14,15
 1165 566 1165 566 1219 529.5 c 128,-1,16
 1273 493 1273 493 1301 431 c 128,-1,17
 1329 369 1329 369 1329 292 c 0,18,19
 1329 226 1329 226 1311.5 172.5 c 128,-1,20
 1294 119 1294 119 1259.5 75 c 128,-1,21
 1225 31 1225 31 1174 -9 c 1,22,-1
 1121 53 l 1,23,24
 1156 78 1156 78 1183 111.5 c 128,-1,25
 1210 145 1210 145 1225.5 189.5 c 128,-1,26
 1241 234 1241 234 1241 292 c 256,27,28
 1241 350 1241 350 1222 395.5 c 128,-1,29
 1203 441 1203 441 1168.5 467.5 c 128,-1,30
 1134 494 1134 494 1087 494 c 0,31,32
 1048 494 1048 494 1020.5 480 c 128,-1,33
 993 466 993 466 977 437 c 0,34,35
 964 414 964 414 959.5 382 c 128,-1,36
 955 350 955 350 955 288 c 2,37,-1
 955 0 l 1,38,-1
 869 0 l 1,39,-1
 869 316 l 2,40,41
 869 371 869 371 861.5 404.5 c 128,-1,42
 854 438 854 438 834 459 c 0,43,44
 819 476 819 476 796 485 c 128,-1,45
 773 494 773 494 739 494 c 0,46,47
 708 494 708 494 685 483.5 c 128,-1,48
 662 473 662 473 646 456 c 0,49,50
 627 435 627 435 618 402 c 128,-1,51
 609 369 609 369 609 307 c 2,52,-1
 609 0 l 1,53,-1
 523 0 l 1,54,-1
 523 299 l 2,55,56
 523 364 523 364 512 399.5 c 128,-1,57
 501 435 501 435 478 456 c 0,58,59
 457 475 457 475 427.5 484.5 c 128,-1,60
 398 494 398 494 357 494 c 0,61,62
 285 494 285 494 232.5 460.5 c 128,-1,63
 180 427 180 427 151.5 369.5 c 128,-1,64
 123 312 123 312 123 239 c 2,65,-1
 123 228 l 2,66,67
 123 172 123 172 138 134 c 128,-1,68
 153 96 153 96 179.5 77 c 128,-1,69
 206 58 206 58 242 58 c 0,70,71
 267 58 267 58 286 69.5 c 128,-1,72
 305 81 305 81 316 103 c 128,-1,73
 327 125 327 125 327 157 c 0,74,75
 327 207 327 207 301 232.5 c 128,-1,76
 275 258 275 258 233 258 c 0,77,78
 194 258 194 258 159 238 c 128,-1,79
 124 218 124 218 95 186 c 1,80,-1
 80 248 l 1,81,82
 109 284 109 284 154 306 c 128,-1,83
 199 328 199 328 248 328 c 0,84,85
 296 328 296 328 332.5 309 c 128,-1,86
 369 290 369 290 389.5 253.5 c 128,-1,87
 410 217 410 217 410 165 c 0,88,89
 410 110 410 110 389 70 c 128,-1,90
 368 30 368 30 330 9 c 128,-1,91
 292 -12 292 -12 240 -12 c 256,92,93
 188 -12 188 -12 142.5 14 c 128,-1,94
 97 40 97 40 69.5 96 c 128,-1,95
 42 152 42 152 42 241 c 0,96,97
 42 347 42 347 84.5 419 c 128,-1,98
 127 491 127 491 198.5 528.5 c 128,-1,99
 270 566 270 566 358 566 c 0,0,1
EndSplineSet
EndChar

StartChar: tamlym
Encoding: 3364 3364 38
Width: 1014
GlyphClass: 2
Flags: W
AnchorPoint: "Anchor-3" 508 0 basechar 0
AnchorPoint: "Anchor-0" 507 554 basechar 0
LayerCount: 2
Fore
SplineSet
507 -12 m 0,0,1
 442 -12 442 -12 396 16 c 128,-1,2
 350 44 350 44 326.5 96 c 128,-1,3
 303 148 303 148 303 219 c 0,4,5
 303 285 303 285 325 338.5 c 128,-1,6
 347 392 347 392 385 434 c 128,-1,7
 423 476 423 476 471 504 c 1,8,-1
 486 520 l 1,9,10
 530 545 530 545 576.5 555.5 c 128,-1,11
 623 566 623 566 678 566 c 0,12,13
 753 566 753 566 808.5 544 c 128,-1,14
 864 522 864 522 901 483 c 128,-1,15
 938 444 938 444 956.5 392 c 128,-1,16
 975 340 975 340 975 281 c 0,17,18
 975 211 975 211 954 156.5 c 128,-1,19
 933 102 933 102 897 61 c 128,-1,20
 861 20 861 20 814 -9 c 1,21,-1
 765 54 l 1,22,23
 798 74 798 74 825.5 103.5 c 128,-1,24
 853 133 853 133 869.5 174.5 c 128,-1,25
 886 216 886 216 886 271 c 0,26,27
 886 337 886 337 861 388 c 128,-1,28
 836 439 836 439 787.5 468 c 128,-1,29
 739 497 739 497 668 497 c 0,30,31
 638 497 638 497 612.5 494 c 128,-1,32
 587 491 587 491 562 482 c 2,33,-1
 531 467 l 2,34,35
 493 449 493 449 461 414 c 128,-1,36
 429 379 429 379 410 330.5 c 128,-1,37
 391 282 391 282 391 221 c 0,38,39
 391 157 391 157 407.5 121.5 c 128,-1,40
 424 86 424 86 450.5 72 c 128,-1,41
 477 58 477 58 507 58 c 0,42,43
 538 58 538 58 564.5 71.5 c 128,-1,44
 591 85 591 85 607 120.5 c 128,-1,45
 623 156 623 156 623 221 c 0,46,47
 623 277 623 277 604 327 c 128,-1,48
 585 377 585 377 552 415 c 128,-1,49
 519 453 519 453 475 473 c 2,50,-1
 454 483 l 2,51,52
 431 491 431 491 409 494 c 128,-1,53
 387 497 387 497 359 497 c 0,54,55
 284 497 284 497 232.5 468 c 128,-1,56
 181 439 181 439 154.5 388.5 c 128,-1,57
 128 338 128 338 128 273 c 0,58,59
 128 221 128 221 143 180 c 128,-1,60
 158 139 158 139 185.5 108 c 128,-1,61
 213 77 213 77 250 54 c 1,62,-1
 200 -9 l 1,63,64
 157 16 157 16 120.5 55.5 c 128,-1,65
 84 95 84 95 61.5 150.5 c 128,-1,66
 39 206 39 206 39 277 c 0,67,68
 39 339 39 339 59.5 391.5 c 128,-1,69
 80 444 80 444 120 483 c 128,-1,70
 160 522 160 522 218 544 c 128,-1,71
 276 566 276 566 351 566 c 0,72,73
 400 566 400 566 441.5 556 c 128,-1,74
 483 546 483 546 524 523 c 1,75,-1
 549 503 l 1,76,77
 619 463 619 463 665 389 c 128,-1,78
 711 315 711 315 711 219 c 0,79,80
 711 148 711 148 687.5 96 c 128,-1,81
 664 44 664 44 618.5 16 c 128,-1,82
 573 -12 573 -12 507 -12 c 0,0,1
EndSplineSet
EndChar

StartChar: thamlym
Encoding: 3365 3365 39
Width: 896
GlyphClass: 2
Flags: W
AnchorPoint: "Anchor-3" 462 0 basechar 0
AnchorPoint: "Anchor-0" 448 554 basechar 0
LayerCount: 2
Fore
SplineSet
157 554 m 1,0,-1
 157 70 l 1,1,-1
 386 70 l 1,2,-1
 386 0 l 1,3,-1
 71 0 l 1,4,-1
 71 554 l 1,5,-1
 157 554 l 1,0,-1
583 566 m 0,6,7
 645 566 645 566 691 549 c 128,-1,8
 737 532 737 532 768 501 c 0,9,10
 802 468 802 468 817.5 419 c 128,-1,11
 833 370 833 370 833 292 c 2,12,-1
 833 0 l 1,13,-1
 340 0 l 1,14,-1
 340 292 l 2,15,16
 340 347 340 347 347 385.5 c 128,-1,17
 354 424 354 424 368.5 452 c 128,-1,18
 383 480 383 480 405 502 c 0,19,20
 436 532 436 532 480.5 549 c 128,-1,21
 525 566 525 566 583 566 c 0,6,7
584 494 m 0,22,23
 547 494 547 494 518.5 482.5 c 128,-1,24
 490 471 490 471 470 451 c 0,25,26
 449 429 449 429 437.5 391.5 c 128,-1,27
 426 354 426 354 426 279 c 2,28,-1
 426 70 l 1,29,-1
 747 70 l 1,30,-1
 747 271 l 2,31,32
 747 345 747 345 735 387 c 128,-1,33
 723 429 723 429 701 451 c 0,34,35
 681 471 681 471 653 482.5 c 128,-1,36
 625 494 625 494 584 494 c 0,22,23
EndSplineSet
EndChar

StartChar: damlym
Encoding: 3366 3366 40
Width: 641
GlyphClass: 2
Flags: W
AnchorPoint: "Anchor-3" 247 0 basechar 0
AnchorPoint: "Anchor-0" 320 554 basechar 0
LayerCount: 2
Fore
SplineSet
373 566 m 0,0,1
 445 566 445 566 493.5 545.5 c 128,-1,2
 542 525 542 525 566.5 490 c 128,-1,3
 591 455 591 455 591 411 c 0,4,5
 591 363 591 363 567 329.5 c 128,-1,6
 543 296 543 296 489 274 c 1,7,-1
 485 280 l 1,8,9
 542 264 542 264 572 227.5 c 128,-1,10
 602 191 602 191 602 143 c 0,11,12
 602 70 602 70 552 29.5 c 128,-1,13
 502 -11 502 -11 413 -11 c 0,14,15
 377 -11 377 -11 351 -7.5 c 128,-1,16
 325 -4 325 -4 305 0 c 1,17,-1
 323 69 l 1,18,19
 345 65 345 65 365 62 c 128,-1,20
 385 59 385 59 406 59 c 0,21,22
 458 59 458 59 486.5 78.5 c 128,-1,23
 515 98 515 98 515 144 c 0,24,25
 515 163 515 163 508 180 c 128,-1,26
 501 197 501 197 485 210 c 0,27,28
 469 224 469 224 445 232 c 128,-1,29
 421 240 421 240 368 240 c 2,30,-1
 322 240 l 1,31,-1
 322 310 l 1,32,-1
 367 310 l 2,33,34
 405 310 405 310 434 317 c 128,-1,35
 463 324 463 324 480 341 c 0,36,37
 492 352 492 352 498 367 c 128,-1,38
 504 382 504 382 504 403 c 0,39,40
 504 448 504 448 469 471 c 128,-1,41
 434 494 434 494 371 494 c 0,42,43
 290 494 290 494 239 457.5 c 128,-1,44
 188 421 188 421 164 358.5 c 128,-1,45
 140 296 140 296 140 217 c 0,46,47
 140 165 140 165 146 111 c 128,-1,48
 152 57 152 57 165 9 c 1,49,-1
 83 -4 l 1,50,51
 68 45 68 45 60 106 c 128,-1,52
 52 167 52 167 52 219 c 0,53,54
 52 322 52 322 87.5 400 c 128,-1,55
 123 478 123 478 194.5 522 c 128,-1,56
 266 566 266 566 373 566 c 0,0,1
EndSplineSet
EndChar

StartChar: dhamlym
Encoding: 3367 3367 41
Width: 911
GlyphClass: 2
Flags: W
AnchorPoint: "Anchor-3" 346 0 basechar 0
AnchorPoint: "Anchor-0" 455 554 basechar 0
LayerCount: 2
Fore
SplineSet
623 -12 m 0,0,1
 577 -12 577 -12 544 1.5 c 128,-1,2
 511 15 511 15 488.5 38 c 128,-1,3
 466 61 466 61 449 89 c 1,4,-1
 462 88 l 1,5,6
 431 36 431 36 388.5 12 c 128,-1,7
 346 -12 346 -12 281 -12 c 0,8,9
 204 -12 204 -12 150 24.5 c 128,-1,10
 96 61 96 61 67.5 123.5 c 128,-1,11
 39 186 39 186 39 262 c 0,12,13
 39 328 39 328 57 381 c 128,-1,14
 75 434 75 434 109.5 478.5 c 128,-1,15
 144 523 144 523 194 562 c 1,16,-1
 248 501 l 1,17,18
 213 476 213 476 185.5 442.5 c 128,-1,19
 158 409 158 409 142.5 365 c 128,-1,20
 127 321 127 321 127 262 c 0,21,22
 127 205 127 205 146 159 c 128,-1,23
 165 113 165 113 200 86.5 c 128,-1,24
 235 60 235 60 282 60 c 0,25,26
 323 60 323 60 349.5 75 c 128,-1,27
 376 90 376 90 392 118 c 0,28,29
 405 141 405 141 409 172.5 c 128,-1,30
 413 204 413 204 413 263 c 2,31,-1
 413 554 l 1,32,-1
 499 554 l 1,33,-1
 499 263 l 2,34,35
 499 206 499 206 503.5 173.5 c 128,-1,36
 508 141 508 141 521 118 c 0,37,38
 538 89 538 89 564 74.5 c 128,-1,39
 590 60 590 60 627 60 c 0,40,41
 673 60 673 60 708.5 86.5 c 128,-1,42
 744 113 744 113 764 158.5 c 128,-1,43
 784 204 784 204 784 262 c 0,44,45
 784 323 784 323 768 367.5 c 128,-1,46
 752 412 752 412 724.5 444.5 c 128,-1,47
 697 477 697 477 664 499 c 1,48,-1
 722 562 l 1,49,50
 765 528 765 528 799 486 c 128,-1,51
 833 444 833 444 852.5 389.5 c 128,-1,52
 872 335 872 335 872 262 c 0,53,54
 872 182 872 182 841.5 120 c 128,-1,55
 811 58 811 58 755.5 23 c 128,-1,56
 700 -12 700 -12 623 -12 c 0,0,1
EndSplineSet
EndChar

StartChar: namlym
Encoding: 3368 3368 42
Width: 911
GlyphClass: 2
Flags: W
AnchorPoint: "Anchor-3" 346 0 basechar 0
AnchorPoint: "Anchor-0" 455 554 basechar 0
LayerCount: 2
Fore
SplineSet
288 566 m 0,0,1
 334 566 334 566 367 552.5 c 128,-1,2
 400 539 400 539 423 516.5 c 128,-1,3
 446 494 446 494 462 465 c 1,4,-1
 449 466 l 1,5,6
 480 518 480 518 523 542 c 128,-1,7
 566 566 566 566 630 566 c 0,8,9
 707 566 707 566 761 529.5 c 128,-1,10
 815 493 815 493 843.5 431 c 128,-1,11
 872 369 872 369 872 292 c 0,12,13
 872 226 872 226 854 173 c 128,-1,14
 836 120 836 120 801.5 75.5 c 128,-1,15
 767 31 767 31 717 -8 c 1,16,-1
 663 53 l 1,17,18
 698 78 698 78 725.5 111.5 c 128,-1,19
 753 145 753 145 768.5 189.5 c 128,-1,20
 784 234 784 234 784 292 c 256,21,22
 784 350 784 350 765 395.5 c 128,-1,23
 746 441 746 441 711 467.5 c 128,-1,24
 676 494 676 494 629 494 c 0,25,26
 588 494 588 494 561.5 479.5 c 128,-1,27
 535 465 535 465 519 436 c 0,28,29
 506 414 506 414 502 382 c 128,-1,30
 498 350 498 350 498 291 c 2,31,-1
 498 0 l 1,32,-1
 412 0 l 1,33,-1
 412 291 l 2,34,35
 412 348 412 348 408 381 c 128,-1,36
 404 414 404 414 390 436 c 0,37,38
 373 465 373 465 347 479.5 c 128,-1,39
 321 494 321 494 284 494 c 0,40,41
 238 494 238 494 202.5 467.5 c 128,-1,42
 167 441 167 441 147 395.5 c 128,-1,43
 127 350 127 350 127 292 c 0,44,45
 127 232 127 232 143.5 187 c 128,-1,46
 160 142 160 142 187 110 c 128,-1,47
 214 78 214 78 247 55 c 1,48,-1
 189 -8 l 1,49,50
 146 27 146 27 112 68.5 c 128,-1,51
 78 110 78 110 58.5 164.5 c 128,-1,52
 39 219 39 219 39 292 c 0,53,54
 39 373 39 373 69.5 434.5 c 128,-1,55
 100 496 100 496 156 531 c 128,-1,56
 212 566 212 566 288 566 c 0,0,1
EndSplineSet
EndChar

StartChar: nnnamlym
Encoding: 3369 3369 43
Width: 1021
GlyphClass: 2
Flags: W
AnchorPoint: "Anchor-3" 389 0 basechar 0
AnchorPoint: "Anchor-0" 510 554 basechar 0
LayerCount: 2
Fore
SplineSet
358 566 m 0,0,1
 442 566 442 566 492 539 c 128,-1,2
 542 512 542 512 576 469 c 1,3,-1
 566 477 l 1,4,5
 596 524 596 524 638 545 c 128,-1,6
 680 566 680 566 741 566 c 0,7,8
 818 566 818 566 872 529.5 c 128,-1,9
 926 493 926 493 954 431 c 128,-1,10
 982 369 982 369 982 292 c 0,11,12
 982 226 982 226 964.5 173 c 128,-1,13
 947 120 947 120 912.5 75.5 c 128,-1,14
 878 31 878 31 828 -8 c 1,15,-1
 774 53 l 1,16,17
 809 78 809 78 836 111.5 c 128,-1,18
 863 145 863 145 878.5 189.5 c 128,-1,19
 894 234 894 234 894 292 c 256,20,21
 894 350 894 350 875 395.5 c 128,-1,22
 856 441 856 441 821.5 467.5 c 128,-1,23
 787 494 787 494 740 494 c 0,24,25
 699 494 699 494 673 479.5 c 128,-1,26
 647 465 647 465 630 436 c 0,27,28
 618 414 618 414 613 382 c 128,-1,29
 608 350 608 350 608 285 c 2,30,-1
 608 0 l 1,31,-1
 522 0 l 1,32,-1
 522 305 l 2,33,34
 522 365 522 365 511.5 400 c 128,-1,35
 501 435 501 435 478 456 c 0,36,37
 457 475 457 475 429.5 484.5 c 128,-1,38
 402 494 402 494 357 494 c 0,39,40
 285 494 285 494 232.5 460.5 c 128,-1,41
 180 427 180 427 151.5 369.5 c 128,-1,42
 123 312 123 312 123 239 c 2,43,-1
 123 228 l 2,44,45
 123 172 123 172 138 134 c 128,-1,46
 153 96 153 96 179.5 77 c 128,-1,47
 206 58 206 58 242 58 c 0,48,49
 267 58 267 58 286 69.5 c 128,-1,50
 305 81 305 81 316 103 c 128,-1,51
 327 125 327 125 327 157 c 0,52,53
 327 207 327 207 301 232.5 c 128,-1,54
 275 258 275 258 233 258 c 0,55,56
 194 258 194 258 159 238 c 128,-1,57
 124 218 124 218 95 186 c 1,58,-1
 80 248 l 1,59,60
 109 284 109 284 154 306 c 128,-1,61
 199 328 199 328 248 328 c 0,62,63
 296 328 296 328 332.5 309 c 128,-1,64
 369 290 369 290 389.5 253.5 c 128,-1,65
 410 217 410 217 410 165 c 0,66,67
 410 110 410 110 389 70 c 128,-1,68
 368 30 368 30 330 9 c 128,-1,69
 292 -12 292 -12 240 -12 c 256,70,71
 188 -12 188 -12 142.5 14 c 128,-1,72
 97 40 97 40 69.5 96 c 128,-1,73
 42 152 42 152 42 241 c 0,74,75
 42 347 42 347 84.5 419 c 128,-1,76
 127 491 127 491 198.5 528.5 c 128,-1,77
 270 566 270 566 358 566 c 0,0,1
EndSplineSet
EndChar

StartChar: pamlym
Encoding: 3370 3370 44
Width: 896
GlyphClass: 2
Flags: W
AnchorPoint: "Anchor-3" 341 0 basechar 0
AnchorPoint: "Anchor-0" 448 554 basechar 0
LayerCount: 2
Fore
SplineSet
229 346 m 0,0,1
 297 346 297 346 340.5 320.5 c 128,-1,2
 384 295 384 295 405.5 255.5 c 128,-1,3
 427 216 427 216 427 173 c 0,4,5
 427 133 427 133 414 102 c 128,-1,6
 401 71 401 71 382 57 c 1,7,-1
 357 70 l 1,8,-1
 739 70 l 1,9,-1
 739 554 l 1,10,-1
 825 554 l 1,11,-1
 825 0 l 1,12,-1
 328 0 l 1,13,-1
 299 52 l 1,14,15
 319 72 319 72 331 96.5 c 128,-1,16
 343 121 343 121 343 158 c 0,17,18
 343 212 343 212 314 244 c 128,-1,19
 285 276 285 276 229 276 c 0,20,21
 194 276 194 276 168.5 260.5 c 128,-1,22
 143 245 143 245 129.5 220 c 128,-1,23
 116 195 116 195 116 164 c 0,24,25
 116 130 116 130 130 102 c 128,-1,26
 144 74 144 74 175 51 c 1,27,-1
 129 -7 l 1,28,29
 87 24 87 24 59.5 66.5 c 128,-1,30
 32 109 32 109 32 166 c 0,31,32
 32 219 32 219 56.5 259.5 c 128,-1,33
 81 300 81 300 125.5 323 c 128,-1,34
 170 346 170 346 229 346 c 0,0,1
EndSplineSet
EndChar

StartChar: phamlym
Encoding: 3371 3371 45
Width: 1129
GlyphClass: 2
Flags: W
AnchorPoint: "Anchor-3" 430 0 basechar 0
AnchorPoint: "Anchor-0" 564 554 basechar 0
LayerCount: 2
Fore
SplineSet
229 346 m 0,0,1
 297 346 297 346 340.5 320.5 c 128,-1,2
 384 295 384 295 405.5 255.5 c 128,-1,3
 427 216 427 216 427 173 c 0,4,5
 427 133 427 133 414 102 c 128,-1,6
 401 71 401 71 382 57 c 1,7,-1
 357 70 l 1,8,-1
 634 70 l 1,9,-1
 634 0 l 1,10,-1
 328 0 l 1,11,-1
 299 52 l 1,12,13
 319 72 319 72 331 96.5 c 128,-1,14
 343 121 343 121 343 158 c 0,15,16
 343 212 343 212 314 244 c 128,-1,17
 285 276 285 276 229 276 c 0,18,19
 194 276 194 276 168.5 260.5 c 128,-1,20
 143 245 143 245 129.5 220 c 128,-1,21
 116 195 116 195 116 164 c 0,22,23
 116 130 116 130 130 101.5 c 128,-1,24
 144 73 144 73 175 51 c 1,25,-1
 129 -7 l 1,26,27
 86 23 86 23 59 66 c 128,-1,28
 32 109 32 109 32 166 c 0,29,30
 32 219 32 219 56.5 259.5 c 128,-1,31
 81 300 81 300 125.5 323 c 128,-1,32
 170 346 170 346 229 346 c 0,0,1
816 566 m 0,33,34
 878 566 878 566 924 549 c 128,-1,35
 970 532 970 532 1001 501 c 0,36,37
 1035 468 1035 468 1050.5 419 c 128,-1,38
 1066 370 1066 370 1066 292 c 2,39,-1
 1066 0 l 1,40,-1
 573 0 l 1,41,-1
 573 292 l 2,42,43
 573 347 573 347 580 385.5 c 128,-1,44
 587 424 587 424 601.5 452 c 128,-1,45
 616 480 616 480 638 502 c 0,46,47
 669 532 669 532 713.5 549 c 128,-1,48
 758 566 758 566 816 566 c 0,33,34
817 494 m 0,49,50
 780 494 780 494 751.5 482.5 c 128,-1,51
 723 471 723 471 703 451 c 0,52,53
 682 429 682 429 670.5 391.5 c 128,-1,54
 659 354 659 354 659 279 c 2,55,-1
 659 70 l 1,56,-1
 980 70 l 1,57,-1
 980 271 l 2,58,59
 980 345 980 345 968 387 c 128,-1,60
 956 429 956 429 934 451 c 0,61,62
 914 471 914 471 886 482.5 c 128,-1,63
 858 494 858 494 817 494 c 0,49,50
EndSplineSet
EndChar

StartChar: bamlym
Encoding: 3372 3372 46
Width: 1306
GlyphClass: 2
Flags: W
AnchorPoint: "Anchor-3" 496 0 basechar 0
AnchorPoint: "Anchor-0" 653 554 basechar 0
LayerCount: 2
Fore
SplineSet
358 566 m 0,0,1
 442 566 442 566 492 539 c 128,-1,2
 542 512 542 512 576 469 c 1,3,-1
 596 428 l 1,4,-1
 608 266 l 1,5,-1
 608 0 l 1,6,-1
 522 0 l 1,7,-1
 522 306 l 2,8,9
 522 365 522 365 511.5 400 c 128,-1,10
 501 435 501 435 478 456 c 0,11,12
 457 475 457 475 429.5 484.5 c 128,-1,13
 402 494 402 494 357 494 c 0,14,15
 285 494 285 494 232.5 460.5 c 128,-1,16
 180 427 180 427 151.5 369.5 c 128,-1,17
 123 312 123 312 123 239 c 2,18,-1
 123 228 l 2,19,20
 123 172 123 172 138 134 c 128,-1,21
 153 96 153 96 179.5 77 c 128,-1,22
 206 58 206 58 242 58 c 0,23,24
 267 58 267 58 286 69.5 c 128,-1,25
 305 81 305 81 316 103 c 128,-1,26
 327 125 327 125 327 157 c 0,27,28
 327 207 327 207 301 232.5 c 128,-1,29
 275 258 275 258 233 258 c 0,30,31
 194 258 194 258 159 238 c 128,-1,32
 124 218 124 218 95 186 c 1,33,-1
 80 248 l 1,34,35
 109 284 109 284 154 306 c 128,-1,36
 199 328 199 328 248 328 c 0,37,38
 296 328 296 328 332.5 309 c 128,-1,39
 369 290 369 290 389.5 253.5 c 128,-1,40
 410 217 410 217 410 165 c 0,41,42
 410 110 410 110 389 70 c 128,-1,43
 368 30 368 30 330 9 c 128,-1,44
 292 -12 292 -12 240 -12 c 256,45,46
 188 -12 188 -12 142.5 14 c 128,-1,47
 97 40 97 40 69.5 96 c 128,-1,48
 42 152 42 152 42 241 c 0,49,50
 42 347 42 347 84.5 419 c 128,-1,51
 127 491 127 491 198.5 528.5 c 128,-1,52
 270 566 270 566 358 566 c 0,0,1
1235 554 m 1,53,-1
 1235 0 l 1,54,-1
 821 0 l 1,55,-1
 785 54 l 1,56,57
 813 81 813 81 837.5 112.5 c 128,-1,58
 862 144 862 144 878 187 c 128,-1,59
 894 230 894 230 894 292 c 0,60,61
 894 350 894 350 875 395.5 c 128,-1,62
 856 441 856 441 821.5 467.5 c 128,-1,63
 787 494 787 494 740 494 c 0,64,65
 699 494 699 494 673 479.5 c 128,-1,66
 647 465 647 465 630 436 c 0,67,68
 618 414 618 414 613 382 c 128,-1,69
 608 350 608 350 608 285 c 2,70,-1
 608 0 l 1,71,-1
 522 0 l 1,72,-1
 522 258 l 1,73,-1
 571 422 l 1,74,-1
 566 477 l 1,75,76
 596 524 596 524 638 545 c 128,-1,77
 680 566 680 566 741 566 c 0,78,79
 818 566 818 566 872 529.5 c 128,-1,80
 926 493 926 493 954 431 c 128,-1,81
 982 369 982 369 982 292 c 0,82,83
 982 236 982 236 970 194 c 128,-1,84
 958 152 958 152 939 120 c 128,-1,85
 920 88 920 88 897 61 c 1,86,-1
 877 70 l 1,87,-1
 1149 70 l 1,88,-1
 1149 554 l 1,89,-1
 1235 554 l 1,53,-1
EndSplineSet
EndChar

StartChar: bhamlym
Encoding: 3373 3373 47
Width: 654
GlyphClass: 2
Flags: W
AnchorPoint: "Anchor-3" 253 0 basechar 0
AnchorPoint: "Anchor-0" 327 554 basechar 0
LayerCount: 2
Fore
SplineSet
394 566 m 0,0,1
 460 566 460 566 511 550 c 128,-1,2
 562 534 562 534 590.5 502.5 c 128,-1,3
 619 471 619 471 619 425 c 0,4,5
 619 402 619 402 613.5 383 c 128,-1,6
 608 364 608 364 596 350 c 0,7,8
 581 331 581 331 555.5 321 c 128,-1,9
 530 311 530 311 477 311 c 2,10,-1
 448 311 l 2,11,12
 410 311 410 311 392 308.5 c 128,-1,13
 374 306 374 306 364 301 c 256,14,15
 354 296 354 296 350 288 c 128,-1,16
 346 280 346 280 346 270 c 0,17,18
 346 243 346 243 372.5 236 c 128,-1,19
 399 229 399 229 444 229 c 2,20,-1
 456 229 l 2,21,22
 504 229 504 229 536 220.5 c 128,-1,23
 568 212 568 212 587 195 c 0,24,25
 604 181 604 181 612 160.5 c 128,-1,26
 620 140 620 140 620 113 c 0,27,28
 620 77 620 77 600.5 48.5 c 128,-1,29
 581 20 581 20 542 4 c 128,-1,30
 503 -12 503 -12 443 -12 c 0,31,32
 409 -12 409 -12 373 -7 c 128,-1,33
 337 -2 337 -2 305.5 6.5 c 128,-1,34
 274 15 274 15 252 25 c 1,35,-1
 283 93 l 1,36,37
 321 76 321 76 360 67.5 c 128,-1,38
 399 59 399 59 441 59 c 0,39,40
 495 59 495 59 516 74 c 128,-1,41
 537 89 537 89 537 111 c 0,42,43
 537 141 537 141 514.5 150 c 128,-1,44
 492 159 492 159 454 159 c 2,45,-1
 439 159 l 2,46,47
 375 159 375 159 339 170 c 128,-1,48
 303 181 303 181 285 203 c 0,49,50
 275 216 275 216 269.5 231.5 c 128,-1,51
 264 247 264 247 264 268 c 0,52,53
 264 291 264 291 272 311.5 c 128,-1,54
 280 332 280 332 299 346 c 0,55,56
 320 363 320 363 353.5 372 c 128,-1,57
 387 381 387 381 441 381 c 2,58,-1
 482 381 l 2,59,60
 510 381 510 381 522.5 389.5 c 128,-1,61
 535 398 535 398 535 423 c 0,62,63
 535 460 535 460 497 477 c 128,-1,64
 459 494 459 494 393 494 c 0,65,66
 303 494 303 494 247.5 457.5 c 128,-1,67
 192 421 192 421 166 358.5 c 128,-1,68
 140 296 140 296 140 217 c 0,69,70
 140 165 140 165 146 111 c 128,-1,71
 152 57 152 57 165 9 c 1,72,-1
 83 -4 l 1,73,74
 68 45 68 45 60 106 c 128,-1,75
 52 167 52 167 52 219 c 0,76,77
 52 322 52 322 89.5 400 c 128,-1,78
 127 478 127 478 203 522 c 128,-1,79
 279 566 279 566 394 566 c 0,0,1
EndSplineSet
EndChar

StartChar: mamlym
Encoding: 3374 3374 48
Width: 723
GlyphClass: 2
Flags: W
AnchorPoint: "Anchor-3" 280 0 basechar 0
AnchorPoint: "Anchor-0" 361 554 basechar 0
LayerCount: 2
Fore
SplineSet
354 566 m 0,0,1
 433 566 433 566 489.5 547.5 c 128,-1,2
 546 529 546 529 583 494 c 0,3,4
 611 469 611 469 628.5 437 c 128,-1,5
 646 405 646 405 654.5 363 c 128,-1,6
 663 321 663 321 663 266 c 2,7,-1
 663 0 l 1,8,-1
 60 0 l 1,9,-1
 60 268 l 2,10,11
 60 320 60 320 68.5 361.5 c 128,-1,12
 77 403 77 403 94.5 435.5 c 128,-1,13
 112 468 112 468 138 493 c 0,14,15
 175 528 175 528 227.5 547 c 128,-1,16
 280 566 280 566 354 566 c 0,0,1
307 495 m 0,17,18
 265 495 265 495 233 474 c 128,-1,19
 201 453 201 453 181 418 c 0,20,21
 165 390 165 390 155.5 349.5 c 128,-1,22
 146 309 146 309 146 249 c 2,23,-1
 146 68 l 1,24,-1
 151 68 l 1,25,26
 219 119 219 119 272 175 c 128,-1,27
 325 231 325 231 355.5 289 c 128,-1,28
 386 347 386 347 386 402 c 0,29,30
 386 430 386 430 377.5 450.5 c 128,-1,31
 369 471 369 471 352 483 c 128,-1,32
 335 495 335 495 307 495 c 0,17,18
472 393 m 0,33,34
 472 334 472 334 445 277 c 128,-1,35
 418 220 418 220 368 162.5 c 128,-1,36
 318 105 318 105 249 45 c 1,37,-1
 247 65 l 1,38,39
 276 67 276 67 304 68.5 c 128,-1,40
 332 70 332 70 360 70 c 2,41,-1
 577 70 l 1,42,-1
 577 249 l 2,43,44
 577 323 577 323 562.5 372 c 128,-1,45
 548 421 548 421 515 450.5 c 128,-1,46
 482 480 482 480 428 494 c 1,47,-1
 430 501 l 1,48,49
 449 479 449 479 460.5 454.5 c 128,-1,50
 472 430 472 430 472 393 c 0,33,34
EndSplineSet
EndChar

StartChar: yamlym
Encoding: 3375 3375 49
Width: 1035
GlyphClass: 2
Flags: W
AnchorPoint: "Anchor-3" 400 0 basechar 0
AnchorPoint: "Anchor-0" 517 554 basechar 0
LayerCount: 2
Fore
SplineSet
661 -12 m 0,0,1
 621 -12 621 -12 578 -3 c 128,-1,2
 535 6 535 6 493 29 c 0,3,4
 487 32 487 32 477.5 36 c 128,-1,5
 468 40 468 40 463 43 c 0,6,7
 408 82 408 82 375 129 c 128,-1,8
 342 176 342 176 327 229 c 128,-1,9
 312 282 312 282 312 338 c 0,10,11
 312 378 312 378 322 412 c 128,-1,12
 332 446 332 446 349 473 c 2,13,-1
 356 484 l 2,14,15
 376 511 376 511 402.5 529 c 128,-1,16
 429 547 429 547 460 556.5 c 128,-1,17
 491 566 491 566 525 566 c 0,18,19
 624 566 624 566 679 502.5 c 128,-1,20
 734 439 734 439 734 332 c 0,21,22
 734 242 734 242 696 169.5 c 128,-1,23
 658 97 658 97 593 53 c 0,24,25
 585 47 585 47 577.5 42.5 c 128,-1,26
 570 38 570 38 560 33 c 0,27,28
 518 9 518 9 472 -1.5 c 128,-1,29
 426 -12 426 -12 376 -12 c 0,30,31
 296 -12 296 -12 233.5 14 c 128,-1,32
 171 40 171 40 127.5 86.5 c 128,-1,33
 84 133 84 133 61.5 196.5 c 128,-1,34
 39 260 39 260 39 335 c 0,35,36
 39 405 39 405 65.5 456.5 c 128,-1,37
 92 508 92 508 141 537 c 128,-1,38
 190 566 190 566 256 566 c 0,39,40
 314 566 314 566 354 545.5 c 128,-1,41
 394 525 394 525 421 490 c 1,42,-1
 362 431 l 1,43,44
 349 457 349 457 323.5 476.5 c 128,-1,45
 298 496 298 496 257 496 c 0,46,47
 219 496 219 496 189.5 478 c 128,-1,48
 160 460 160 460 143 423.5 c 128,-1,49
 126 387 126 387 126 333 c 0,50,51
 126 261 126 261 155 198 c 128,-1,52
 184 135 184 135 241 95.5 c 128,-1,53
 298 56 298 56 383 56 c 0,54,55
 404 56 404 56 426 58.5 c 128,-1,56
 448 61 448 61 469 66 c 0,57,58
 480 70 480 70 492 74 c 128,-1,59
 504 78 504 78 514 82 c 0,60,61
 549 100 549 100 579 134.5 c 128,-1,62
 609 169 609 169 628 219 c 128,-1,63
 647 269 647 269 647 332 c 0,64,65
 647 392 647 392 630 428 c 128,-1,66
 613 464 613 464 585 480 c 128,-1,67
 557 496 557 496 525 496 c 0,68,69
 487 496 487 496 458.5 477 c 128,-1,70
 430 458 430 458 414.5 421.5 c 128,-1,71
 399 385 399 385 399 332 c 256,72,73
 399 279 399 279 415.5 228.5 c 128,-1,74
 432 178 432 178 462.5 139 c 128,-1,75
 493 100 493 100 534 78 c 0,76,77
 544 74 544 74 552 73.5 c 128,-1,78
 560 73 560 73 570 69 c 0,79,80
 587 64 587 64 611 60 c 128,-1,81
 635 56 635 56 661 56 c 0,82,83
 744 56 744 56 798 90 c 128,-1,84
 852 124 852 124 879 182 c 128,-1,85
 906 240 906 240 906 312 c 0,86,87
 906 371 906 371 887 424 c 128,-1,88
 868 477 868 477 833 519 c 1,89,-1
 902 566 l 1,90,91
 948 512 948 512 970.5 447.5 c 128,-1,92
 993 383 993 383 993 314 c 0,93,94
 993 243 993 243 971.5 183 c 128,-1,95
 950 123 950 123 907.5 79.5 c 128,-1,96
 865 36 865 36 803 12 c 128,-1,97
 741 -12 741 -12 661 -12 c 0,0,1
EndSplineSet
EndChar

StartChar: ramlym
Encoding: 3376 3376 50
Width: 736
GlyphClass: 2
Flags: W
AnchorPoint: "Anchor-3" 284 0 basechar 0
AnchorPoint: "Anchor-0" 368 554 basechar 0
LayerCount: 2
Fore
SplineSet
364 566 m 0,0,1
 447 566 447 566 509.5 542 c 128,-1,2
 572 518 572 518 613.5 474 c 128,-1,3
 655 430 655 430 676 371 c 128,-1,4
 697 312 697 312 697 242 c 0,5,6
 697 153 697 153 669 96.5 c 128,-1,7
 641 40 641 40 593 14 c 128,-1,8
 545 -12 545 -12 485 -12 c 0,9,10
 420 -12 420 -12 377 17 c 128,-1,11
 334 46 334 46 312.5 93.5 c 128,-1,12
 291 141 291 141 291 196 c 0,13,14
 291 291 291 291 342 347.5 c 128,-1,15
 393 404 393 404 479 404 c 0,16,17
 535 404 535 404 576.5 375 c 128,-1,18
 618 346 618 346 642 301 c 128,-1,19
 666 256 666 256 668 206 c 1,20,-1
 643 209 l 1,21,22
 636 240 636 240 616.5 268.5 c 128,-1,23
 597 297 597 297 566.5 315.5 c 128,-1,24
 536 334 536 334 496 334 c 0,25,26
 433 334 433 334 404 296.5 c 128,-1,27
 375 259 375 259 375 198 c 0,28,29
 375 156 375 156 386 124.5 c 128,-1,30
 397 93 397 93 421.5 75.5 c 128,-1,31
 446 58 446 58 485 58 c 0,32,33
 526 58 526 58 554.5 77 c 128,-1,34
 583 96 583 96 598.5 138 c 128,-1,35
 614 180 614 180 614 248 c 0,36,37
 614 250 614 250 612.5 270 c 128,-1,38
 611 290 611 290 607 310 c 0,39,40
 606 315 606 315 606 323 c 128,-1,41
 606 331 606 331 604 335 c 0,42,43
 595 378 595 378 565 414 c 128,-1,44
 535 450 535 450 485 472 c 128,-1,45
 435 494 435 494 364 494 c 0,46,47
 292 494 292 494 239 468 c 128,-1,48
 186 442 186 442 157 393 c 128,-1,49
 128 344 128 344 128 273 c 0,50,51
 128 221 128 221 143 180 c 128,-1,52
 158 139 158 139 185.5 108 c 128,-1,53
 213 77 213 77 250 54 c 1,54,-1
 200 -9 l 1,55,56
 157 16 157 16 120.5 55.5 c 128,-1,57
 84 95 84 95 61.5 150.5 c 128,-1,58
 39 206 39 206 39 277 c 0,59,60
 39 333 39 333 58 385 c 128,-1,61
 77 437 77 437 116.5 478 c 128,-1,62
 156 519 156 519 217.5 542.5 c 128,-1,63
 279 566 279 566 364 566 c 0,0,1
EndSplineSet
EndChar

StartChar: rramlym
Encoding: 3377 3377 51
Width: 674
GlyphClass: 2
Flags: W
AnchorPoint: "Anchor-3" 259 0 basechar 0
AnchorPoint: "Anchor-0" 337 554 basechar 0
LayerCount: 2
Fore
SplineSet
341 566 m 0,0,1
 415 566 415 566 470.5 544 c 128,-1,2
 526 522 526 522 562.5 483 c 128,-1,3
 599 444 599 444 617 392 c 128,-1,4
 635 340 635 340 635 281 c 0,5,6
 635 211 635 211 614 156.5 c 128,-1,7
 593 102 593 102 557 61 c 128,-1,8
 521 20 521 20 474 -9 c 1,9,-1
 425 54 l 1,10,11
 458 74 458 74 485.5 104 c 128,-1,12
 513 134 513 134 529.5 176 c 128,-1,13
 546 218 546 218 546 271 c 0,14,15
 546 337 546 337 522 387 c 128,-1,16
 498 437 498 437 451.5 465.5 c 128,-1,17
 405 494 405 494 338 494 c 0,18,19
 272 494 272 494 225 464.5 c 128,-1,20
 178 435 178 435 153 385 c 128,-1,21
 128 335 128 335 128 273 c 0,22,23
 128 221 128 221 143 180 c 128,-1,24
 158 139 158 139 185.5 108 c 128,-1,25
 213 77 213 77 250 54 c 1,26,-1
 200 -8 l 1,27,28
 157 16 157 16 120.5 55.5 c 128,-1,29
 84 95 84 95 61.5 150.5 c 128,-1,30
 39 206 39 206 39 277 c 0,31,32
 39 339 39 339 58.5 391.5 c 128,-1,33
 78 444 78 444 116.5 483 c 128,-1,34
 155 522 155 522 211.5 544 c 128,-1,35
 268 566 268 566 341 566 c 0,0,1
EndSplineSet
EndChar

StartChar: lamlym
Encoding: 3378 3378 52
Width: 859
GlyphClass: 2
Flags: W
AnchorPoint: "Anchor-3" 329 0 basechar 0
AnchorPoint: "Anchor-0" 429 554 basechar 0
LayerCount: 2
Fore
SplineSet
788 554 m 1,0,-1
 788 0 l 1,1,-1
 63 0 l 1,2,-1
 63 313 l 2,3,4
 63 387 63 387 79.5 431 c 128,-1,5
 96 475 96 475 126 504 c 0,6,7
 158 535 158 535 202.5 550.5 c 128,-1,8
 247 566 247 566 305 566 c 0,9,10
 365 566 365 566 409.5 551 c 128,-1,11
 454 536 454 536 483 507 c 0,12,13
 515 476 515 476 529.5 429.5 c 128,-1,14
 544 383 544 383 544 322 c 2,15,-1
 544 222 l 1,16,-1
 149 222 l 1,17,-1
 149 70 l 1,18,-1
 702 70 l 1,19,-1
 702 554 l 1,20,-1
 788 554 l 1,0,-1
304 496 m 0,21,22
 223 496 223 496 186 454.5 c 128,-1,23
 149 413 149 413 149 321 c 2,24,-1
 149 292 l 1,25,-1
 458 292 l 1,26,-1
 458 320 l 2,27,28
 458 415 458 415 421 455.5 c 128,-1,29
 384 496 384 496 304 496 c 0,21,22
EndSplineSet
EndChar

StartChar: llamlym
Encoding: 3379 3379 53
Width: 724
GlyphClass: 2
Flags: W
AnchorPoint: "Anchor-3" 278 0 basechar 0
AnchorPoint: "Anchor-0" 362 554 basechar 0
LayerCount: 2
Fore
SplineSet
398 496 m 0,0,1
 340 496 340 496 294 486 c 128,-1,2
 248 476 248 476 213.5 458 c 128,-1,3
 179 440 179 440 156 417.5 c 128,-1,4
 133 395 133 395 122 369 c 0,5,6
 121 365 121 365 122.5 359.5 c 128,-1,7
 124 354 124 354 123 351 c 0,8,9
 120 340 120 340 118.5 330 c 128,-1,10
 117 320 117 320 117 312 c 0,11,12
 117 250 117 250 139.5 216.5 c 128,-1,13
 162 183 162 183 209 183 c 0,14,15
 254 183 254 183 274.5 209 c 128,-1,16
 295 235 295 235 295 270 c 0,17,18
 295 292 295 292 287 310 c 128,-1,19
 279 328 279 328 261 339 c 128,-1,20
 243 350 243 350 214 350 c 0,21,22
 168 350 168 350 138.5 324 c 128,-1,23
 109 298 109 298 89 271 c 1,24,-1
 66 329 l 1,25,26
 82 349 82 349 105.5 369 c 128,-1,27
 129 389 129 389 160 402.5 c 128,-1,28
 191 416 191 416 229 416 c 0,29,30
 281 416 281 416 314 395.5 c 128,-1,31
 347 375 347 375 362.5 342 c 128,-1,32
 378 309 378 309 378 270 c 0,33,34
 378 230 378 230 360 194.5 c 128,-1,35
 342 159 342 159 305 137 c 128,-1,36
 268 115 268 115 210 115 c 0,37,38
 159 115 159 115 120.5 138 c 128,-1,39
 82 161 82 161 61 205.5 c 128,-1,40
 40 250 40 250 40 313 c 0,41,42
 40 367 40 367 63.5 413.5 c 128,-1,43
 87 460 87 460 133 494 c 128,-1,44
 179 528 179 528 246 547 c 128,-1,45
 313 566 313 566 399 566 c 0,46,47
 494 566 494 566 554.5 547.5 c 128,-1,48
 615 529 615 529 644 492.5 c 128,-1,49
 673 456 673 456 673 402 c 0,50,51
 673 368 673 368 659.5 340.5 c 128,-1,52
 646 313 646 313 617 293.5 c 128,-1,53
 588 274 588 274 541 263 c 1,54,-1
 447 279 l 1,55,-1
 447 310 l 1,56,-1
 454 310 l 2,57,58
 489 310 489 310 513 314 c 128,-1,59
 537 318 537 318 554 331 c 0,60,61
 572 345 572 345 579 360 c 128,-1,62
 586 375 586 375 586 396 c 0,63,64
 586 427 586 427 567.5 449 c 128,-1,65
 549 471 549 471 508 483.5 c 128,-1,66
 467 496 467 496 398 496 c 0,0,1
685 144 m 0,67,68
 685 113 685 113 673.5 86.5 c 128,-1,69
 662 60 662 60 641 42 c 0,70,71
 625 28 625 28 604 18.5 c 128,-1,72
 583 9 583 9 552 4.5 c 128,-1,73
 521 0 521 0 473 0 c 2,74,-1
 261 0 l 2,75,76
 220 0 220 0 199 -3 c 128,-1,77
 178 -6 178 -6 166 -13 c 0,78,79
 150 -20 150 -20 143 -33 c 128,-1,80
 136 -46 136 -46 136 -62 c 0,81,82
 136 -77 136 -77 141 -89.5 c 128,-1,83
 146 -102 146 -102 159 -110 c 0,84,85
 172 -119 172 -119 194.5 -124 c 128,-1,86
 217 -129 217 -129 259 -129 c 2,87,-1
 667 -129 l 1,88,-1
 667 -201 l 1,89,-1
 255 -201 l 2,90,91
 203 -201 203 -201 167 -193 c 128,-1,92
 131 -185 131 -185 106 -170 c 0,93,94
 78 -153 78 -153 64 -127 c 128,-1,95
 50 -101 50 -101 50 -68 c 0,96,97
 50 -33 50 -33 62.5 -5.5 c 128,-1,98
 75 22 75 22 103 40 c 0,99,100
 117 50 117 50 135 56.5 c 128,-1,101
 153 63 153 63 178 66.5 c 128,-1,102
 203 70 203 70 238 70 c 2,103,-1
 465 70 l 2,104,105
 506 70 506 70 532.5 75 c 128,-1,106
 559 80 559 80 574 93 c 0,107,108
 586 103 586 103 592 117.5 c 128,-1,109
 598 132 598 132 598 154 c 0,110,111
 598 174 598 174 590 190 c 128,-1,112
 582 206 582 206 565 218 c 0,113,114
 550 228 550 228 527.5 234 c 128,-1,115
 505 240 505 240 466 240 c 2,116,-1
 447 240 l 1,117,-1
 447 293 l 1,118,-1
 552 285 l 1,119,120
 621 272 621 272 653 234 c 128,-1,121
 685 196 685 196 685 144 c 0,67,68
EndSplineSet
EndChar

StartChar: lllamlym
Encoding: 3380 3380 54
Width: 654
GlyphClass: 2
Flags: W
AnchorPoint: "Anchor-3" 256 0 basechar 0
AnchorPoint: "Anchor-0" 327 554 basechar 0
LayerCount: 2
Fore
SplineSet
263 404 m 0,0,1
 263 472 263 472 308 519 c 128,-1,2
 353 566 353 566 441 566 c 0,3,4
 505 566 505 566 543.5 540 c 128,-1,5
 582 514 582 514 599.5 474 c 128,-1,6
 617 434 617 434 617 392 c 0,7,8
 617 325 617 325 584.5 270 c 128,-1,9
 552 215 552 215 492.5 182.5 c 128,-1,10
 433 150 433 150 351 150 c 2,11,-1
 330 150 l 2,12,13
 230 150 230 150 165 183 c 128,-1,14
 100 216 100 216 68.5 273 c 128,-1,15
 37 330 37 330 37 401 c 0,16,17
 37 439 37 439 49 480.5 c 128,-1,18
 61 522 61 522 91 566 c 1,19,-1
 158 529 l 1,20,21
 136 491 136 491 129.5 462 c 128,-1,22
 123 433 123 433 123 404 c 0,23,24
 123 340 123 340 149.5 299 c 128,-1,25
 176 258 176 258 223 238.5 c 128,-1,26
 270 219 270 219 332 219 c 2,27,-1
 351 219 l 2,28,29
 409 219 409 219 449 243 c 128,-1,30
 489 267 489 267 510 307.5 c 128,-1,31
 531 348 531 348 531 397 c 0,32,33
 531 436 531 436 511.5 466.5 c 128,-1,34
 492 497 492 497 439 497 c 0,35,36
 407 497 407 497 386.5 484.5 c 128,-1,37
 366 472 366 472 356.5 451 c 128,-1,38
 347 430 347 430 347 403 c 0,39,40
 347 361 347 361 360.5 327 c 128,-1,41
 374 293 374 293 391 261 c 128,-1,42
 408 229 408 229 421.5 196 c 128,-1,43
 435 163 435 163 435 123 c 0,44,45
 435 94 435 94 422.5 62.5 c 128,-1,46
 410 31 410 31 375 9.5 c 128,-1,47
 340 -12 340 -12 272 -12 c 0,48,49
 235 -12 235 -12 194 -3.5 c 128,-1,50
 153 5 153 5 112 27 c 1,51,-1
 143 94 l 1,52,53
 170 78 170 78 202.5 68.5 c 128,-1,54
 235 59 235 59 271 59 c 0,55,56
 321 59 321 59 336.5 78.5 c 128,-1,57
 352 98 352 98 352 126 c 0,58,59
 352 164 352 164 338.5 195.5 c 128,-1,60
 325 227 325 227 307.5 257.5 c 128,-1,61
 290 288 290 288 276.5 323 c 128,-1,62
 263 358 263 358 263 404 c 0,0,1
EndSplineSet
EndChar

StartChar: vamlym
Encoding: 3381 3381 55
Width: 958
GlyphClass: 2
Flags: W
AnchorPoint: "Anchor-3" 366 0 basechar 0
AnchorPoint: "Anchor-0" 479 554 basechar 0
LayerCount: 2
Fore
SplineSet
341 566 m 0,0,1
 415 566 415 566 470.5 544 c 128,-1,2
 526 522 526 522 562.5 483 c 128,-1,3
 599 444 599 444 617 392 c 128,-1,4
 635 340 635 340 635 281 c 0,5,6
 635 228 635 228 622 187 c 128,-1,7
 609 146 609 146 588 113.5 c 128,-1,8
 567 81 567 81 541 53 c 1,9,-1
 517 70 l 1,10,-1
 801 70 l 1,11,-1
 801 554 l 1,12,-1
 887 554 l 1,13,-1
 887 0 l 1,14,-1
 467 0 l 1,15,-1
 433 59 l 1,16,17
 462 79 462 79 488 108 c 128,-1,18
 514 137 514 137 530 177.5 c 128,-1,19
 546 218 546 218 546 271 c 0,20,21
 546 337 546 337 522 387 c 128,-1,22
 498 437 498 437 451.5 465.5 c 128,-1,23
 405 494 405 494 337 494 c 0,24,25
 271 494 271 494 224.5 464.5 c 128,-1,26
 178 435 178 435 153 385 c 128,-1,27
 128 335 128 335 128 273 c 0,28,29
 128 221 128 221 143 180 c 128,-1,30
 158 139 158 139 185.5 108 c 128,-1,31
 213 77 213 77 250 54 c 1,32,-1
 200 -9 l 1,33,34
 157 16 157 16 120.5 55.5 c 128,-1,35
 84 95 84 95 61.5 150.5 c 128,-1,36
 39 206 39 206 39 277 c 0,37,38
 39 339 39 339 58.5 391.5 c 128,-1,39
 78 444 78 444 116.5 483 c 128,-1,40
 155 522 155 522 211.5 544 c 128,-1,41
 268 566 268 566 341 566 c 0,0,1
EndSplineSet
EndChar

StartChar: shamlym
Encoding: 3382 3382 56
Width: 1040
GlyphClass: 2
Flags: W
AnchorPoint: "Anchor-3" 396 0 basechar 0
AnchorPoint: "Anchor-0" 520 554 basechar 0
LayerCount: 2
Fore
SplineSet
684 566 m 0,0,1
 759 566 759 566 817.5 543 c 128,-1,2
 876 520 876 520 917 477.5 c 128,-1,3
 958 435 958 435 979.5 375.5 c 128,-1,4
 1001 316 1001 316 1001 242 c 0,5,6
 1001 153 1001 153 973 96.5 c 128,-1,7
 945 40 945 40 897 14 c 128,-1,8
 849 -12 849 -12 789 -12 c 0,9,10
 724 -12 724 -12 681 17 c 128,-1,11
 638 46 638 46 616.5 93.5 c 128,-1,12
 595 141 595 141 595 196 c 0,13,14
 595 291 595 291 646 347.5 c 128,-1,15
 697 404 697 404 783 404 c 0,16,17
 839 404 839 404 880.5 375 c 128,-1,18
 922 346 922 346 946 301 c 128,-1,19
 970 256 970 256 973 206 c 1,20,-1
 947 209 l 1,21,22
 940 240 940 240 920.5 268.5 c 128,-1,23
 901 297 901 297 870.5 315.5 c 128,-1,24
 840 334 840 334 800 334 c 0,25,26
 737 334 737 334 708 296.5 c 128,-1,27
 679 259 679 259 679 198 c 0,28,29
 679 156 679 156 690.5 124.5 c 128,-1,30
 702 93 702 93 726 75.5 c 128,-1,31
 750 58 750 58 789 58 c 0,32,33
 830 58 830 58 858.5 77 c 128,-1,34
 887 96 887 96 902.5 138 c 128,-1,35
 918 180 918 180 918 248 c 0,36,37
 918 250 918 250 916.5 270 c 128,-1,38
 915 290 915 290 911 310 c 0,39,40
 910 315 910 315 911.5 323 c 128,-1,41
 913 331 913 331 911 334 c 0,42,43
 900 381 900 381 868.5 417 c 128,-1,44
 837 453 837 453 791 473.5 c 128,-1,45
 745 494 745 494 689 494 c 0,46,47
 646 494 646 494 613.5 485 c 128,-1,48
 581 476 581 476 559 459 c 0,49,50
 522 431 522 431 507 381.5 c 128,-1,51
 492 332 492 332 492 263 c 2,52,-1
 492 246 l 2,53,54
 492 173 492 173 480 128 c 128,-1,55
 468 83 468 83 439 51 c 0,56,57
 413 21 413 21 374 4.5 c 128,-1,58
 335 -12 335 -12 278 -12 c 0,59,60
 205 -12 205 -12 151 20.5 c 128,-1,61
 97 53 97 53 68 115 c 128,-1,62
 39 177 39 177 39 263 c 0,63,64
 39 331 39 331 56.5 384.5 c 128,-1,65
 74 438 74 438 109 482.5 c 128,-1,66
 144 527 144 527 194 566 c 1,67,-1
 248 504 l 1,68,69
 213 480 213 480 185.5 446 c 128,-1,70
 158 412 158 412 142.5 367 c 128,-1,71
 127 322 127 322 127 265 c 0,72,73
 127 203 127 203 145 157 c 128,-1,74
 163 111 163 111 196.5 85.5 c 128,-1,75
 230 60 230 60 274 60 c 0,76,77
 316 60 316 60 339.5 72.5 c 128,-1,78
 363 85 363 85 377 106 c 0,79,80
 394 132 394 132 399 176.5 c 128,-1,81
 404 221 404 221 404 265 c 2,82,-1
 404 280 l 2,83,84
 404 367 404 367 425.5 419.5 c 128,-1,85
 447 472 447 472 488 506 c 0,86,87
 527 538 527 538 575 552 c 128,-1,88
 623 566 623 566 684 566 c 0,0,1
EndSplineSet
EndChar

StartChar: ssamlym
Encoding: 3383 3383 57
Width: 1149
GlyphClass: 2
Flags: W
AnchorPoint: "Anchor-3" 442 0 basechar 0
AnchorPoint: "Anchor-0" 574 554 basechar 0
LayerCount: 2
Fore
SplineSet
229 346 m 0,0,1
 297 346 297 346 340.5 320.5 c 128,-1,2
 384 295 384 295 405.5 255.5 c 128,-1,3
 427 216 427 216 427 173 c 0,4,5
 427 133 427 133 414 102 c 128,-1,6
 401 71 401 71 382 57 c 1,7,-1
 357 70 l 1,8,-1
 677 70 l 1,9,-1
 692 0 l 1,10,-1
 328 0 l 1,11,-1
 299 52 l 1,12,13
 319 72 319 72 331 96.5 c 128,-1,14
 343 121 343 121 343 158 c 0,15,16
 343 212 343 212 314 244 c 128,-1,17
 285 276 285 276 229 276 c 0,18,19
 194 276 194 276 168.5 260.5 c 128,-1,20
 143 245 143 245 129.5 220 c 128,-1,21
 116 195 116 195 116 164 c 0,22,23
 116 130 116 130 130 102 c 128,-1,24
 144 74 144 74 175 51 c 1,25,-1
 129 -7 l 1,26,27
 87 24 87 24 59.5 66.5 c 128,-1,28
 32 109 32 109 32 166 c 0,29,30
 32 219 32 219 56.5 259.5 c 128,-1,31
 81 300 81 300 125.5 323 c 128,-1,32
 170 346 170 346 229 346 c 0,0,1
658 0 m 1,33,-1
 658 381 l 2,34,35
 658 411 658 411 654 435 c 128,-1,36
 650 459 650 459 638 473 c 0,37,38
 630 483 630 483 618 489.5 c 128,-1,39
 606 496 606 496 586 496 c 0,40,41
 555 496 555 496 537 476.5 c 128,-1,42
 519 457 519 457 519 418 c 0,43,44
 519 388 519 388 531.5 362 c 128,-1,45
 544 336 544 336 574.5 320 c 128,-1,46
 605 304 605 304 658 304 c 2,47,-1
 683 304 l 2,48,49
 745 304 745 304 793 326 c 128,-1,50
 841 348 841 348 878 384.5 c 128,-1,51
 915 421 915 421 943.5 465 c 128,-1,52
 972 509 972 509 994 554 c 1,53,-1
 1078 554 l 1,54,-1
 1078 0 l 1,55,-1
 658 0 l 1,33,-1
590 566 m 0,56,57
 623 566 623 566 648.5 558.5 c 128,-1,58
 674 551 674 551 693 536 c 0,59,60
 719 516 719 516 731.5 481.5 c 128,-1,61
 744 447 744 447 744 386 c 2,62,-1
 744 70 l 1,63,-1
 992 70 l 1,64,-1
 992 329 l 2,65,66
 992 346 992 346 992.5 369 c 128,-1,67
 993 392 993 392 994 413 c 128,-1,68
 995 434 995 434 997 445 c 1,69,-1
 999 443 l 1,70,71
 972 378 972 378 925.5 331.5 c 128,-1,72
 879 285 879 285 820 260 c 128,-1,73
 761 235 761 235 696 235 c 2,74,-1
 665 235 l 2,75,76
 584 235 584 235 532.5 259.5 c 128,-1,77
 481 284 481 284 457 325.5 c 128,-1,78
 433 367 433 367 433 417 c 0,79,80
 433 455 433 455 451 489 c 128,-1,81
 469 523 469 523 504 544.5 c 128,-1,82
 539 566 539 566 590 566 c 0,56,57
EndSplineSet
EndChar

StartChar: samlym
Encoding: 3384 3384 58
Width: 1223
GlyphClass: 2
Flags: W
AnchorPoint: "Anchor-3" 563 0 basechar 0
AnchorPoint: "Anchor-0" 611 554 basechar 0
LayerCount: 2
Fore
SplineSet
627 566 m 0,0,1
 671 566 671 566 707 551.5 c 128,-1,2
 743 537 743 537 768 507 c 0,3,4
 782 491 782 491 793.5 469 c 128,-1,5
 805 447 805 447 812 408 c 128,-1,6
 819 369 819 369 819 303 c 2,7,-1
 819 269 l 2,8,9
 819 214 819 214 824.5 173 c 128,-1,10
 830 132 830 132 846 106 c 0,11,12
 860 85 860 85 883 72.5 c 128,-1,13
 906 60 906 60 949 60 c 0,14,15
 994 60 994 60 1027 85.5 c 128,-1,16
 1060 111 1060 111 1078 157.5 c 128,-1,17
 1096 204 1096 204 1096 266 c 0,18,19
 1096 323 1096 323 1080.5 367.5 c 128,-1,20
 1065 412 1065 412 1038 446 c 128,-1,21
 1011 480 1011 480 976 504 c 1,22,-1
 1029 566 l 1,23,24
 1080 527 1080 527 1114.5 482.5 c 128,-1,25
 1149 438 1149 438 1166.5 384.5 c 128,-1,26
 1184 331 1184 331 1184 263 c 0,27,28
 1184 177 1184 177 1155 115 c 128,-1,29
 1126 53 1126 53 1072.5 20.5 c 128,-1,30
 1019 -12 1019 -12 945 -12 c 0,31,32
 888 -12 888 -12 849 4.5 c 128,-1,33
 810 21 810 21 784 51 c 0,34,35
 765 73 765 73 753.5 99.5 c 128,-1,36
 742 126 742 126 737 161.5 c 128,-1,37
 732 197 732 197 732 246 c 2,38,-1
 732 295 l 2,39,40
 732 365 732 365 724.5 402 c 128,-1,41
 717 439 717 439 699 460 c 0,42,43
 686 477 686 477 665.5 485.5 c 128,-1,44
 645 494 645 494 615 494 c 0,45,46
 587 494 587 494 566 484 c 128,-1,47
 545 474 545 474 531 457 c 0,48,49
 514 436 514 436 506 403.5 c 128,-1,50
 498 371 498 371 498 309 c 2,51,-1
 498 0 l 1,52,-1
 412 0 l 1,53,-1
 412 292 l 2,54,55
 412 348 412 348 408 381 c 128,-1,56
 404 414 404 414 390 436 c 0,57,58
 373 465 373 465 346.5 479.5 c 128,-1,59
 320 494 320 494 284 494 c 0,60,61
 238 494 238 494 202.5 467.5 c 128,-1,62
 167 441 167 441 147 395.5 c 128,-1,63
 127 350 127 350 127 292 c 0,64,65
 127 232 127 232 143.5 187 c 128,-1,66
 160 142 160 142 187 110 c 128,-1,67
 214 78 214 78 247 55 c 1,68,-1
 189 -8 l 1,69,70
 146 27 146 27 112 68.5 c 128,-1,71
 78 110 78 110 58.5 164.5 c 128,-1,72
 39 219 39 219 39 292 c 0,73,74
 39 368 39 368 68 430 c 128,-1,75
 97 492 97 492 152.5 529 c 128,-1,76
 208 566 208 566 288 566 c 0,77,78
 353 566 353 566 392 540.5 c 128,-1,79
 431 515 431 515 459 472 c 1,80,-1
 454 473 l 1,81,82
 482 520 482 520 525 543 c 128,-1,83
 568 566 568 566 627 566 c 0,0,1
EndSplineSet
EndChar

StartChar: hamlym
Encoding: 3385 3385 59
Width: 1190
GlyphClass: 2
Flags: W
AnchorPoint: "Anchor-3" 452 0 basechar 0
AnchorPoint: "Anchor-0" 595 554 basechar 0
LayerCount: 2
Fore
SplineSet
229 346 m 0,0,1
 297 346 297 346 340.5 320.5 c 128,-1,2
 384 295 384 295 405.5 255.5 c 128,-1,3
 427 216 427 216 427 173 c 0,4,5
 427 133 427 133 414 102 c 128,-1,6
 401 71 401 71 382 57 c 1,7,-1
 357 70 l 1,8,-1
 676 70 l 1,9,-1
 691 0 l 1,10,-1
 328 0 l 1,11,-1
 299 52 l 1,12,13
 319 72 319 72 331 96.5 c 128,-1,14
 343 121 343 121 343 158 c 0,15,16
 343 212 343 212 314 244 c 128,-1,17
 285 276 285 276 229 276 c 0,18,19
 194 276 194 276 168.5 260.5 c 128,-1,20
 143 245 143 245 129.5 220 c 128,-1,21
 116 195 116 195 116 164 c 0,22,23
 116 130 116 130 130 102 c 128,-1,24
 144 74 144 74 175 51 c 1,25,-1
 129 -7 l 1,26,27
 87 24 87 24 59.5 66.5 c 128,-1,28
 32 109 32 109 32 166 c 0,29,30
 32 219 32 219 56.5 259.5 c 128,-1,31
 81 300 81 300 125.5 323 c 128,-1,32
 170 346 170 346 229 346 c 0,0,1
856 566 m 0,33,34
 931 566 931 566 986.5 544 c 128,-1,35
 1042 522 1042 522 1078.5 483 c 128,-1,36
 1115 444 1115 444 1133 392 c 128,-1,37
 1151 340 1151 340 1151 281 c 0,38,39
 1151 211 1151 211 1130 156.5 c 128,-1,40
 1109 102 1109 102 1073 61 c 128,-1,41
 1037 20 1037 20 990 -9 c 1,42,-1
 940 54 l 1,43,44
 973 74 973 74 1001 104 c 128,-1,45
 1029 134 1029 134 1045.5 176 c 128,-1,46
 1062 218 1062 218 1062 271 c 0,47,48
 1062 337 1062 337 1037.5 387 c 128,-1,49
 1013 437 1013 437 967 465.5 c 128,-1,50
 921 494 921 494 854 494 c 0,51,52
 788 494 788 494 741 464.5 c 128,-1,53
 694 435 694 435 669 385 c 128,-1,54
 644 335 644 335 644 273 c 0,55,56
 644 222 644 222 657.5 183 c 128,-1,57
 671 144 671 144 696.5 113.5 c 128,-1,58
 722 83 722 83 757 59 c 1,59,-1
 719 0 l 1,60,-1
 686 0 l 1,61,-1
 638 64 l 2,62,63
 617 89 617 89 598 120 c 128,-1,64
 579 151 579 151 567 190.5 c 128,-1,65
 555 230 555 230 555 278 c 0,66,67
 555 339 555 339 574.5 391.5 c 128,-1,68
 594 444 594 444 632.5 483 c 128,-1,69
 671 522 671 522 727 544 c 128,-1,70
 783 566 783 566 856 566 c 0,33,34
EndSplineSet
EndChar

StartChar: tttamlym
Encoding: 3386 3386 60
Width: 773
GlyphClass: 2
Flags: W
AnchorPoint: "Anchor-3" 288 0 basechar 0
AnchorPoint: "Anchor-0" 386 554 basechar 0
LayerCount: 2
Fore
SplineSet
756 70 m 1,0,-1
 756 0 l 1,1,-1
 476 0 l 1,2,-1
 476 -202 l 1,3,-1
 388 -202 l 1,4,-1
 388 0 l 1,5,-1
 65 0 l 1,6,-1
 21 49 l 1,7,-1
 214 559 l 1,8,-1
 294 534 l 1,9,-1
 118 70 l 1,10,-1
 756 70 l 1,0,-1
EndSplineSet
EndChar

StartChar: uni0D3B
Encoding: 3387 3387 61
Width: 0
GlyphClass: 4
Flags: W
AnchorPoint: "Anchor-2" 0 554 basemark 0
AnchorPoint: "Anchor-1" -314 714 mark 0
LayerCount: 2
Fore
SplineSet
-314 864 m 1,0,-1
 -242 864 l 1,1,-1
 -242 586 l 1,2,-1
 -314 586 l 1,3,-1
 -314 864 l 1,0,-1
EndSplineSet
EndChar

StartChar: uni0D3C
Encoding: 3388 3388 62
Width: 0
GlyphClass: 4
Flags: W
AnchorPoint: "Anchor-1" -245 723 mark 0
LayerCount: 2
Fore
SplineSet
-246 721 m 256,0,1
 -246 776 -246 776 -209 813.5 c 128,-1,2
 -172 851 -172 851 -111 851 c 0,3,4
 -49 851 -49 851 -12 814 c 128,-1,5
 25 777 25 777 25 721 c 0,6,7
 25 666 25 666 -12 628.5 c 128,-1,8
 -49 591 -49 591 -111 591 c 256,9,10
 -173 591 -173 591 -209.5 628.5 c 128,-1,11
 -246 666 -246 666 -246 721 c 256,0,1
-175 722 m 0,12,13
 -175 694 -175 694 -158.5 675 c 128,-1,14
 -142 656 -142 656 -111 656 c 0,15,16
 -79 656 -79 656 -62.5 675 c 128,-1,17
 -46 694 -46 694 -46 722 c 0,18,19
 -46 749 -46 749 -62.5 767.5 c 128,-1,20
 -79 786 -79 786 -111 786 c 0,21,22
 -142 786 -142 786 -158.5 767.5 c 128,-1,23
 -175 749 -175 749 -175 722 c 0,12,13
EndSplineSet
EndChar

StartChar: avagrahamlym
Encoding: 3389 3389 63
Width: 466
GlyphClass: 2
Flags: W
AnchorPoint: "Anchor-0" 233 554 basechar 0
LayerCount: 2
Fore
SplineSet
378 792 m 0,0,1
 428 792 428 792 463 773 c 128,-1,2
 498 754 498 754 520.5 721 c 128,-1,3
 543 688 543 688 553 646 c 1,4,-1
 466 629 l 1,5,6
 459 655 459 655 448 676 c 128,-1,7
 437 697 437 697 420.5 709.5 c 128,-1,8
 404 722 404 722 377 722 c 0,9,10
 352 722 352 722 333.5 712.5 c 128,-1,11
 315 703 315 703 303 685 c 0,12,13
 290 665 290 665 283.5 631.5 c 128,-1,14
 277 598 277 598 277 535 c 2,15,-1
 277 5 l 2,16,17
 277 -56 277 -56 266.5 -104.5 c 128,-1,18
 256 -153 256 -153 227 -188 c 0,19,20
 205 -215 205 -215 171 -229.5 c 128,-1,21
 137 -244 137 -244 87 -244 c 0,22,23
 38 -244 38 -244 3 -224.5 c 128,-1,24
 -32 -205 -32 -205 -54 -171.5 c 128,-1,25
 -76 -138 -76 -138 -87 -97 c 1,26,-1
 0 -81 l 1,27,28
 8 -107 8 -107 18.5 -128 c 128,-1,29
 29 -149 29 -149 45.5 -161.5 c 128,-1,30
 62 -174 62 -174 89 -174 c 0,31,32
 115 -174 115 -174 133 -164.5 c 128,-1,33
 151 -155 151 -155 163 -137 c 0,34,35
 177 -117 177 -117 182.5 -86.5 c 128,-1,36
 188 -56 188 -56 188 0 c 2,37,-1
 188 529 l 2,38,39
 188 609 188 609 198 654 c 128,-1,40
 208 699 208 699 236 733 c 0,41,42
 257 759 257 759 293.5 775.5 c 128,-1,43
 330 792 330 792 378 792 c 0,0,1
EndSplineSet
EndChar

StartChar: aavowelsignmlym
Encoding: 3390 3390 64
Width: 504
GlyphClass: 4
Flags: W
LayerCount: 2
Fore
SplineSet
463 279 m 0,0,1
 463 221 463 221 451.5 169 c 128,-1,2
 440 117 440 117 413 76 c 128,-1,3
 386 35 386 35 341.5 11.5 c 128,-1,4
 297 -12 297 -12 231 -12 c 0,5,6
 180 -12 180 -12 142.5 4.5 c 128,-1,7
 105 21 105 21 79.5 48 c 128,-1,8
 54 75 54 75 39 107 c 128,-1,9
 24 139 24 139 17 169 c 1,10,-1
 104 186 l 1,11,12
 111 159 111 159 124.5 129 c 128,-1,13
 138 99 138 99 163.5 78.5 c 128,-1,14
 189 58 189 58 230 58 c 0,15,16
 283 58 283 58 314.5 86 c 128,-1,17
 346 114 346 114 360.5 163.5 c 128,-1,18
 375 213 375 213 375 278 c 256,19,20
 375 343 375 343 360.5 392 c 128,-1,21
 346 441 346 441 315 468.5 c 128,-1,22
 284 496 284 496 235 496 c 0,23,24
 196 496 196 496 170 475.5 c 128,-1,25
 144 455 144 455 129 426 c 128,-1,26
 114 397 114 397 107 370 c 1,27,-1
 21 387 l 1,28,29
 30 419 30 419 46.5 450.5 c 128,-1,30
 63 482 63 482 89 508 c 128,-1,31
 115 534 115 534 152.5 550 c 128,-1,32
 190 566 190 566 241 566 c 0,33,34
 303 566 303 566 345.5 542.5 c 128,-1,35
 388 519 388 519 414 478.5 c 128,-1,36
 440 438 440 438 451.5 386.5 c 128,-1,37
 463 335 463 335 463 279 c 0,0,1
EndSplineSet
Substitution2: "Single Substitution lookup 7 subtable" candrabindu_1CDAmlym
Substitution2: "Single Substitution lookup 6 subtable" candrabindu_0952mlym
Substitution2: "Single Substitution lookup 5 subtable" candrabindu_0951mlym
Substitution2: "Single Substitution lookup 4 subtable" uni0D00
Substitution2: "Single Substitution lookup 3 subtable" uni1CDA
Substitution2: "Single Substitution lookup 2 subtable" uni0952
Substitution2: "Single Substitution lookup 1 subtable" uni0951
Substitution2: "Single Substitution lookup 0 subtable" candrabindumlym
EndChar

StartChar: ivowelsignmlym
Encoding: 3391 3391 65
Width: 228
GlyphClass: 4
Flags: W
LayerCount: 2
Fore
SplineSet
-34 843 m 0,0,1
 4 843 4 843 32.5 835 c 128,-1,2
 61 827 61 827 83 810 c 0,3,4
 111 789 111 789 127 760.5 c 128,-1,5
 143 732 143 732 150 686.5 c 128,-1,6
 157 641 157 641 157 567 c 2,7,-1
 157 0 l 1,8,-1
 71 0 l 1,9,-1
 71 542 l 2,10,11
 71 594 71 594 68.5 632 c 128,-1,12
 66 670 66 670 59.5 696.5 c 128,-1,13
 53 723 53 723 41 739 c 256,14,15
 29 755 29 755 11.5 764 c 128,-1,16
 -6 773 -6 773 -32 773 c 0,17,18
 -54 773 -54 773 -75.5 763.5 c 128,-1,19
 -97 754 -97 754 -111 733.5 c 128,-1,20
 -125 713 -125 713 -125 678 c 0,21,22
 -125 669 -125 669 -123.5 659.5 c 128,-1,23
 -122 650 -122 650 -121 641 c 1,24,-1
 -205 626 l 1,25,26
 -207 638 -207 638 -209 650.5 c 128,-1,27
 -211 663 -211 663 -211 674 c 0,28,29
 -211 731 -211 731 -186.5 768.5 c 128,-1,30
 -162 806 -162 806 -121.5 824.5 c 128,-1,31
 -81 843 -81 843 -34 843 c 0,0,1
EndSplineSet
Substitution2: "Single Substitution lookup 33 subtable" ivowelsignaltmlym
Substitution2: "Single Substitution lookup 32 subtable" ivowelsignalt2mlym
Substitution2: "Single Substitution lookup 7 subtable" candrabindu_1CDAmlym
Substitution2: "Single Substitution lookup 6 subtable" candrabindu_0952mlym
Substitution2: "Single Substitution lookup 5 subtable" candrabindu_0951mlym
Substitution2: "Single Substitution lookup 4 subtable" uni0D00
Substitution2: "Single Substitution lookup 3 subtable" uni1CDA
Substitution2: "Single Substitution lookup 2 subtable" uni0952
Substitution2: "Single Substitution lookup 1 subtable" uni0951
Substitution2: "Single Substitution lookup 0 subtable" candrabindumlym
EndChar

StartChar: iivowelsignmlym
Encoding: 3392 3392 66
Width: 228
GlyphClass: 4
Flags: W
LayerCount: 2
Fore
SplineSet
-109 843 m 0,0,1
 -67 843 -67 843 -23.5 835 c 128,-1,2
 20 827 20 827 59 803 c 0,3,4
 116 768 116 768 136.5 706 c 128,-1,5
 157 644 157 644 157 542 c 2,6,-1
 157 0 l 1,7,-1
 71 0 l 1,8,-1
 71 525 l 2,9,10
 71 565 71 565 69.5 596 c 128,-1,11
 68 627 68 627 63.5 652 c 128,-1,12
 59 677 59 677 50 696 c 0,13,14
 28 746 28 746 -12.5 762.5 c 128,-1,15
 -53 779 -53 779 -117 779 c 0,16,17
 -141 779 -141 779 -162 770.5 c 128,-1,18
 -183 762 -183 762 -196 746 c 128,-1,19
 -209 730 -209 730 -209 706 c 256,20,21
 -209 682 -209 682 -194 663.5 c 128,-1,22
 -179 645 -179 645 -145 645 c 0,23,24
 -107 645 -107 645 -92 665.5 c 128,-1,25
 -77 686 -77 686 -77 711 c 0,26,27
 -77 734 -77 734 -87 755.5 c 128,-1,28
 -97 777 -97 777 -116 790 c 1,29,-1
 -24 770 l 1,30,31
 -16 760 -16 760 -11.5 743 c 128,-1,32
 -7 726 -7 726 -7 706 c 0,33,34
 -7 672 -7 672 -20.5 643 c 128,-1,35
 -34 614 -34 614 -65 596 c 128,-1,36
 -96 578 -96 578 -149 578 c 0,37,38
 -185 578 -185 578 -216.5 593 c 128,-1,39
 -248 608 -248 608 -267.5 637 c 128,-1,40
 -287 666 -287 666 -287 708 c 0,41,42
 -287 747 -287 747 -266 777.5 c 128,-1,43
 -245 808 -245 808 -205 825.5 c 128,-1,44
 -165 843 -165 843 -109 843 c 0,0,1
EndSplineSet
Substitution2: "Single Substitution lookup 33 subtable" iivowelsignaltmlym
Substitution2: "Single Substitution lookup 32 subtable" iivowelsignalt2mlym
Substitution2: "Single Substitution lookup 7 subtable" candrabindu_1CDAmlym
Substitution2: "Single Substitution lookup 6 subtable" candrabindu_0952mlym
Substitution2: "Single Substitution lookup 5 subtable" candrabindu_0951mlym
Substitution2: "Single Substitution lookup 4 subtable" uni0D00
Substitution2: "Single Substitution lookup 3 subtable" uni1CDA
Substitution2: "Single Substitution lookup 2 subtable" uni0952
Substitution2: "Single Substitution lookup 1 subtable" uni0951
Substitution2: "Single Substitution lookup 0 subtable" candrabindumlym
EndChar

StartChar: uvowelsignmlym
Encoding: 3393 3393 67
Width: 332
GlyphClass: 4
Flags: W
LayerCount: 2
Fore
SplineSet
155 -227 m 0,0,1
 71 -227 71 -227 22.5 -178.5 c 128,-1,2
 -26 -130 -26 -130 -26 -53 c 0,3,4
 -26 -2 -26 -2 -3 37 c 128,-1,5
 20 76 20 76 61 98 c 128,-1,6
 102 120 102 120 154 120 c 0,7,8
 208 120 208 120 248.5 99 c 128,-1,9
 289 78 289 78 312 39.5 c 128,-1,10
 335 1 335 1 335 -53 c 0,11,12
 335 -106 335 -106 312 -145 c 128,-1,13
 289 -184 289 -184 248.5 -205.5 c 128,-1,14
 208 -227 208 -227 155 -227 c 0,0,1
155 -161 m 0,15,16
 196 -161 196 -161 224.5 -134 c 128,-1,17
 253 -107 253 -107 253 -53 c 0,18,19
 253 0 253 0 225 27 c 128,-1,20
 197 54 197 54 154 54 c 0,21,22
 112 54 112 54 84 27 c 128,-1,23
 56 0 56 0 56 -54 c 0,24,25
 56 -106 56 -106 84.5 -133.5 c 128,-1,26
 113 -161 113 -161 155 -161 c 0,15,16
104 566 m 0,27,28
 164 566 164 566 198.5 543.5 c 128,-1,29
 233 521 233 521 247.5 483 c 128,-1,30
 262 445 262 445 262 400 c 0,31,32
 262 339 262 339 244.5 255.5 c 128,-1,33
 227 172 227 172 199 84 c 1,34,-1
 119 99 l 1,35,36
 144 185 144 185 159 257.5 c 128,-1,37
 174 330 174 330 174 395 c 0,38,39
 174 437 174 437 157.5 465.5 c 128,-1,40
 141 494 141 494 94 494 c 0,41,42
 78 494 78 494 61.5 491.5 c 128,-1,43
 45 489 45 489 34 486 c 1,44,-1
 17 555 l 1,45,46
 33 560 33 560 56 563 c 128,-1,47
 79 566 79 566 104 566 c 0,27,28
EndSplineSet
Substitution2: "Single Substitution lookup 33 subtable" uvowelsignaltmlym
Substitution2: "Single Substitution lookup 7 subtable" candrabindu_1CDAmlym
Substitution2: "Single Substitution lookup 6 subtable" candrabindu_0952mlym
Substitution2: "Single Substitution lookup 5 subtable" candrabindu_0951mlym
Substitution2: "Single Substitution lookup 4 subtable" uni0D00
Substitution2: "Single Substitution lookup 3 subtable" uni1CDA
Substitution2: "Single Substitution lookup 2 subtable" uni0952
Substitution2: "Single Substitution lookup 1 subtable" uni0951
Substitution2: "Single Substitution lookup 0 subtable" candrabindumlym
EndChar

StartChar: uuvowelsignmlym
Encoding: 3394 3394 68
Width: 332
GlyphClass: 4
Flags: W
LayerCount: 2
Fore
SplineSet
154 -227 m 0,0,1
 70 -227 70 -227 22 -178.5 c 128,-1,2
 -26 -130 -26 -130 -26 -53 c 0,3,4
 -26 -2 -26 -2 -3 37 c 128,-1,5
 20 76 20 76 60.5 98 c 128,-1,6
 101 120 101 120 154 120 c 256,7,8
 207 120 207 120 248 99 c 128,-1,9
 289 78 289 78 312 39.5 c 128,-1,10
 335 1 335 1 335 -53 c 0,11,12
 335 -106 335 -106 312 -145 c 128,-1,13
 289 -184 289 -184 248 -205.5 c 128,-1,14
 207 -227 207 -227 154 -227 c 0,0,1
153 57 m 0,15,16
 106 57 106 57 73 29.5 c 128,-1,17
 40 2 40 2 40 -54 c 0,18,19
 40 -109 40 -109 72.5 -136.5 c 128,-1,20
 105 -164 105 -164 154 -164 c 0,21,22
 201 -164 201 -164 234.5 -136 c 128,-1,23
 268 -108 268 -108 268 -53 c 256,24,25
 268 2 268 2 234.5 29.5 c 128,-1,26
 201 57 201 57 153 57 c 0,15,16
154 -98 m 0,27,28
 97 -98 97 -98 69 -65.5 c 128,-1,29
 41 -33 41 -33 41 19 c 0,30,31
 41 36 41 36 51.5 55 c 128,-1,32
 62 74 62 74 81 97 c 1,33,-1
 124 68 l 1,34,35
 106 61 106 61 98 47 c 128,-1,36
 90 33 90 33 90 21 c 0,37,38
 90 5 90 5 97.5 -6.5 c 128,-1,39
 105 -18 105 -18 119.5 -24 c 128,-1,40
 134 -30 134 -30 155 -30 c 0,41,42
 174 -30 174 -30 187.5 -24 c 128,-1,43
 201 -18 201 -18 209 -6.5 c 128,-1,44
 217 5 217 5 217 21 c 0,45,46
 217 31 217 31 209.5 43 c 128,-1,47
 202 55 202 55 185 63 c 1,48,-1
 228 97 l 1,49,50
 249 73 249 73 259 56.5 c 128,-1,51
 269 40 269 40 269 18 c 0,52,53
 269 -11 269 -11 258 -37.5 c 128,-1,54
 247 -64 247 -64 222 -81 c 128,-1,55
 197 -98 197 -98 154 -98 c 0,27,28
104 566 m 0,56,57
 164 566 164 566 198.5 543.5 c 128,-1,58
 233 521 233 521 247.5 483 c 128,-1,59
 262 445 262 445 262 400 c 0,60,61
 262 339 262 339 244.5 255.5 c 128,-1,62
 227 172 227 172 199 84 c 1,63,-1
 119 99 l 1,64,65
 144 185 144 185 159 257.5 c 128,-1,66
 174 330 174 330 174 395 c 0,67,68
 174 437 174 437 157.5 465.5 c 128,-1,69
 141 494 141 494 94 494 c 0,70,71
 78 494 78 494 61.5 491.5 c 128,-1,72
 45 489 45 489 34 486 c 1,73,-1
 17 555 l 1,74,75
 33 560 33 560 56 563 c 128,-1,76
 79 566 79 566 104 566 c 0,56,57
EndSplineSet
Substitution2: "Single Substitution lookup 33 subtable" uuvowelsignaltmlym
Substitution2: "Single Substitution lookup 7 subtable" candrabindu_1CDAmlym
Substitution2: "Single Substitution lookup 6 subtable" candrabindu_0952mlym
Substitution2: "Single Substitution lookup 5 subtable" candrabindu_0951mlym
Substitution2: "Single Substitution lookup 4 subtable" uni0D00
Substitution2: "Single Substitution lookup 3 subtable" uni1CDA
Substitution2: "Single Substitution lookup 2 subtable" uni0952
Substitution2: "Single Substitution lookup 1 subtable" uni0951
Substitution2: "Single Substitution lookup 0 subtable" candrabindumlym
EndChar

StartChar: rvocalicvowelsignmlym
Encoding: 3395 3395 69
Width: 243
GlyphClass: 4
Flags: W
LayerCount: 2
Fore
SplineSet
31 -316 m 0,0,1
 -17 -316 -17 -316 -56.5 -299 c 128,-1,2
 -96 -282 -96 -282 -120 -249 c 128,-1,3
 -144 -216 -144 -216 -144 -169 c 0,4,5
 -144 -104 -144 -104 -98 -66.5 c 128,-1,6
 -52 -29 -52 -29 21 -29 c 0,7,8
 68 -29 68 -29 111.5 -46 c 128,-1,9
 155 -63 155 -63 198 -104 c 1,10,-1
 175 -164 l 1,11,12
 139 -129 139 -129 103 -114 c 128,-1,13
 67 -99 67 -99 27 -99 c 0,14,15
 -12 -99 -12 -99 -36.5 -117 c 128,-1,16
 -61 -135 -61 -135 -61 -173 c 0,17,18
 -61 -209 -61 -209 -36 -227.5 c 128,-1,19
 -11 -246 -11 -246 32 -246 c 0,20,21
 68 -246 68 -246 95.5 -233.5 c 128,-1,22
 123 -221 123 -221 138.5 -194 c 128,-1,23
 154 -167 154 -167 154 -124 c 0,24,25
 154 -87 154 -87 145 -50.5 c 128,-1,26
 136 -14 136 -14 122.5 21.5 c 128,-1,27
 109 57 109 57 96 88 c 0,28,29
 76 137 76 137 60.5 188 c 128,-1,30
 45 239 45 239 45 300 c 0,31,32
 45 365 45 365 66.5 432 c 128,-1,33
 88 499 88 499 119 554 c 1,34,-1
 210 554 l 1,35,36
 183 507 183 507 166 466 c 128,-1,37
 149 425 149 425 141 386 c 128,-1,38
 133 347 133 347 133 305 c 0,39,40
 133 247 133 247 147.5 199.5 c 128,-1,41
 162 152 162 152 180 106 c 0,42,43
 196 67 196 67 209 30 c 128,-1,44
 222 -7 222 -7 229.5 -44 c 128,-1,45
 237 -81 237 -81 237 -122 c 0,46,47
 237 -190 237 -190 208 -233 c 128,-1,48
 179 -276 179 -276 132 -296 c 128,-1,49
 85 -316 85 -316 31 -316 c 0,0,1
EndSplineSet
Substitution2: "Single Substitution lookup 33 subtable" rvocalicvowelsignaltmlym
Substitution2: "Single Substitution lookup 7 subtable" candrabindu_1CDAmlym
Substitution2: "Single Substitution lookup 6 subtable" candrabindu_0952mlym
Substitution2: "Single Substitution lookup 5 subtable" candrabindu_0951mlym
Substitution2: "Single Substitution lookup 4 subtable" uni0D00
Substitution2: "Single Substitution lookup 3 subtable" uni1CDA
Substitution2: "Single Substitution lookup 2 subtable" uni0952
Substitution2: "Single Substitution lookup 1 subtable" uni0951
Substitution2: "Single Substitution lookup 0 subtable" candrabindumlym
EndChar

StartChar: rrvocalicvowelsignmlym
Encoding: 3396 3396 70
Width: 243
GlyphClass: 4
Flags: W
LayerCount: 2
Fore
SplineSet
-19 -316 m 0,0,1
 -94 -316 -94 -316 -149 -299 c 128,-1,2
 -204 -282 -204 -282 -234 -246 c 128,-1,3
 -264 -210 -264 -210 -264 -153 c 0,4,5
 -264 -102 -264 -102 -231.5 -69.5 c 128,-1,6
 -199 -37 -199 -37 -146 -37 c 0,7,8
 -112 -37 -112 -37 -90.5 -50.5 c 128,-1,9
 -69 -64 -69 -64 -58 -87 c 1,10,-1
 -64 -86 l 1,11,12
 -50 -62 -50 -62 -29 -49.5 c 128,-1,13
 -8 -37 -8 -37 24 -37 c 0,14,15
 58 -37 58 -37 78.5 -49 c 128,-1,16
 99 -61 99 -61 109.5 -79 c 128,-1,17
 120 -97 120 -97 123.5 -116.5 c 128,-1,18
 127 -136 127 -136 127 -151 c 2,19,-1
 127 -176 l 1,20,-1
 59 -176 l 1,21,-1
 59 -166 l 2,22,23
 59 -132 59 -132 50 -117 c 128,-1,24
 41 -102 41 -102 17 -102 c 0,25,26
 -11 -102 -11 -102 -19 -119.5 c 128,-1,27
 -27 -137 -27 -137 -27 -165 c 2,28,-1
 -27 -176 l 1,29,-1
 -96 -176 l 1,30,-1
 -96 -166 l 2,31,32
 -96 -135 -96 -135 -104 -118.5 c 128,-1,33
 -112 -102 -112 -102 -139 -102 c 0,34,35
 -161 -102 -161 -102 -173.5 -116 c 128,-1,36
 -186 -130 -186 -130 -186 -156 c 0,37,38
 -186 -205 -186 -205 -142 -225.5 c 128,-1,39
 -98 -246 -98 -246 -18 -246 c 0,40,41
 56 -246 56 -246 103.5 -217.5 c 128,-1,42
 151 -189 151 -189 151 -125 c 0,43,44
 151 -89 151 -89 142.5 -52.5 c 128,-1,45
 134 -16 134 -16 121 20 c 128,-1,46
 108 56 108 56 95 87 c 0,47,48
 75 136 75 136 60 188 c 128,-1,49
 45 240 45 240 45 300 c 0,50,51
 45 365 45 365 66.5 432 c 128,-1,52
 88 499 88 499 119 554 c 1,53,-1
 210 554 l 1,54,55
 183 507 183 507 166 466 c 128,-1,56
 149 425 149 425 141 386 c 128,-1,57
 133 347 133 347 133 305 c 0,58,59
 133 247 133 247 147 200 c 128,-1,60
 161 153 161 153 180 107 c 0,61,62
 196 68 196 68 209 30 c 128,-1,63
 222 -8 222 -8 229.5 -45.5 c 128,-1,64
 237 -83 237 -83 237 -122 c 0,65,66
 237 -190 237 -190 202.5 -233 c 128,-1,67
 168 -276 168 -276 110 -296 c 128,-1,68
 52 -316 52 -316 -19 -316 c 0,0,1
EndSplineSet
Substitution2: "Single Substitution lookup 33 subtable" rrvocalicvowelsignaltmlym
Substitution2: "Single Substitution lookup 7 subtable" candrabindu_1CDAmlym
Substitution2: "Single Substitution lookup 6 subtable" candrabindu_0952mlym
Substitution2: "Single Substitution lookup 5 subtable" candrabindu_0951mlym
Substitution2: "Single Substitution lookup 4 subtable" uni0D00
Substitution2: "Single Substitution lookup 3 subtable" uni1CDA
Substitution2: "Single Substitution lookup 2 subtable" uni0952
Substitution2: "Single Substitution lookup 1 subtable" uni0951
Substitution2: "Single Substitution lookup 0 subtable" candrabindumlym
EndChar

StartChar: evowelsignmlym
Encoding: 3398 3398 71
Width: 715
GlyphClass: 4
Flags: W
LayerCount: 2
Fore
SplineSet
237 -12 m 256,0,1
 185 -12 185 -12 139.5 14 c 128,-1,2
 94 40 94 40 66.5 94.5 c 128,-1,3
 39 149 39 149 39 232 c 0,4,5
 39 310 39 310 64.5 372 c 128,-1,6
 90 434 90 434 135.5 477 c 128,-1,7
 181 520 181 520 242 543 c 128,-1,8
 303 566 303 566 374 566 c 0,9,10
 452 566 452 566 509 544 c 128,-1,11
 566 522 566 522 603 483 c 128,-1,12
 640 444 640 444 658 392 c 128,-1,13
 676 340 676 340 676 281 c 0,14,15
 676 211 676 211 655 156.5 c 128,-1,16
 634 102 634 102 598 61 c 128,-1,17
 562 20 562 20 515 -9 c 1,18,-1
 466 54 l 1,19,20
 499 74 499 74 526.5 104 c 128,-1,21
 554 134 554 134 570.5 176 c 128,-1,22
 587 218 587 218 587 271 c 0,23,24
 587 339 587 339 562 389 c 128,-1,25
 537 439 537 439 488.5 466.5 c 128,-1,26
 440 494 440 494 370 494 c 0,27,28
 298 494 298 494 241.5 459.5 c 128,-1,29
 185 425 185 425 152.5 365 c 128,-1,30
 120 305 120 305 120 228 c 0,31,32
 120 171 120 171 135 133 c 128,-1,33
 150 95 150 95 177 76.5 c 128,-1,34
 204 58 204 58 240 58 c 0,35,36
 265 58 265 58 284 69.5 c 128,-1,37
 303 81 303 81 314 103.5 c 128,-1,38
 325 126 325 126 325 158 c 0,39,40
 325 206 325 206 298.5 232 c 128,-1,41
 272 258 272 258 231 258 c 0,42,43
 192 258 192 258 157 238.5 c 128,-1,44
 122 219 122 219 93 187 c 1,45,-1
 77 248 l 1,46,47
 107 284 107 284 151.5 306 c 128,-1,48
 196 328 196 328 245 328 c 256,49,50
 294 328 294 328 330.5 309 c 128,-1,51
 367 290 367 290 387.5 253.5 c 128,-1,52
 408 217 408 217 408 165 c 0,53,54
 408 110 408 110 387 70 c 128,-1,55
 366 30 366 30 327.5 9 c 128,-1,56
 289 -12 289 -12 237 -12 c 256,0,1
EndSplineSet
EndChar

StartChar: eevowelsignmlym
Encoding: 3399 3399 72
Width: 595
GlyphClass: 4
Flags: W
LayerCount: 2
Fore
SplineSet
364 -12 m 256,0,1
 300 -12 300 -12 241.5 5 c 128,-1,2
 183 22 183 22 137.5 57.5 c 128,-1,3
 92 93 92 93 65.5 148.5 c 128,-1,4
 39 204 39 204 39 281 c 0,5,6
 39 355 39 355 66 409 c 128,-1,7
 93 463 93 463 139.5 498 c 128,-1,8
 186 533 186 533 244.5 549.5 c 128,-1,9
 303 566 303 566 366 566 c 0,10,11
 432 566 432 566 474.5 548.5 c 128,-1,12
 517 531 517 531 537.5 500.5 c 128,-1,13
 558 470 558 470 558 431 c 0,14,15
 558 388 558 388 539 359 c 128,-1,16
 520 330 520 330 488.5 315 c 128,-1,17
 457 300 457 300 421 300 c 0,18,19
 368 300 368 300 336 318.5 c 128,-1,20
 304 337 304 337 290.5 367.5 c 128,-1,21
 277 398 277 398 277 432 c 0,22,23
 277 452 277 452 282.5 469 c 128,-1,24
 288 486 288 486 294 498 c 1,25,-1
 387 517 l 1,26,27
 368 503 368 503 358 480 c 128,-1,28
 348 457 348 457 348 434 c 0,29,30
 348 412 348 412 363.5 388.5 c 128,-1,31
 379 365 379 365 417 365 c 0,32,33
 450 365 450 365 465 384.5 c 128,-1,34
 480 404 480 404 480 429 c 0,35,36
 480 467 480 467 452.5 485 c 128,-1,37
 425 503 425 503 389 503 c 0,38,39
 375 503 375 503 362 503 c 128,-1,40
 349 503 349 503 335 501 c 0,41,42
 270 496 270 496 223.5 468 c 128,-1,43
 177 440 177 440 152.5 392.5 c 128,-1,44
 128 345 128 345 128 280 c 0,45,46
 128 217 128 217 153 167 c 128,-1,47
 178 117 178 117 224 87.5 c 128,-1,48
 270 58 270 58 332 54 c 0,49,50
 344 53 344 53 356.5 52 c 128,-1,51
 369 51 369 51 380 51 c 0,52,53
 406 51 406 51 427.5 59 c 128,-1,54
 449 67 449 67 462 84 c 128,-1,55
 475 101 475 101 475 127 c 0,56,57
 475 152 475 152 460 171 c 128,-1,58
 445 190 445 190 411 190 c 0,59,60
 373 190 373 190 357.5 167 c 128,-1,61
 342 144 342 144 342 121 c 0,62,63
 342 97 342 97 352 75 c 128,-1,64
 362 53 362 53 381 39 c 1,65,-1
 289 58 l 1,66,67
 282 69 282 69 276.5 86.5 c 128,-1,68
 271 104 271 104 271 126 c 0,69,70
 271 160 271 160 285 189 c 128,-1,71
 299 218 299 218 330 236.5 c 128,-1,72
 361 255 361 255 412 255 c 0,73,74
 450 255 450 255 482 240.5 c 128,-1,75
 514 226 514 226 533.5 197 c 128,-1,76
 553 168 553 168 553 125 c 0,77,78
 553 86 553 86 532.5 55 c 128,-1,79
 512 24 512 24 470 6 c 128,-1,80
 428 -12 428 -12 364 -12 c 256,0,1
EndSplineSet
EndChar

StartChar: viramamlym
Encoding: 3405 3405 77
Width: 0
GlyphClass: 4
Flags: W
AnchorPoint: "Anchor-2" 0 554 basemark 0
AnchorPoint: "Anchor-1" -292 752 mark 0
LayerCount: 2
Fore
SplineSet
-111 591 m 256,0,1
 -169 591 -169 591 -209.5 611.5 c 128,-1,2
 -250 632 -250 632 -271 668 c 128,-1,3
 -292 704 -292 704 -292 752 c 0,4,5
 -292 770 -292 770 -289 788 c 128,-1,6
 -286 806 -286 806 -282 818 c 1,7,-1
 -208 804 l 1,8,9
 -211 794 -211 794 -212.5 780.5 c 128,-1,10
 -214 767 -214 767 -214 755 c 0,11,12
 -214 720 -214 720 -200 698.5 c 128,-1,13
 -186 677 -186 677 -162.5 668 c 128,-1,14
 -139 659 -139 659 -111 659 c 0,15,16
 -81 659 -81 659 -58 668 c 128,-1,17
 -35 677 -35 677 -21.5 698.5 c 128,-1,18
 -8 720 -8 720 -8 755 c 0,19,20
 -8 767 -8 767 -9.5 780.5 c 128,-1,21
 -11 794 -11 794 -14 804 c 1,22,-1
 60 818 l 1,23,24
 64 806 64 806 67 788 c 128,-1,25
 70 770 70 770 70 752 c 0,26,27
 70 704 70 704 49 668 c 128,-1,28
 28 632 28 632 -12.5 611.5 c 128,-1,29
 -53 591 -53 591 -111 591 c 256,0,1
EndSplineSet
EndChar

StartChar: rephmlym
Encoding: 3406 3406 78
Width: 0
GlyphClass: 4
Flags: W
AnchorPoint: "Anchor-7" -278 400 mark 0
AnchorPoint: "Anchor-4" -278 400 mark 0
AnchorPoint: "Anchor-2" -278 400 mark 0
AnchorPoint: "Anchor-0" -278 400 mark 0
LayerCount: 2
Fore
SplineSet
-236 809 m 1,0,-1
 -245 627 l 1,1,-1
 -329 627 l 1,2,-1
 -339 809 l 1,3,-1
 -236 809 l 1,0,-1
EndSplineSet
EndChar

StartChar: uni0D4F
Encoding: 3407 3407 79
Width: 1244
GlyphClass: 2
Flags: W
AnchorPoint: "Anchor-0" 622 554 basechar 0
LayerCount: 2
Fore
SplineSet
582 566 m 0,0,1
 666 566 666 566 716 539 c 128,-1,2
 766 512 766 512 800 469 c 1,3,-1
 790 477 l 1,4,5
 820 524 820 524 862 545 c 128,-1,6
 904 566 904 566 965 566 c 0,7,8
 1042 566 1042 566 1094.5 526 c 128,-1,9
 1147 486 1147 486 1173.5 411.5 c 128,-1,10
 1200 337 1200 337 1200 231 c 0,11,12
 1200 78 1200 78 1140 -24.5 c 128,-1,13
 1080 -127 1080 -127 953 -178.5 c 128,-1,14
 826 -230 826 -230 624 -230 c 0,15,16
 485 -230 485 -230 386 -206 c 128,-1,17
 287 -182 287 -182 221 -139 c 128,-1,18
 155 -96 155 -96 117 -37.5 c 128,-1,19
 79 21 79 21 63 90 c 128,-1,20
 47 159 47 159 47 234 c 0,21,22
 47 311 47 311 65.5 384.5 c 128,-1,23
 84 458 84 458 118 532 c 1,24,-1
 196 500 l 1,25,26
 162 434 162 434 147.5 366.5 c 128,-1,27
 133 299 133 299 133 238 c 0,28,29
 133 180 133 180 143.5 123 c 128,-1,30
 154 66 154 66 183 16 c 128,-1,31
 212 -34 212 -34 266.5 -72 c 128,-1,32
 321 -110 321 -110 408.5 -131.5 c 128,-1,33
 496 -153 496 -153 625 -153 c 0,34,35
 759 -153 759 -153 852.5 -127.5 c 128,-1,36
 946 -102 946 -102 1003.5 -52 c 128,-1,37
 1061 -2 1061 -2 1087 70.5 c 128,-1,38
 1113 143 1113 143 1113 236 c 0,39,40
 1113 319 1113 319 1095 376.5 c 128,-1,41
 1077 434 1077 434 1044 464 c 128,-1,42
 1011 494 1011 494 964 494 c 0,43,44
 923 494 923 494 897 479.5 c 128,-1,45
 871 465 871 465 854 436 c 0,46,47
 842 414 842 414 837 382 c 128,-1,48
 832 350 832 350 832 285 c 2,49,-1
 832 0 l 1,50,-1
 746 0 l 1,51,-1
 746 305 l 2,52,53
 746 365 746 365 735.5 400 c 128,-1,54
 725 435 725 435 702 456 c 0,55,56
 681 475 681 475 653.5 484.5 c 128,-1,57
 626 494 626 494 581 494 c 0,58,59
 509 494 509 494 456.5 460.5 c 128,-1,60
 404 427 404 427 375.5 369.5 c 128,-1,61
 347 312 347 312 347 239 c 2,62,-1
 347 228 l 2,63,64
 347 172 347 172 362 134 c 128,-1,65
 377 96 377 96 403.5 77 c 128,-1,66
 430 58 430 58 466 58 c 0,67,68
 491 58 491 58 510 69.5 c 128,-1,69
 529 81 529 81 540 103 c 128,-1,70
 551 125 551 125 551 157 c 0,71,72
 551 207 551 207 525 232.5 c 128,-1,73
 499 258 499 258 457 258 c 0,74,75
 418 258 418 258 383 238 c 128,-1,76
 348 218 348 218 319 186 c 1,77,-1
 304 248 l 1,78,79
 333 284 333 284 378 306 c 128,-1,80
 423 328 423 328 472 328 c 0,81,82
 520 328 520 328 556.5 309 c 128,-1,83
 593 290 593 290 613.5 253.5 c 128,-1,84
 634 217 634 217 634 165 c 0,85,86
 634 110 634 110 613 70 c 128,-1,87
 592 30 592 30 554 9 c 128,-1,88
 516 -12 516 -12 464 -12 c 256,89,90
 412 -12 412 -12 366.5 14 c 128,-1,91
 321 40 321 40 293.5 96 c 128,-1,92
 266 152 266 152 266 241 c 0,93,94
 266 347 266 347 308.5 419 c 128,-1,95
 351 491 351 491 422.5 528.5 c 128,-1,96
 494 566 494 566 582 566 c 0,0,1
EndSplineSet
EndChar

StartChar: machillumlym
Encoding: 3412 3412 80
Width: 646
GlyphClass: 2
Flags: W
AnchorPoint: "Anchor-3" 348 0 basechar 0
AnchorPoint: "Anchor-1" 421 709 basechar 0
AnchorPoint: "Anchor-0" 323 554 basechar 0
LayerCount: 2
Fore
SplineSet
179 792 m 0,0,1
 215 792 215 792 241.5 783 c 128,-1,2
 268 774 268 774 285 760 c 0,3,4
 311 739 311 739 319.5 711 c 128,-1,5
 328 683 328 683 328 639 c 2,6,-1
 328 516 l 2,7,8
 328 466 328 466 334.5 426.5 c 128,-1,9
 341 387 341 387 360 352 c 128,-1,10
 379 317 379 317 416 278 c 2,11,-1
 441 253 l 2,12,13
 475 216 475 216 522.5 172 c 128,-1,14
 570 128 570 128 637 69 c 1,15,-1
 602 0 l 1,16,-1
 60 0 l 1,17,-1
 60 268 l 2,18,19
 60 320 60 320 68.5 361.5 c 128,-1,20
 77 403 77 403 94.5 435.5 c 128,-1,21
 112 468 112 468 138 493 c 0,22,23
 175 528 175 528 223 547 c 128,-1,24
 271 566 271 566 330 566 c 0,25,26
 390 566 390 566 429.5 541 c 128,-1,27
 469 516 469 516 489 476.5 c 128,-1,28
 509 437 509 437 509 392 c 0,29,30
 509 354 509 354 494.5 312.5 c 128,-1,31
 480 271 480 271 451 232 c 1,32,-1
 433 213 l 2,33,34
 411 186 411 186 383 159 c 128,-1,35
 355 132 355 132 321.5 103.5 c 128,-1,36
 288 75 288 75 249 45 c 1,37,-1
 247 65 l 1,38,39
 276 67 276 67 304 68.5 c 128,-1,40
 332 70 332 70 360 70 c 2,41,-1
 473 70 l 2,42,43
 489 70 489 70 507 70 c 128,-1,44
 525 70 525 70 542 69 c 128,-1,45
 559 68 559 68 573 65 c 1,46,-1
 537 62 l 1,47,48
 491 102 491 102 453.5 136.5 c 128,-1,49
 416 171 416 171 387 202 c 2,50,-1
 370 220 l 2,51,52
 320 272 320 272 292.5 316 c 128,-1,53
 265 360 265 360 254.5 404.5 c 128,-1,54
 244 449 244 449 244 502 c 2,55,-1
 244 628 l 2,56,57
 244 660 244 660 238.5 677.5 c 128,-1,58
 233 695 233 695 219 705 c 0,59,60
 210 713 210 713 197 716.5 c 128,-1,61
 184 720 184 720 166 720 c 0,62,63
 144 720 144 720 124 717 c 128,-1,64
 104 714 104 714 91 709 c 1,65,-1
 72 778 l 1,66,67
 89 783 89 783 118 787.5 c 128,-1,68
 147 792 147 792 179 792 c 0,0,1
146 68 m 1,69,-1
 151 68 l 1,70,71
 205 106 205 106 248 139.5 c 128,-1,72
 291 173 291 173 323.5 205 c 128,-1,73
 356 237 356 237 378 268 c 1,74,-1
 394 285 l 1,75,76
 409 311 409 311 415 337 c 128,-1,77
 421 363 421 363 421 388 c 0,78,79
 421 420 421 420 408.5 444 c 128,-1,80
 396 468 396 468 371.5 482 c 128,-1,81
 347 496 347 496 311 496 c 0,82,83
 262 496 262 496 231.5 474.5 c 128,-1,84
 201 453 201 453 181 418 c 0,85,86
 170 399 170 399 162 374.5 c 128,-1,87
 154 350 154 350 150 319 c 128,-1,88
 146 288 146 288 146 249 c 2,89,-1
 146 68 l 1,69,-1
EndSplineSet
EndChar

StartChar: yachillumlym
Encoding: 3413 3413 81
Width: 1033
GlyphClass: 2
Flags: W
AnchorPoint: "Anchor-3" 397 0 basechar 0
AnchorPoint: "Anchor-1" 961 709 basechar 0
AnchorPoint: "Anchor-0" 516 554 basechar 0
LayerCount: 2
Fore
SplineSet
680 -12 m 0,0,1
 644 -12 644 -12 612.5 -8 c 128,-1,2
 581 -4 581 -4 552.5 5 c 128,-1,3
 524 14 524 14 496 29 c 0,4,5
 490 32 490 32 480.5 36 c 128,-1,6
 471 40 471 40 466 43 c 0,7,8
 411 82 411 82 377 128 c 128,-1,9
 343 174 343 174 327.5 227 c 128,-1,10
 312 280 312 280 312 338 c 0,11,12
 312 378 312 378 322 412 c 128,-1,13
 332 446 332 446 349 473 c 2,14,-1
 356 484 l 2,15,16
 376 511 376 511 402.5 529 c 128,-1,17
 429 547 429 547 460 556.5 c 128,-1,18
 491 566 491 566 525 566 c 0,19,20
 624 566 624 566 679 502.5 c 128,-1,21
 734 439 734 439 734 332 c 0,22,23
 734 272 734 272 717 219.5 c 128,-1,24
 700 167 700 167 668.5 124.5 c 128,-1,25
 637 82 637 82 593 53 c 0,26,27
 585 47 585 47 577.5 42.5 c 128,-1,28
 570 38 570 38 560 33 c 0,29,30
 518 9 518 9 472 -1.5 c 128,-1,31
 426 -12 426 -12 376 -12 c 0,32,33
 296 -12 296 -12 233.5 14 c 128,-1,34
 171 40 171 40 127.5 86.5 c 128,-1,35
 84 133 84 133 61.5 196.5 c 128,-1,36
 39 260 39 260 39 335 c 0,37,38
 39 405 39 405 65.5 456.5 c 128,-1,39
 92 508 92 508 141 537 c 128,-1,40
 190 566 190 566 256 566 c 0,41,42
 314 566 314 566 354 545.5 c 128,-1,43
 394 525 394 525 421 490 c 1,44,-1
 362 431 l 1,45,46
 349 457 349 457 323.5 476.5 c 128,-1,47
 298 496 298 496 257 496 c 0,48,49
 219 496 219 496 189.5 478 c 128,-1,50
 160 460 160 460 143 423.5 c 128,-1,51
 126 387 126 387 126 333 c 0,52,53
 126 261 126 261 155 198 c 128,-1,54
 184 135 184 135 241 95.5 c 128,-1,55
 298 56 298 56 383 56 c 0,56,57
 404 56 404 56 427 58.5 c 128,-1,58
 450 61 450 61 471 66 c 0,59,60
 482 70 482 70 493 74 c 128,-1,61
 504 78 504 78 514 82 c 0,62,63
 549 100 549 100 579 134.5 c 128,-1,64
 609 169 609 169 628 219 c 128,-1,65
 647 269 647 269 647 332 c 0,66,67
 647 392 647 392 630 428 c 128,-1,68
 613 464 613 464 585 480 c 128,-1,69
 557 496 557 496 525 496 c 0,70,71
 487 496 487 496 458.5 477 c 128,-1,72
 430 458 430 458 414.5 421.5 c 128,-1,73
 399 385 399 385 399 332 c 0,74,75
 399 277 399 277 416 227 c 128,-1,76
 433 177 433 177 464.5 138.5 c 128,-1,77
 496 100 496 100 537 78 c 0,78,79
 547 74 547 74 555 73.5 c 128,-1,80
 563 73 563 73 573 69 c 0,81,82
 590 64 590 64 614.5 60 c 128,-1,83
 639 56 639 56 678 56 c 0,84,85
 761 56 761 56 810.5 85 c 128,-1,86
 860 114 860 114 882 160 c 128,-1,87
 904 206 904 206 904 257 c 0,88,89
 904 305 904 305 891 342 c 128,-1,90
 878 379 878 379 857.5 409.5 c 128,-1,91
 837 440 837 440 815 468 c 0,92,93
 784 508 784 508 763.5 538 c 128,-1,94
 743 568 743 568 732.5 597.5 c 128,-1,95
 722 627 722 627 722 663 c 0,96,97
 722 689 722 689 735 719 c 128,-1,98
 748 749 748 749 780.5 770.5 c 128,-1,99
 813 792 813 792 873 792 c 0,100,101
 906 792 906 792 935 787.5 c 128,-1,102
 964 783 964 783 981 778 c 1,103,-1
 961 709 l 1,104,105
 948 714 948 714 928.5 717 c 128,-1,106
 909 720 909 720 886 720 c 0,107,108
 844 720 844 720 826.5 699 c 128,-1,109
 809 678 809 678 809 651 c 0,110,111
 809 630 809 630 819.5 608.5 c 128,-1,112
 830 587 830 587 849 562.5 c 128,-1,113
 868 538 868 538 892 507 c 0,114,115
 922 470 922 470 944 431.5 c 128,-1,116
 966 393 966 393 978.5 352 c 128,-1,117
 991 311 991 311 991 266 c 0,118,119
 991 214 991 214 978 170.5 c 128,-1,120
 965 127 965 127 939.5 93.5 c 128,-1,121
 914 60 914 60 876 36 c 128,-1,122
 838 12 838 12 789 0 c 128,-1,123
 740 -12 740 -12 680 -12 c 0,0,1
EndSplineSet
EndChar

StartChar: lllachillumlym
Encoding: 3414 3414 82
Width: 725
GlyphClass: 2
Flags: W
AnchorPoint: "Anchor-3" 427 0 basechar 0
AnchorPoint: "Anchor-1" 451 709 basechar 0
AnchorPoint: "Anchor-0" 362 554 basechar 0
LayerCount: 2
Fore
SplineSet
210 156 m 0,0,1
 210 128 210 128 221.5 106 c 128,-1,2
 233 84 233 84 258 71.5 c 128,-1,3
 283 59 283 59 324 59 c 0,4,5
 386 59 386 59 404.5 78.5 c 128,-1,6
 423 98 423 98 423 126 c 0,7,8
 423 164 423 164 410 195.5 c 128,-1,9
 397 227 397 227 380 257.5 c 128,-1,10
 363 288 363 288 350 323 c 128,-1,11
 337 358 337 358 337 404 c 0,12,13
 337 444 337 444 354.5 481 c 128,-1,14
 372 518 372 518 410.5 542 c 128,-1,15
 449 566 449 566 512 566 c 0,16,17
 576 566 576 566 614.5 540 c 128,-1,18
 653 514 653 514 670.5 474 c 128,-1,19
 688 434 688 434 688 392 c 0,20,21
 688 325 688 325 653 270 c 128,-1,22
 618 215 618 215 551 182.5 c 128,-1,23
 484 150 484 150 386 150 c 2,24,-1
 362 150 l 2,25,26
 307 150 307 150 266 158 c 128,-1,27
 225 166 225 166 189 182 c 2,28,-1
 159 192 l 1,29,30
 118 214 118 214 91 245.5 c 128,-1,31
 64 277 64 277 50.5 316.5 c 128,-1,32
 37 356 37 356 37 401 c 0,33,34
 37 439 37 439 49 480.5 c 128,-1,35
 61 522 61 522 91 566 c 1,36,-1
 158 529 l 1,37,38
 137 492 137 492 130 462.5 c 128,-1,39
 123 433 123 433 123 401 c 0,40,41
 123 356 123 356 135.5 326 c 128,-1,42
 148 296 148 296 173 273 c 1,43,-1
 202 255 l 2,44,45
 231 236 231 236 273.5 227.5 c 128,-1,46
 316 219 316 219 362 219 c 2,47,-1
 389 219 l 2,48,49
 462 219 462 219 509 243 c 128,-1,50
 556 267 556 267 579 307.5 c 128,-1,51
 602 348 602 348 602 397 c 0,52,53
 602 436 602 436 582.5 466.5 c 128,-1,54
 563 497 563 497 510 497 c 0,55,56
 478 497 478 497 457.5 484.5 c 128,-1,57
 437 472 437 472 427.5 451 c 128,-1,58
 418 430 418 430 418 403 c 0,59,60
 418 363 418 363 431.5 328.5 c 128,-1,61
 445 294 445 294 462 262 c 128,-1,62
 479 230 479 230 492.5 196 c 128,-1,63
 506 162 506 162 506 123 c 0,64,65
 506 101 506 101 498.5 77.5 c 128,-1,66
 491 54 491 54 471.5 33.5 c 128,-1,67
 452 13 452 13 415.5 0.5 c 128,-1,68
 379 -12 379 -12 322 -12 c 0,69,70
 264 -12 264 -12 220.5 7 c 128,-1,71
 177 26 177 26 153 66 c 128,-1,72
 129 106 129 106 129 168 c 0,73,74
 129 217 129 217 144 262.5 c 128,-1,75
 159 308 159 308 182.5 352.5 c 128,-1,76
 206 397 206 397 232 441 c 0,77,78
 261 491 261 491 278.5 526.5 c 128,-1,79
 296 562 296 562 304 590 c 128,-1,80
 312 618 312 618 312 643 c 0,81,82
 312 676 312 676 294.5 698 c 128,-1,83
 277 720 277 720 233 720 c 0,84,85
 212 720 212 720 193 717 c 128,-1,86
 174 714 174 714 161 709 c 1,87,-1
 142 778 l 1,88,89
 159 783 159 783 187 787.5 c 128,-1,90
 215 792 215 792 246 792 c 0,91,92
 307 792 307 792 340 770 c 128,-1,93
 373 748 373 748 386 717 c 128,-1,94
 399 686 399 686 399 658 c 0,95,96
 399 629 399 629 394.5 604.5 c 128,-1,97
 390 580 390 580 378.5 553 c 128,-1,98
 367 526 367 526 347.5 490.5 c 128,-1,99
 328 455 328 455 298 404 c 0,100,101
 282 376 282 376 266 348.5 c 128,-1,102
 250 321 250 321 237.5 291 c 128,-1,103
 225 261 225 261 217.5 228 c 128,-1,104
 210 195 210 195 210 156 c 0,0,1
EndSplineSet
EndChar

StartChar: aulengthmarkmlym
Encoding: 3415 3415 83
Width: 759
GlyphClass: 2
Flags: W
AnchorPoint: "Anchor-0" 379 554 basechar 0
LayerCount: 2
Fore
SplineSet
515 566 m 0,0,1
 580 566 580 566 625.5 533.5 c 128,-1,2
 671 501 671 501 695.5 442 c 128,-1,3
 720 383 720 383 720 305 c 0,4,5
 720 204 720 204 688.5 133 c 128,-1,6
 657 62 657 62 596 25 c 128,-1,7
 535 -12 535 -12 447 -12 c 0,8,9
 375 -12 375 -12 324.5 1.5 c 128,-1,10
 274 15 274 15 224 40 c 1,11,-1
 267 108 l 1,12,13
 305 86 305 86 345 73 c 128,-1,14
 385 60 385 60 442 60 c 0,15,16
 515 60 515 60 556.5 92.5 c 128,-1,17
 598 125 598 125 615 180.5 c 128,-1,18
 632 236 632 236 632 305 c 0,19,20
 632 404 632 404 599.5 449 c 128,-1,21
 567 494 567 494 513 494 c 0,22,23
 482 494 482 494 461 482.5 c 128,-1,24
 440 471 440 471 428 450 c 0,25,26
 418 433 418 433 415.5 408.5 c 128,-1,27
 413 384 413 384 413 340 c 2,28,-1
 413 258 l 1,29,-1
 327 258 l 1,30,-1
 327 333 l 2,31,32
 327 374 327 374 323 404 c 128,-1,33
 319 434 319 434 308 451 c 0,34,35
 295 474 295 474 274.5 484 c 128,-1,36
 254 494 254 494 228 494 c 0,37,38
 175 494 175 494 148.5 459.5 c 128,-1,39
 122 425 122 425 122 372 c 0,40,41
 122 339 122 339 126 315.5 c 128,-1,42
 130 292 130 292 137 271 c 1,43,-1
 56 254 l 1,44,45
 46 282 46 282 41 316 c 128,-1,46
 36 350 36 350 36 378 c 0,47,48
 36 429 36 429 56.5 472 c 128,-1,49
 77 515 77 515 119.5 540.5 c 128,-1,50
 162 566 162 566 226 566 c 0,51,52
 279 566 279 566 314.5 543.5 c 128,-1,53
 350 521 350 521 374 480 c 1,54,-1
 361 481 l 1,55,56
 390 526 390 526 427.5 546 c 128,-1,57
 465 566 465 566 515 566 c 0,0,1
EndSplineSet
Substitution2: "Single Substitution lookup 7 subtable" candrabindu_1CDAmlym
Substitution2: "Single Substitution lookup 6 subtable" candrabindu_0952mlym
Substitution2: "Single Substitution lookup 5 subtable" candrabindu_0951mlym
Substitution2: "Single Substitution lookup 4 subtable" uni0D00
Substitution2: "Single Substitution lookup 3 subtable" uni1CDA
Substitution2: "Single Substitution lookup 2 subtable" uni0952
Substitution2: "Single Substitution lookup 1 subtable" uni0951
Substitution2: "Single Substitution lookup 0 subtable" candrabindumlym
EndChar

StartChar: uni0D58
Encoding: 3416 3416 84
Width: 1223
GlyphClass: 2
Flags: W
AnchorPoint: "Anchor-0" 611 554 basechar 0
LayerCount: 2
Fore
SplineSet
606 -12 m 0,0,1
 553 -12 553 -12 509 12 c 128,-1,2
 465 36 465 36 436 81 c 1,3,-1
 443 81 l 1,4,5
 417 38 417 38 379 13 c 128,-1,6
 341 -12 341 -12 278 -12 c 0,7,8
 207 -12 207 -12 153 21.5 c 128,-1,9
 99 55 99 55 69 116.5 c 128,-1,10
 39 178 39 178 39 262 c 0,11,12
 39 335 39 335 58.5 389.5 c 128,-1,13
 78 444 78 444 112 486 c 128,-1,14
 146 528 146 528 189 563 c 1,15,-1
 247 499 l 1,16,17
 214 476 214 476 187 444 c 128,-1,18
 160 412 160 412 143.5 367.5 c 128,-1,19
 127 323 127 323 127 262 c 0,20,21
 127 200 127 200 147 154.5 c 128,-1,22
 167 109 167 109 200.5 84.5 c 128,-1,23
 234 60 234 60 276 60 c 0,24,25
 312 60 312 60 335.5 73 c 128,-1,26
 359 86 359 86 375 114 c 0,27,28
 389 138 389 138 393 174 c 128,-1,29
 397 210 397 210 397 262 c 2,30,-1
 397 554 l 1,31,-1
 483 554 l 1,32,-1
 483 246 l 2,33,34
 483 184 483 184 491.5 151 c 128,-1,35
 500 118 500 118 519 97 c 0,36,37
 533 80 533 80 557 70 c 128,-1,38
 581 60 581 60 606 60 c 0,39,40
 637 60 637 60 659 69 c 128,-1,41
 681 78 681 78 695 94 c 0,42,43
 714 115 714 115 721.5 148.5 c 128,-1,44
 729 182 729 182 729 237 c 2,45,-1
 729 554 l 1,46,-1
 815 554 l 1,47,-1
 815 262 l 1,48,-1
 775 82 l 1,49,50
 753 39 753 39 712 13.5 c 128,-1,51
 671 -12 671 -12 606 -12 c 0,0,1
941 -12 m 0,52,53
 884 -12 884 -12 843 9 c 128,-1,54
 802 30 802 30 768 82 c 1,55,-1
 739 237 l 1,56,-1
 739 544 l 1,57,-1
 815 544 l 1,58,-1
 815 262 l 2,59,60
 815 203 815 203 819 171.5 c 128,-1,61
 823 140 823 140 835 117 c 0,62,63
 851 89 851 89 877 74.5 c 128,-1,64
 903 60 903 60 940 60 c 0,65,66
 985 60 985 60 1019 86.5 c 128,-1,67
 1053 113 1053 113 1072.5 170 c 128,-1,68
 1092 227 1092 227 1092 320 c 0,69,70
 1092 395 1092 395 1076 462.5 c 128,-1,71
 1060 530 1060 530 1025.5 586.5 c 128,-1,72
 991 643 991 643 936 684 c 128,-1,73
 881 725 881 725 803.5 747.5 c 128,-1,74
 726 770 726 770 623 770 c 0,75,76
 550 770 550 770 490 762.5 c 128,-1,77
 430 755 430 755 380 741 c 1,78,-1
 367 814 l 1,79,80
 405 824 405 824 445.5 830.5 c 128,-1,81
 486 837 486 837 530.5 840 c 128,-1,82
 575 843 575 843 624 843 c 0,83,84
 740 843 740 843 830.5 818 c 128,-1,85
 921 793 921 793 987 746.5 c 128,-1,86
 1053 700 1053 700 1095.5 635.5 c 128,-1,87
 1138 571 1138 571 1158.5 492 c 128,-1,88
 1179 413 1179 413 1179 322 c 0,89,90
 1179 205 1179 205 1150.5 131 c 128,-1,91
 1122 57 1122 57 1069 22.5 c 128,-1,92
 1016 -12 1016 -12 941 -12 c 0,52,53
EndSplineSet
EndChar

StartChar: uni0D59
Encoding: 3417 3417 85
Width: 1131
GlyphClass: 2
Flags: W
AnchorPoint: "Anchor-0" 565 554 basechar 0
LayerCount: 2
Fore
SplineSet
364 566 m 0,0,1
 447 566 447 566 509.5 541.5 c 128,-1,2
 572 517 572 517 613.5 473 c 128,-1,3
 655 429 655 429 676 370 c 128,-1,4
 697 311 697 311 697 242 c 0,5,6
 697 153 697 153 669 96.5 c 128,-1,7
 641 40 641 40 593 14 c 128,-1,8
 545 -12 545 -12 485 -12 c 0,9,10
 422 -12 422 -12 380.5 11.5 c 128,-1,11
 339 35 339 35 318.5 72.5 c 128,-1,12
 298 110 298 110 298 152 c 0,13,14
 298 199 298 199 317.5 233 c 128,-1,15
 337 267 337 267 371 288 c 0,16,17
 394 302 394 302 419.5 311 c 128,-1,18
 445 320 445 320 484 324 c 128,-1,19
 523 328 523 328 583 328 c 2,20,-1
 653 328 l 1,21,-1
 653 258 l 1,22,-1
 591 258 l 2,23,24
 522 258 522 258 485.5 252.5 c 128,-1,25
 449 247 449 247 422 230 c 0,26,27
 403 218 403 218 393.5 199.5 c 128,-1,28
 384 181 384 181 384 152 c 0,29,30
 384 109 384 109 409.5 83.5 c 128,-1,31
 435 58 435 58 482 58 c 0,32,33
 524 58 524 58 553.5 77 c 128,-1,34
 583 96 583 96 598.5 137.5 c 128,-1,35
 614 179 614 179 614 247 c 0,36,37
 614 263 614 263 612 279 c 128,-1,38
 610 295 610 295 607 310 c 2,39,-1
 607 320 l 1,40,41
 596 371 596 371 565.5 410.5 c 128,-1,42
 535 450 535 450 485 472 c 128,-1,43
 435 494 435 494 364 494 c 0,44,45
 292 494 292 494 239 468 c 128,-1,46
 186 442 186 442 157 393 c 128,-1,47
 128 344 128 344 128 273 c 0,48,49
 128 221 128 221 143 180 c 128,-1,50
 158 139 158 139 185.5 108 c 128,-1,51
 213 77 213 77 250 54 c 1,52,-1
 200 -9 l 1,53,54
 157 16 157 16 120.5 55.5 c 128,-1,55
 84 95 84 95 61.5 150.5 c 128,-1,56
 39 206 39 206 39 277 c 0,57,58
 39 333 39 333 58 385 c 128,-1,59
 77 437 77 437 116.5 478 c 128,-1,60
 156 519 156 519 217.5 542.5 c 128,-1,61
 279 566 279 566 364 566 c 0,0,1
944 554 m 0,62,63
 1003 554 1003 554 1040 533.5 c 128,-1,64
 1077 513 1077 513 1094 480.5 c 128,-1,65
 1111 448 1111 448 1111 410 c 0,66,67
 1111 368 1111 368 1096.5 340 c 128,-1,68
 1082 312 1082 312 1056 294 c 0,69,70
 1037 281 1037 281 1015 273 c 128,-1,71
 993 265 993 265 965 261.5 c 128,-1,72
 937 258 937 258 900 258 c 2,73,-1
 633 258 l 1,74,-1
 633 328 l 1,75,-1
 896 328 l 2,76,77
 931 328 931 328 952.5 331.5 c 128,-1,78
 974 335 974 335 989 343 c 0,79,80
 1006 351 1006 351 1015.5 367 c 128,-1,81
 1025 383 1025 383 1025 407 c 0,82,83
 1025 442 1025 442 1005 463.5 c 128,-1,84
 985 485 985 485 945 485 c 0,85,86
 900 485 900 485 877 460.5 c 128,-1,87
 854 436 854 436 854 392 c 0,88,89
 854 358 854 358 865 332 c 128,-1,90
 876 306 876 306 895 281 c 1,91,-1
 811 276 l 1,92,93
 796 302 796 302 783.5 333.5 c 128,-1,94
 771 365 771 365 771 405 c 0,95,96
 771 452 771 452 794 485.5 c 128,-1,97
 817 519 817 519 856.5 536.5 c 128,-1,98
 896 554 896 554 944 554 c 0,62,63
EndSplineSet
EndChar

StartChar: uni0D5A
Encoding: 3418 3418 86
Width: 1071
GlyphClass: 2
Flags: W
AnchorPoint: "Anchor-0" 535 554 basechar 0
LayerCount: 2
Fore
SplineSet
702 566 m 0,0,1
 781 566 781 566 837.5 547.5 c 128,-1,2
 894 529 894 529 931 494 c 0,3,4
 959 469 959 469 976.5 437 c 128,-1,5
 994 405 994 405 1002.5 363 c 128,-1,6
 1011 321 1011 321 1011 266 c 2,7,-1
 1011 0 l 1,8,-1
 499 0 l 1,9,-1
 499 68 l 1,10,11
 567 119 567 119 620 175 c 128,-1,12
 673 231 673 231 703.5 289 c 128,-1,13
 734 347 734 347 734 402 c 0,14,15
 734 430 734 430 725.5 450.5 c 128,-1,16
 717 471 717 471 700 483 c 128,-1,17
 683 495 683 495 655 495 c 0,18,19
 612 495 612 495 579.5 472 c 128,-1,20
 547 449 547 449 530 418 c 0,21,22
 511 383 511 383 505 348 c 128,-1,23
 499 313 499 313 499 257 c 2,24,-1
 499 230 l 1,25,-1
 412 230 l 1,26,-1
 412 291 l 2,27,28
 412 349 412 349 408 381.5 c 128,-1,29
 404 414 404 414 390 436 c 0,30,31
 373 465 373 465 347 479.5 c 128,-1,32
 321 494 321 494 284 494 c 0,33,34
 238 494 238 494 202.5 467.5 c 128,-1,35
 167 441 167 441 147 395.5 c 128,-1,36
 127 350 127 350 127 292 c 0,37,38
 127 232 127 232 143.5 187 c 128,-1,39
 160 142 160 142 187 110 c 128,-1,40
 214 78 214 78 247 55 c 1,41,-1
 189 -8 l 1,42,43
 146 27 146 27 112 68.5 c 128,-1,44
 78 110 78 110 58.5 164.5 c 128,-1,45
 39 219 39 219 39 292 c 0,46,47
 39 373 39 373 69.5 434.5 c 128,-1,48
 100 496 100 496 156 531 c 128,-1,49
 212 566 212 566 288 566 c 0,50,51
 345 566 345 566 381.5 546.5 c 128,-1,52
 418 527 418 527 441 497.5 c 128,-1,53
 464 468 464 468 480 436 c 1,54,-1
 446 436 l 1,55,56
 471 482 471 482 508.5 510.5 c 128,-1,57
 546 539 546 539 594.5 552.5 c 128,-1,58
 643 566 643 566 702 566 c 0,0,1
820 393 m 0,59,60
 820 334 820 334 793 277 c 128,-1,61
 766 220 766 220 716 162.5 c 128,-1,62
 666 105 666 105 597 45 c 1,63,-1
 595 65 l 1,64,65
 624 67 624 67 652 68.5 c 128,-1,66
 680 70 680 70 708 70 c 2,67,-1
 925 70 l 1,68,-1
 925 249 l 2,69,70
 925 323 925 323 910.5 372 c 128,-1,71
 896 421 896 421 863 450.5 c 128,-1,72
 830 480 830 480 776 494 c 1,73,-1
 778 501 l 1,74,75
 797 479 797 479 808.5 454.5 c 128,-1,76
 820 430 820 430 820 393 c 0,59,60
EndSplineSet
EndChar

StartChar: uni0D5B
Encoding: 3419 3419 87
Width: 958
GlyphClass: 2
Flags: W
AnchorPoint: "Anchor-0" 479 554 basechar 0
LayerCount: 2
Fore
SplineSet
617 -12 m 0,0,1
 543 -12 543 -12 487.5 10 c 128,-1,2
 432 32 432 32 395.5 71 c 128,-1,3
 359 110 359 110 341 162 c 128,-1,4
 323 214 323 214 323 273 c 0,5,6
 323 326 323 326 336 367 c 128,-1,7
 349 408 349 408 370.5 441 c 128,-1,8
 392 474 392 474 417 501 c 1,9,-1
 441 484 l 1,10,-1
 158 484 l 1,11,-1
 158 0 l 1,12,-1
 71 0 l 1,13,-1
 71 554 l 1,14,-1
 491 554 l 1,15,-1
 525 495 l 1,16,17
 496 475 496 475 470 446 c 128,-1,18
 444 417 444 417 428 377 c 128,-1,19
 412 337 412 337 412 283 c 0,20,21
 412 218 412 218 436 167.5 c 128,-1,22
 460 117 460 117 507 88.5 c 128,-1,23
 554 60 554 60 621 60 c 0,24,25
 687 60 687 60 734 89.5 c 128,-1,26
 781 119 781 119 805.5 169 c 128,-1,27
 830 219 830 219 830 281 c 0,28,29
 830 333 830 333 815 374 c 128,-1,30
 800 415 800 415 773 446 c 128,-1,31
 746 477 746 477 708 500 c 1,32,-1
 758 563 l 1,33,34
 801 539 801 539 837.5 499 c 128,-1,35
 874 459 874 459 896.5 403.5 c 128,-1,36
 919 348 919 348 919 277 c 0,37,38
 919 216 919 216 899.5 163 c 128,-1,39
 880 110 880 110 841.5 71 c 128,-1,40
 803 32 803 32 746.5 10 c 128,-1,41
 690 -12 690 -12 617 -12 c 0,0,1
EndSplineSet
EndChar

StartChar: uni0D5C
Encoding: 3420 3420 88
Width: 1518
GlyphClass: 2
Flags: W
AnchorPoint: "Anchor-0" 759 554 basechar 0
LayerCount: 2
Fore
SplineSet
913 566 m 0,0,1
 961 566 961 566 998.5 553.5 c 128,-1,2
 1036 541 1036 541 1063 509 c 0,3,4
 1077 493 1077 493 1088 470 c 128,-1,5
 1099 447 1099 447 1106 406 c 128,-1,6
 1113 365 1113 365 1113 294 c 2,7,-1
 1113 269 l 2,8,9
 1113 214 1113 214 1118.5 173 c 128,-1,10
 1124 132 1124 132 1140 106 c 0,11,12
 1154 85 1154 85 1177 72.5 c 128,-1,13
 1200 60 1200 60 1243 60 c 0,14,15
 1288 60 1288 60 1321 85.5 c 128,-1,16
 1354 111 1354 111 1372 157.5 c 128,-1,17
 1390 204 1390 204 1390 266 c 0,18,19
 1390 323 1390 323 1374.5 367.5 c 128,-1,20
 1359 412 1359 412 1332 446 c 128,-1,21
 1305 480 1305 480 1270 504 c 1,22,-1
 1323 566 l 1,23,24
 1374 527 1374 527 1408.5 482.5 c 128,-1,25
 1443 438 1443 438 1460.5 384.5 c 128,-1,26
 1478 331 1478 331 1478 263 c 0,27,28
 1478 177 1478 177 1449 115 c 128,-1,29
 1420 53 1420 53 1366.5 20.5 c 128,-1,30
 1313 -12 1313 -12 1239 -12 c 0,31,32
 1182 -12 1182 -12 1143 4.5 c 128,-1,33
 1104 21 1104 21 1078 51 c 0,34,35
 1059 73 1059 73 1047.5 99.5 c 128,-1,36
 1036 126 1036 126 1031 161 c 128,-1,37
 1026 196 1026 196 1026 243 c 2,38,-1
 1026 295 l 2,39,40
 1026 365 1026 365 1019 402.5 c 128,-1,41
 1012 440 1012 440 994 461 c 0,42,43
 979 478 979 478 958.5 486 c 128,-1,44
 938 494 938 494 915 494 c 0,45,46
 891 494 891 494 870 487 c 128,-1,47
 849 480 849 480 834 462 c 0,48,49
 816 440 816 440 809 401 c 128,-1,50
 802 362 802 362 802 285 c 2,51,-1
 802 260 l 2,52,53
 802 191 802 191 795.5 149.5 c 128,-1,54
 789 108 789 108 778 85 c 128,-1,55
 767 62 767 62 753 46 c 0,56,57
 727 15 727 15 690 1.5 c 128,-1,58
 653 -12 653 -12 604 -12 c 0,59,60
 556 -12 556 -12 518.5 1 c 128,-1,61
 481 14 481 14 454 45 c 0,62,63
 441 61 441 61 429.5 84 c 128,-1,64
 418 107 418 107 411 148.5 c 128,-1,65
 404 190 404 190 404 260 c 2,66,-1
 404 285 l 2,67,68
 404 341 404 341 399 382 c 128,-1,69
 394 423 394 423 377 448 c 0,70,71
 364 469 364 469 341 481.5 c 128,-1,72
 318 494 318 494 274 494 c 256,73,74
 230 494 230 494 196.5 468.5 c 128,-1,75
 163 443 163 443 145 397.5 c 128,-1,76
 127 352 127 352 127 290 c 0,77,78
 127 233 127 233 142 188 c 128,-1,79
 157 143 157 143 184.5 109.5 c 128,-1,80
 212 76 212 76 247 51 c 1,81,-1
 194 -11 l 1,82,83
 144 29 144 29 109 73 c 128,-1,84
 74 117 74 117 56.5 171 c 128,-1,85
 39 225 39 225 39 292 c 0,86,87
 39 378 39 378 68 439.5 c 128,-1,88
 97 501 97 501 151 533.5 c 128,-1,89
 205 566 205 566 278 566 c 0,90,91
 335 566 335 566 374 549.5 c 128,-1,92
 413 533 413 533 439 503 c 0,93,94
 458 481 458 481 469.5 454.5 c 128,-1,95
 481 428 481 428 486 393 c 128,-1,96
 491 358 491 358 491 308 c 2,97,-1
 491 259 l 2,98,99
 491 189 491 189 498 151.5 c 128,-1,100
 505 114 505 114 523 93 c 0,101,102
 538 76 538 76 559 68 c 128,-1,103
 580 60 580 60 602 60 c 0,104,105
 626 60 626 60 647 67 c 128,-1,106
 668 74 668 74 683 92 c 0,107,108
 701 113 701 113 708 151 c 128,-1,109
 715 189 715 189 715 258 c 2,110,-1
 715 294 l 2,111,112
 715 364 715 364 721.5 405 c 128,-1,113
 728 446 728 446 739.5 469 c 128,-1,114
 751 492 751 492 764 508 c 0,115,116
 790 540 790 540 827 553 c 128,-1,117
 864 566 864 566 913 566 c 0,0,1
EndSplineSet
EndChar

StartChar: uni0D5D
Encoding: 3421 3421 89
Width: 2010
GlyphClass: 2
Flags: W
AnchorPoint: "Anchor-0" 1005 554 basechar 0
LayerCount: 2
Fore
SplineSet
784 566 m 0,0,1
 832 566 832 566 869.5 553.5 c 128,-1,2
 907 541 907 541 934 509 c 0,3,4
 948 493 948 493 959 470 c 128,-1,5
 970 447 970 447 977 406 c 128,-1,6
 984 365 984 365 984 294 c 2,7,-1
 984 259 l 2,8,9
 984 189 984 189 991 151.5 c 128,-1,10
 998 114 998 114 1016 93 c 0,11,12
 1031 76 1031 76 1052 68 c 128,-1,13
 1073 60 1073 60 1095 60 c 0,14,15
 1119 60 1119 60 1140 67 c 128,-1,16
 1161 74 1161 74 1176 92 c 0,17,18
 1194 113 1194 113 1201 151 c 128,-1,19
 1208 189 1208 189 1208 258 c 2,20,-1
 1208 294 l 2,21,22
 1208 364 1208 364 1214.5 405 c 128,-1,23
 1221 446 1221 446 1232.5 469 c 128,-1,24
 1244 492 1244 492 1257 508 c 0,25,26
 1283 540 1283 540 1320 553 c 128,-1,27
 1357 566 1357 566 1406 566 c 0,28,29
 1454 566 1454 566 1491.5 553.5 c 128,-1,30
 1529 541 1529 541 1556 509 c 0,31,32
 1570 493 1570 493 1581 470 c 128,-1,33
 1592 447 1592 447 1599 406 c 128,-1,34
 1606 365 1606 365 1606 294 c 2,35,-1
 1606 269 l 2,36,37
 1606 214 1606 214 1611.5 173 c 128,-1,38
 1617 132 1617 132 1633 106 c 0,39,40
 1647 85 1647 85 1670 72.5 c 128,-1,41
 1693 60 1693 60 1736 60 c 0,42,43
 1781 60 1781 60 1814 85.5 c 128,-1,44
 1847 111 1847 111 1865 157.5 c 128,-1,45
 1883 204 1883 204 1883 266 c 0,46,47
 1883 323 1883 323 1867.5 367.5 c 128,-1,48
 1852 412 1852 412 1825 446 c 128,-1,49
 1798 480 1798 480 1763 504 c 1,50,-1
 1816 566 l 1,51,52
 1867 527 1867 527 1901.5 482.5 c 128,-1,53
 1936 438 1936 438 1953.5 384.5 c 128,-1,54
 1971 331 1971 331 1971 263 c 0,55,56
 1971 177 1971 177 1942 115 c 128,-1,57
 1913 53 1913 53 1859.5 20.5 c 128,-1,58
 1806 -12 1806 -12 1732 -12 c 0,59,60
 1675 -12 1675 -12 1636 4.5 c 128,-1,61
 1597 21 1597 21 1571 51 c 0,62,63
 1552 73 1552 73 1540.5 99.5 c 128,-1,64
 1529 126 1529 126 1524 161 c 128,-1,65
 1519 196 1519 196 1519 243 c 2,66,-1
 1519 295 l 2,67,68
 1519 365 1519 365 1512 402.5 c 128,-1,69
 1505 440 1505 440 1487 461 c 0,70,71
 1472 478 1472 478 1451.5 486 c 128,-1,72
 1431 494 1431 494 1408 494 c 0,73,74
 1384 494 1384 494 1363 487 c 128,-1,75
 1342 480 1342 480 1327 462 c 0,76,77
 1309 440 1309 440 1302 401 c 128,-1,78
 1295 362 1295 362 1295 285 c 2,79,-1
 1295 260 l 2,80,81
 1295 191 1295 191 1288.5 149.5 c 128,-1,82
 1282 108 1282 108 1271 85 c 128,-1,83
 1260 62 1260 62 1246 46 c 0,84,85
 1220 15 1220 15 1183 1.5 c 128,-1,86
 1146 -12 1146 -12 1097 -12 c 0,87,88
 1049 -12 1049 -12 1011.5 1 c 128,-1,89
 974 14 974 14 947 45 c 0,90,91
 934 61 934 61 922.5 84 c 128,-1,92
 911 107 911 107 904 148.5 c 128,-1,93
 897 190 897 190 897 260 c 2,94,-1
 897 295 l 2,95,96
 897 365 897 365 890 402.5 c 128,-1,97
 883 440 883 440 865 461 c 0,98,99
 850 478 850 478 829.5 486 c 128,-1,100
 809 494 809 494 786 494 c 0,101,102
 762 494 762 494 741 487 c 128,-1,103
 720 480 720 480 705 462 c 0,104,105
 687 440 687 440 680 401 c 128,-1,106
 673 362 673 362 673 285 c 2,107,-1
 673 241 l 2,108,109
 673 167 673 167 661.5 125 c 128,-1,110
 650 83 650 83 624 53 c 0,111,112
 596 20 596 20 556 4 c 128,-1,113
 516 -12 516 -12 457 -12 c 0,114,115
 391 -12 391 -12 347.5 19 c 128,-1,116
 304 50 304 50 279 104 c 1,117,-1
 301 84 l 1,118,119
 284 57 284 57 260.5 35 c 128,-1,120
 237 13 237 13 203 0.5 c 128,-1,121
 169 -12 169 -12 120 -12 c 0,122,123
 91 -12 91 -12 64.5 -5.5 c 128,-1,124
 38 1 38 1 10 15 c 1,125,-1
 39 82 l 1,126,127
 57 72 57 72 77.5 66 c 128,-1,128
 98 60 98 60 123 60 c 0,129,130
 162 60 162 60 188.5 75 c 128,-1,131
 215 90 215 90 231 119 c 0,132,133
 244 142 244 142 247.5 172.5 c 128,-1,134
 251 203 251 203 251 262 c 2,135,-1
 251 554 l 1,136,-1
 338 554 l 1,137,-1
 338 237 l 2,138,139
 338 183 338 183 345.5 149 c 128,-1,140
 353 115 353 115 372 94 c 0,141,142
 386 78 386 78 408 69 c 128,-1,143
 430 60 430 60 459 60 c 0,144,145
 495 60 495 60 519.5 74 c 128,-1,146
 544 88 544 88 557 107 c 0,147,148
 573 131 573 131 579.5 171 c 128,-1,149
 586 211 586 211 586 287 c 2,150,-1
 586 294 l 2,151,152
 586 364 586 364 592.5 405 c 128,-1,153
 599 446 599 446 610.5 469 c 128,-1,154
 622 492 622 492 635 508 c 0,155,156
 661 540 661 540 698 553 c 128,-1,157
 735 566 735 566 784 566 c 0,0,1
EndSplineSet
EndChar

StartChar: uni0D5E
Encoding: 3422 3422 90
Width: 1375
GlyphClass: 2
Flags: W
AnchorPoint: "Anchor-0" 687 554 basechar 0
LayerCount: 2
Fore
SplineSet
364 566 m 0,0,1
 447 566 447 566 509.5 541.5 c 128,-1,2
 572 517 572 517 613.5 473 c 128,-1,3
 655 429 655 429 676 370 c 128,-1,4
 697 311 697 311 697 242 c 0,5,6
 697 153 697 153 669 96.5 c 128,-1,7
 641 40 641 40 593 14 c 128,-1,8
 545 -12 545 -12 485 -12 c 0,9,10
 422 -12 422 -12 380.5 11.5 c 128,-1,11
 339 35 339 35 318.5 72.5 c 128,-1,12
 298 110 298 110 298 152 c 0,13,14
 298 199 298 199 317.5 233 c 128,-1,15
 337 267 337 267 371 288 c 0,16,17
 394 302 394 302 419.5 311 c 128,-1,18
 445 320 445 320 484 324 c 128,-1,19
 523 328 523 328 583 328 c 2,20,-1
 643 328 l 1,21,-1
 643 258 l 1,22,-1
 591 258 l 2,23,24
 522 258 522 258 485.5 252.5 c 128,-1,25
 449 247 449 247 422 230 c 0,26,27
 403 218 403 218 393.5 199.5 c 128,-1,28
 384 181 384 181 384 152 c 0,29,30
 384 109 384 109 409.5 83.5 c 128,-1,31
 435 58 435 58 482 58 c 0,32,33
 524 58 524 58 553.5 77 c 128,-1,34
 583 96 583 96 598.5 137.5 c 128,-1,35
 614 179 614 179 614 247 c 0,36,37
 614 263 614 263 612 279 c 128,-1,38
 610 295 610 295 607 310 c 2,39,-1
 607 320 l 1,40,41
 596 371 596 371 565.5 410.5 c 128,-1,42
 535 450 535 450 485 472 c 128,-1,43
 435 494 435 494 364 494 c 0,44,45
 292 494 292 494 239 468 c 128,-1,46
 186 442 186 442 157 393 c 128,-1,47
 128 344 128 344 128 273 c 0,48,49
 128 221 128 221 143 180 c 128,-1,50
 158 139 158 139 185.5 108 c 128,-1,51
 213 77 213 77 250 54 c 1,52,-1
 200 -9 l 1,53,54
 157 16 157 16 120.5 55.5 c 128,-1,55
 84 95 84 95 61.5 150.5 c 128,-1,56
 39 206 39 206 39 277 c 0,57,58
 39 333 39 333 58 385 c 128,-1,59
 77 437 77 437 116.5 478 c 128,-1,60
 156 519 156 519 217.5 542.5 c 128,-1,61
 279 566 279 566 364 566 c 0,0,1
1150 208 m 0,62,63
 1083 208 1083 208 1039 233.5 c 128,-1,64
 995 259 995 259 973.5 299 c 128,-1,65
 952 339 952 339 952 381 c 0,66,67
 952 422 952 422 965 453 c 128,-1,68
 978 484 978 484 997 497 c 1,69,-1
 1022 485 l 1,70,-1
 808 485 l 1,71,-1
 842 496 l 1,72,73
 856 480 856 480 865.5 455.5 c 128,-1,74
 875 431 875 431 875 403 c 0,75,76
 875 345 875 345 847 313.5 c 128,-1,77
 819 282 819 282 772 270 c 128,-1,78
 725 258 725 258 667 258 c 2,79,-1
 630 258 l 1,80,-1
 630 328 l 1,81,-1
 663 328 l 2,82,83
 697 328 697 328 726.5 332.5 c 128,-1,84
 756 337 756 337 774 354 c 128,-1,85
 792 371 792 371 792 407 c 0,86,87
 792 433 792 433 785 449.5 c 128,-1,88
 778 466 778 466 764 485 c 1,89,-1
 788 554 l 1,90,-1
 1051 554 l 1,91,-1
 1080 502 l 1,92,93
 1060 483 1060 483 1048 458 c 128,-1,94
 1036 433 1036 433 1036 396 c 0,95,96
 1036 342 1036 342 1065 310 c 128,-1,97
 1094 278 1094 278 1150 278 c 0,98,99
 1186 278 1186 278 1211 293.5 c 128,-1,100
 1236 309 1236 309 1249.5 334.5 c 128,-1,101
 1263 360 1263 360 1263 390 c 0,102,103
 1263 424 1263 424 1249.5 452.5 c 128,-1,104
 1236 481 1236 481 1204 503 c 1,105,-1
 1250 561 l 1,106,107
 1292 530 1292 530 1319.5 487.5 c 128,-1,108
 1347 445 1347 445 1347 388 c 0,109,110
 1347 336 1347 336 1322.5 295 c 128,-1,111
 1298 254 1298 254 1254 231 c 128,-1,112
 1210 208 1210 208 1150 208 c 0,62,63
EndSplineSet
EndChar

StartChar: uni0D5F
Encoding: 3423 3423 91
Width: 1341
GlyphClass: 2
Flags: W
AnchorPoint: "Anchor-3" 529 0 basechar 0
AnchorPoint: "Anchor-0" 670 554 basechar 0
LayerCount: 2
Fore
SplineSet
30 268 m 256,0,1
 30 323 30 323 67 360.5 c 128,-1,2
 104 398 104 398 165 398 c 0,3,4
 227 398 227 398 264 361 c 128,-1,5
 301 324 301 324 301 268 c 0,6,7
 301 213 301 213 264 175.5 c 128,-1,8
 227 138 227 138 165 138 c 256,9,10
 103 138 103 138 66.5 175.5 c 128,-1,11
 30 213 30 213 30 268 c 256,0,1
101 269 m 0,12,13
 101 241 101 241 117.5 222 c 128,-1,14
 134 203 134 203 165 203 c 0,15,16
 197 203 197 203 213.5 222 c 128,-1,17
 230 241 230 241 230 269 c 0,18,19
 230 296 230 296 213.5 314.5 c 128,-1,20
 197 333 197 333 165 333 c 0,21,22
 134 333 134 333 117.5 314.5 c 128,-1,23
 101 296 101 296 101 269 c 0,12,13
1040 268 m 256,24,25
 1040 323 1040 323 1077 360.5 c 128,-1,26
 1114 398 1114 398 1175 398 c 0,27,28
 1237 398 1237 398 1274 361 c 128,-1,29
 1311 324 1311 324 1311 268 c 0,30,31
 1311 213 1311 213 1274 175.5 c 128,-1,32
 1237 138 1237 138 1175 138 c 256,33,34
 1113 138 1113 138 1076.5 175.5 c 128,-1,35
 1040 213 1040 213 1040 268 c 256,24,25
1111 269 m 0,36,37
 1111 241 1111 241 1127.5 222 c 128,-1,38
 1144 203 1144 203 1175 203 c 0,39,40
 1207 203 1207 203 1223.5 222 c 128,-1,41
 1240 241 1240 241 1240 269 c 0,42,43
 1240 296 1240 296 1223.5 314.5 c 128,-1,44
 1207 333 1207 333 1175 333 c 0,45,46
 1144 333 1144 333 1127.5 314.5 c 128,-1,47
 1111 296 1111 296 1111 269 c 0,36,37
666 566 m 0,48,49
 749 566 749 566 811.5 542 c 128,-1,50
 874 518 874 518 915.5 474 c 128,-1,51
 957 430 957 430 978 371 c 128,-1,52
 999 312 999 312 999 242 c 0,53,54
 999 153 999 153 971 96.5 c 128,-1,55
 943 40 943 40 895 14 c 128,-1,56
 847 -12 847 -12 787 -12 c 0,57,58
 722 -12 722 -12 679 17 c 128,-1,59
 636 46 636 46 614.5 93.5 c 128,-1,60
 593 141 593 141 593 196 c 0,61,62
 593 291 593 291 644 347.5 c 128,-1,63
 695 404 695 404 781 404 c 0,64,65
 837 404 837 404 878.5 375 c 128,-1,66
 920 346 920 346 944 301 c 128,-1,67
 968 256 968 256 970 206 c 1,68,-1
 945 209 l 1,69,70
 938 240 938 240 918.5 268.5 c 128,-1,71
 899 297 899 297 868.5 315.5 c 128,-1,72
 838 334 838 334 798 334 c 0,73,74
 735 334 735 334 706 296.5 c 128,-1,75
 677 259 677 259 677 198 c 0,76,77
 677 156 677 156 688.5 124.5 c 128,-1,78
 700 93 700 93 724 75.5 c 128,-1,79
 748 58 748 58 787 58 c 0,80,81
 828 58 828 58 856.5 77 c 128,-1,82
 885 96 885 96 900.5 138 c 128,-1,83
 916 180 916 180 916 248 c 0,84,85
 916 250 916 250 914.5 270 c 128,-1,86
 913 290 913 290 909 310 c 0,87,88
 908 315 908 315 908 323 c 128,-1,89
 908 331 908 331 906 335 c 0,90,91
 897 378 897 378 867 414 c 128,-1,92
 837 450 837 450 787 472 c 128,-1,93
 737 494 737 494 666 494 c 0,94,95
 594 494 594 494 541 468 c 128,-1,96
 488 442 488 442 459 393 c 128,-1,97
 430 344 430 344 430 273 c 0,98,99
 430 221 430 221 445 180 c 128,-1,100
 460 139 460 139 487.5 108 c 128,-1,101
 515 77 515 77 552 54 c 1,102,-1
 502 -9 l 1,103,104
 459 16 459 16 422.5 55.5 c 128,-1,105
 386 95 386 95 363.5 150.5 c 128,-1,106
 341 206 341 206 341 277 c 0,107,108
 341 333 341 333 360 385 c 128,-1,109
 379 437 379 437 418.5 478 c 128,-1,110
 458 519 458 519 519.5 542.5 c 128,-1,111
 581 566 581 566 666 566 c 0,48,49
EndSplineSet
EndChar

StartChar: rrvocalicmlym
Encoding: 3424 3424 92
Width: 871
GlyphClass: 2
Flags: W
AnchorPoint: "Anchor-3" 339 0 basechar 0
AnchorPoint: "Anchor-0" 435 554 basechar 0
LayerCount: 2
Fore
SplineSet
656 566 m 0,0,1
 737 566 737 566 785.5 511.5 c 128,-1,2
 834 457 834 457 834 362 c 0,3,4
 834 293 834 293 810 241.5 c 128,-1,5
 786 190 786 190 739 152 c 0,6,7
 717 134 717 134 687 121 c 128,-1,8
 657 108 657 108 614 100 c 1,9,-1
 465 103 l 1,10,-1
 403 104 l 1,11,-1
 282 96 l 1,12,13
 239 101 239 101 208.5 110 c 128,-1,14
 178 119 178 119 154 135 c 0,15,16
 97 173 97 173 67 230.5 c 128,-1,17
 37 288 37 288 37 359 c 0,18,19
 37 423 37 423 60 469.5 c 128,-1,20
 83 516 83 516 125.5 541 c 128,-1,21
 168 566 168 566 228 566 c 0,22,23
 285 566 285 566 322 543 c 128,-1,24
 359 520 359 520 377 483 c 128,-1,25
 395 446 395 446 395 403 c 0,26,27
 395 362 395 362 377.5 327.5 c 128,-1,28
 360 293 360 293 325.5 272 c 128,-1,29
 291 251 291 251 238 251 c 0,30,31
 192 251 192 251 159.5 264.5 c 128,-1,32
 127 278 127 278 104.5 298.5 c 128,-1,33
 82 319 82 319 65 340 c 1,34,-1
 88 400 l 1,35,36
 103 382 103 382 119.5 363.5 c 128,-1,37
 136 345 136 345 161 332.5 c 128,-1,38
 186 320 186 320 225 320 c 0,39,40
 273 320 273 320 293.5 345 c 128,-1,41
 314 370 314 370 314 405 c 0,42,43
 314 443 314 443 292 469.5 c 128,-1,44
 270 496 270 496 224 496 c 0,45,46
 187 496 187 496 162.5 479.5 c 128,-1,47
 138 463 138 463 126.5 433 c 128,-1,48
 115 403 115 403 115 362 c 0,49,50
 115 350 115 350 116 338.5 c 128,-1,51
 117 327 117 327 120 315 c 1,52,-1
 115 301 l 1,53,54
 132 257 132 257 157 228.5 c 128,-1,55
 182 200 182 200 217.5 184 c 128,-1,56
 253 168 253 168 303 162 c 128,-1,57
 353 156 353 156 420 156 c 2,58,-1
 444 156 l 2,59,60
 518 156 518 156 570.5 163 c 128,-1,61
 623 170 623 170 658.5 186 c 128,-1,62
 694 202 694 202 717 230 c 128,-1,63
 740 258 740 258 756 301 c 1,64,-1
 751 315 l 1,65,66
 753 325 753 325 754.5 336.5 c 128,-1,67
 756 348 756 348 756 353 c 0,68,69
 756 402 756 402 744 433.5 c 128,-1,70
 732 465 732 465 709 480.5 c 128,-1,71
 686 496 686 496 652 496 c 0,72,73
 603 496 603 496 580 469.5 c 128,-1,74
 557 443 557 443 557 405 c 0,75,76
 557 370 557 370 578 345 c 128,-1,77
 599 320 599 320 646 320 c 0,78,79
 684 320 684 320 709 331.5 c 128,-1,80
 734 343 734 343 751.5 360.5 c 128,-1,81
 769 378 769 378 783 394 c 1,82,-1
 806 338 l 1,83,84
 790 318 790 318 767 298 c 128,-1,85
 744 278 744 278 711.5 264.5 c 128,-1,86
 679 251 679 251 633 251 c 0,87,88
 579 251 579 251 544 272.5 c 128,-1,89
 509 294 509 294 492.5 329.5 c 128,-1,90
 476 365 476 365 476 405 c 0,91,92
 476 447 476 447 495 484 c 128,-1,93
 514 521 514 521 554 543.5 c 128,-1,94
 594 566 594 566 656 566 c 0,0,1
439 -213 m 0,95,96
 316 -213 316 -213 234 -194.5 c 128,-1,97
 152 -176 152 -176 111 -134.5 c 128,-1,98
 70 -93 70 -93 70 -25 c 0,99,100
 70 19 70 19 95.5 49.5 c 128,-1,101
 121 80 121 80 164 98.5 c 128,-1,102
 207 117 207 117 261 125.5 c 128,-1,103
 315 134 315 134 373 134 c 2,104,-1
 493 134 l 2,105,106
 553 134 553 134 608.5 125.5 c 128,-1,107
 664 117 664 117 707 98.5 c 128,-1,108
 750 80 750 80 775.5 48.5 c 128,-1,109
 801 17 801 17 801 -28 c 0,110,111
 801 -87 801 -87 765 -128.5 c 128,-1,112
 729 -170 729 -170 649.5 -191.5 c 128,-1,113
 570 -213 570 -213 439 -213 c 0,95,96
438 -145 m 0,114,115
 538 -145 538 -145 598.5 -132 c 128,-1,116
 659 -119 659 -119 686.5 -92.5 c 128,-1,117
 714 -66 714 -66 714 -28 c 0,118,119
 714 9 714 9 692 32 c 128,-1,120
 670 55 670 55 632 67 c 128,-1,121
 594 79 594 79 544 83.5 c 128,-1,122
 494 88 494 88 437 88 c 2,123,-1
 429 88 l 2,124,125
 353 88 353 88 291.5 78.5 c 128,-1,126
 230 69 230 69 193.5 44 c 128,-1,127
 157 19 157 19 157 -27 c 0,128,129
 157 -68 157 -68 184.5 -94 c 128,-1,130
 212 -120 212 -120 274 -132.5 c 128,-1,131
 336 -145 336 -145 438 -145 c 0,114,115
521 46 m 0,132,133
 555 46 555 46 575.5 34 c 128,-1,134
 596 22 596 22 606.5 4 c 128,-1,135
 617 -14 617 -14 620.5 -33.5 c 128,-1,136
 624 -53 624 -53 624 -68 c 2,137,-1
 624 -93 l 1,138,-1
 556 -93 l 1,139,-1
 556 -83 l 2,140,141
 556 -49 556 -49 546.5 -34 c 128,-1,142
 537 -19 537 -19 513 -19 c 0,143,144
 488 -19 488 -19 478.5 -34.5 c 128,-1,145
 469 -50 469 -50 469 -80 c 2,146,-1
 469 -93 l 1,147,-1
 401 -93 l 1,148,-1
 401 -81 l 2,149,150
 401 -52 401 -52 392 -35.5 c 128,-1,151
 383 -19 383 -19 357 -19 c 0,152,153
 332 -19 332 -19 323.5 -35.5 c 128,-1,154
 315 -52 315 -52 315 -83 c 2,155,-1
 315 -93 l 1,156,-1
 247 -93 l 1,157,-1
 247 -68 l 2,158,159
 247 -53 247 -53 250.5 -33.5 c 128,-1,160
 254 -14 254 -14 264.5 4 c 128,-1,161
 275 22 275 22 295.5 34 c 128,-1,162
 316 46 316 46 350 46 c 0,163,164
 382 46 382 46 402.5 34.5 c 128,-1,165
 423 23 423 23 436 1 c 1,166,167
 449 23 449 23 469.5 34.5 c 128,-1,168
 490 46 490 46 521 46 c 0,132,133
EndSplineSet
EndChar

StartChar: llvocalicmlym
Encoding: 3425 3425 93
Width: 1320
GlyphClass: 2
Flags: W
AnchorPoint: "Anchor-3" 499 0 basechar 0
AnchorPoint: "Anchor-0" 660 554 basechar 0
LayerCount: 2
Fore
SplineSet
358 566 m 0,0,1
 442 566 442 566 493 538.5 c 128,-1,2
 544 511 544 511 583 460 c 1,3,-1
 594 388 l 1,4,-1
 608 229 l 1,5,-1
 608 0 l 1,6,-1
 522 0 l 1,7,-1
 522 306 l 2,8,9
 522 365 522 365 511.5 400 c 128,-1,10
 501 435 501 435 478 456 c 0,11,12
 457 475 457 475 429.5 484.5 c 128,-1,13
 402 494 402 494 357 494 c 0,14,15
 285 494 285 494 232.5 460.5 c 128,-1,16
 180 427 180 427 151.5 369.5 c 128,-1,17
 123 312 123 312 123 239 c 2,18,-1
 123 228 l 2,19,20
 123 172 123 172 138 134 c 128,-1,21
 153 96 153 96 179.5 77 c 128,-1,22
 206 58 206 58 242 58 c 0,23,24
 267 58 267 58 286 69.5 c 128,-1,25
 305 81 305 81 316 103 c 128,-1,26
 327 125 327 125 327 157 c 0,27,28
 327 207 327 207 301 232.5 c 128,-1,29
 275 258 275 258 233 258 c 0,30,31
 194 258 194 258 159 238 c 128,-1,32
 124 218 124 218 95 186 c 1,33,-1
 80 248 l 1,34,35
 109 284 109 284 154 306 c 128,-1,36
 199 328 199 328 248 328 c 0,37,38
 296 328 296 328 332.5 309 c 128,-1,39
 369 290 369 290 389.5 253.5 c 128,-1,40
 410 217 410 217 410 165 c 0,41,42
 410 110 410 110 389 70 c 128,-1,43
 368 30 368 30 330 9 c 128,-1,44
 292 -12 292 -12 240 -12 c 256,45,46
 188 -12 188 -12 142.5 14 c 128,-1,47
 97 40 97 40 69.5 96 c 128,-1,48
 42 152 42 152 42 241 c 0,49,50
 42 347 42 347 84.5 419 c 128,-1,51
 127 491 127 491 198.5 528.5 c 128,-1,52
 270 566 270 566 358 566 c 0,0,1
790 566 m 0,53,54
 876 566 876 566 939 536.5 c 128,-1,55
 1002 507 1002 507 1042 454 c 128,-1,56
 1082 401 1082 401 1098 329 c 0,57,58
 1104 304 1104 304 1106.5 278 c 128,-1,59
 1109 252 1109 252 1109 224 c 0,60,61
 1109 143 1109 143 1082.5 90.5 c 128,-1,62
 1056 38 1056 38 1008.5 13 c 128,-1,63
 961 -12 961 -12 896 -12 c 256,64,65
 831 -12 831 -12 789.5 15 c 128,-1,66
 748 42 748 42 728.5 84.5 c 128,-1,67
 709 127 709 127 709 171 c 0,68,69
 709 269 709 269 778.5 325.5 c 128,-1,70
 848 382 848 382 977 382 c 0,71,72
 985 382 985 382 995.5 381.5 c 128,-1,73
 1006 381 1006 381 1018 379 c 2,74,-1
 1048 377 l 1,75,76
 1124 365 1124 365 1178.5 325.5 c 128,-1,77
 1233 286 1233 286 1262.5 225.5 c 128,-1,78
 1292 165 1292 165 1292 91 c 0,79,80
 1292 23 1292 23 1271.5 -31 c 128,-1,81
 1251 -85 1251 -85 1211 -123 c 128,-1,82
 1171 -161 1171 -161 1112.5 -181 c 128,-1,83
 1054 -201 1054 -201 979 -201 c 0,84,85
 927 -201 927 -201 884 -192 c 128,-1,86
 841 -183 841 -183 811 -172 c 1,87,-1
 839 -102 l 1,88,89
 867 -114 867 -114 902.5 -121 c 128,-1,90
 938 -128 938 -128 981 -128 c 0,91,92
 1043 -128 1043 -128 1085.5 -111.5 c 128,-1,93
 1128 -95 1128 -95 1155 -65 c 128,-1,94
 1182 -35 1182 -35 1194 5 c 128,-1,95
 1206 45 1206 45 1206 92 c 0,96,97
 1206 144 1206 144 1192.5 183 c 128,-1,98
 1179 222 1179 222 1152 250 c 128,-1,99
 1125 278 1125 278 1085 296 c 1,100,-1
 1047 302 l 2,101,102
 1029 308 1029 308 1010 310.5 c 128,-1,103
 991 313 991 313 974 313 c 0,104,105
 917 313 917 313 877 297.5 c 128,-1,106
 837 282 837 282 816 251 c 128,-1,107
 795 220 795 220 795 171 c 0,108,109
 795 144 795 144 805 118 c 128,-1,110
 815 92 815 92 838.5 75 c 128,-1,111
 862 58 862 58 900 58 c 0,112,113
 962 58 962 58 994 100 c 128,-1,114
 1026 142 1026 142 1026 225 c 0,115,116
 1026 252 1026 252 1023 279.5 c 128,-1,117
 1020 307 1020 307 1013 332 c 2,118,-1
 1008 354 l 1,119,120
 994 394 994 394 967 425.5 c 128,-1,121
 940 457 940 457 897 475.5 c 128,-1,122
 854 494 854 494 791 494 c 0,123,124
 756 494 756 494 721.5 484 c 128,-1,125
 687 474 687 474 661 451 c 0,126,127
 645 436 645 436 633 415.5 c 128,-1,128
 621 395 621 395 614.5 364.5 c 128,-1,129
 608 334 608 334 608 288 c 2,130,-1
 608 204 l 1,131,-1
 553 450 l 1,132,133
 580 487 580 487 614.5 513 c 128,-1,134
 649 539 649 539 693 552.5 c 128,-1,135
 737 566 737 566 790 566 c 0,53,54
EndSplineSet
EndChar

StartChar: zeromlym
Encoding: 3430 3430 96
Width: 576
GlyphClass: 2
Flags: W
AnchorPoint: "Anchor-3" 222 0 basechar 0
AnchorPoint: "Anchor-0" 288 554 basechar 0
LayerCount: 2
Fore
SplineSet
288 43 m 0,0,1
 211 43 211 43 155 73.5 c 128,-1,2
 99 104 99 104 69 158 c 128,-1,3
 39 212 39 212 39 283 c 256,4,5
 39 354 39 354 70.5 407.5 c 128,-1,6
 102 461 102 461 158 491 c 128,-1,7
 214 521 214 521 287 521 c 0,8,9
 361 521 361 521 417.5 492 c 128,-1,10
 474 463 474 463 505.5 409.5 c 128,-1,11
 537 356 537 356 537 283 c 0,12,13
 537 211 537 211 505.5 157 c 128,-1,14
 474 103 474 103 418 73 c 128,-1,15
 362 43 362 43 288 43 c 0,0,1
288 115 m 0,16,17
 333 115 333 115 369.5 133.5 c 128,-1,18
 406 152 406 152 427.5 189 c 128,-1,19
 449 226 449 226 449 283 c 0,20,21
 449 367 449 367 403 408 c 128,-1,22
 357 449 357 449 287 449 c 0,23,24
 218 449 218 449 172.5 408 c 128,-1,25
 127 367 127 367 127 281 c 0,26,27
 127 200 127 200 173 157.5 c 128,-1,28
 219 115 219 115 288 115 c 0,16,17
EndSplineSet
EndChar

StartChar: onemlym
Encoding: 3431 3431 97
Width: 896
GlyphClass: 2
Flags: W
AnchorPoint: "Anchor-3" 344 0 basechar 0
AnchorPoint: "Anchor-0" 448 554 basechar 0
LayerCount: 2
Fore
SplineSet
391 -201 m 1,0,-1
 223 -201 l 2,1,2
 166 -201 166 -201 129.5 -193 c 128,-1,3
 93 -185 93 -185 68 -170 c 0,4,5
 40 -153 40 -153 25.5 -127 c 128,-1,6
 11 -101 11 -101 11 -68 c 0,7,8
 11 -33 11 -33 23.5 -5.5 c 128,-1,9
 36 22 36 22 64 40 c 0,10,11
 79 50 79 50 97 56.5 c 128,-1,12
 115 63 115 63 140 66.5 c 128,-1,13
 165 70 165 70 200 70 c 2,14,-1
 441 70 l 1,15,-1
 453 0 l 1,16,-1
 223 0 l 2,17,18
 181 0 181 0 160.5 -3 c 128,-1,19
 140 -6 140 -6 128 -12 c 0,20,21
 112 -20 112 -20 104.5 -33 c 128,-1,22
 97 -46 97 -46 97 -62 c 0,23,24
 97 -94 97 -94 121 -110 c 0,25,26
 134 -119 134 -119 156.5 -124 c 128,-1,27
 179 -129 179 -129 221 -129 c 2,28,-1
 391 -129 l 1,29,-1
 391 -201 l 1,0,-1
583 566 m 0,30,31
 645 566 645 566 691 549 c 128,-1,32
 737 532 737 532 768 501 c 0,33,34
 802 468 802 468 817.5 419 c 128,-1,35
 833 370 833 370 833 292 c 2,36,-1
 833 0 l 1,37,-1
 340 0 l 1,38,-1
 340 292 l 2,39,40
 340 347 340 347 347 385.5 c 128,-1,41
 354 424 354 424 368.5 452 c 128,-1,42
 383 480 383 480 405 502 c 0,43,44
 436 532 436 532 480.5 549 c 128,-1,45
 525 566 525 566 583 566 c 0,30,31
584 494 m 0,46,47
 547 494 547 494 518.5 482.5 c 128,-1,48
 490 471 490 471 470 451 c 0,49,50
 449 429 449 429 437.5 391.5 c 128,-1,51
 426 354 426 354 426 279 c 2,52,-1
 426 70 l 1,53,-1
 747 70 l 1,54,-1
 747 271 l 2,55,56
 747 345 747 345 735 387 c 128,-1,57
 723 429 723 429 701 451 c 0,58,59
 681 471 681 471 653 482.5 c 128,-1,60
 625 494 625 494 584 494 c 0,46,47
EndSplineSet
EndChar

StartChar: twomlym
Encoding: 3432 3432 98
Width: 859
GlyphClass: 2
Flags: W
AnchorPoint: "Anchor-3" 325 0 basechar 0
AnchorPoint: "Anchor-0" 429 554 basechar 0
LayerCount: 2
Fore
SplineSet
341 566 m 0,0,1
 415 566 415 566 470.5 544 c 128,-1,2
 526 522 526 522 562.5 483 c 128,-1,3
 599 444 599 444 617 392 c 128,-1,4
 635 340 635 340 635 281 c 0,5,6
 635 228 635 228 622 187 c 128,-1,7
 609 146 609 146 588 113.5 c 128,-1,8
 567 81 567 81 541 53 c 1,9,-1
 517 70 l 1,10,-1
 842 70 l 1,11,-1
 842 0 l 1,12,-1
 467 0 l 1,13,-1
 433 59 l 1,14,15
 462 79 462 79 488 108 c 128,-1,16
 514 137 514 137 530 177.5 c 128,-1,17
 546 218 546 218 546 271 c 0,18,19
 546 337 546 337 522 387 c 128,-1,20
 498 437 498 437 451.5 465.5 c 128,-1,21
 405 494 405 494 337 494 c 0,22,23
 271 494 271 494 224.5 464.5 c 128,-1,24
 178 435 178 435 153 385 c 128,-1,25
 128 335 128 335 128 273 c 0,26,27
 128 221 128 221 143 180 c 128,-1,28
 158 139 158 139 185.5 108 c 128,-1,29
 213 77 213 77 250 54 c 1,30,-1
 200 -9 l 1,31,32
 157 16 157 16 120.5 55.5 c 128,-1,33
 84 95 84 95 61.5 150.5 c 128,-1,34
 39 206 39 206 39 277 c 0,35,36
 39 339 39 339 58.5 391.5 c 128,-1,37
 78 444 78 444 116.5 483 c 128,-1,38
 155 522 155 522 211.5 544 c 128,-1,39
 268 566 268 566 341 566 c 0,0,1
EndSplineSet
EndChar

StartChar: threemlym
Encoding: 3433 3433 99
Width: 1083
GlyphClass: 2
Flags: W
AnchorPoint: "Anchor-3" 407 0 basechar 0
AnchorPoint: "Anchor-0" 541 554 basechar 0
LayerCount: 2
Fore
SplineSet
288 566 m 0,0,1
 334 566 334 566 367 552.5 c 128,-1,2
 400 539 400 539 423 516.5 c 128,-1,3
 446 494 446 494 462 465 c 1,4,-1
 449 466 l 1,5,6
 480 518 480 518 523 542 c 128,-1,7
 566 566 566 566 630 566 c 0,8,9
 707 566 707 566 761 529.5 c 128,-1,10
 815 493 815 493 843.5 431 c 128,-1,11
 872 369 872 369 872 292 c 0,12,13
 872 236 872 236 860 194 c 128,-1,14
 848 152 848 152 829 120 c 128,-1,15
 810 88 810 88 787 61 c 2,16,-1
 734 0 l 1,17,-1
 711 0 l 1,18,-1
 675 54 l 1,19,20
 703 81 703 81 727.5 112.5 c 128,-1,21
 752 144 752 144 768 187 c 128,-1,22
 784 230 784 230 784 292 c 0,23,24
 784 350 784 350 765 395.5 c 128,-1,25
 746 441 746 441 711 467.5 c 128,-1,26
 676 494 676 494 629 494 c 0,27,28
 588 494 588 494 561.5 479.5 c 128,-1,29
 535 465 535 465 519 436 c 0,30,31
 506 414 506 414 502 382 c 128,-1,32
 498 350 498 350 498 291 c 2,33,-1
 498 0 l 1,34,-1
 412 0 l 1,35,-1
 412 291 l 2,36,37
 412 348 412 348 408 381 c 128,-1,38
 404 414 404 414 390 436 c 0,39,40
 373 465 373 465 347 479.5 c 128,-1,41
 321 494 321 494 284 494 c 0,42,43
 238 494 238 494 202.5 467.5 c 128,-1,44
 167 441 167 441 147 395.5 c 128,-1,45
 127 350 127 350 127 292 c 0,46,47
 127 232 127 232 143.5 187 c 128,-1,48
 160 142 160 142 187 110 c 128,-1,49
 214 78 214 78 247 55 c 1,50,-1
 189 -8 l 1,51,52
 146 27 146 27 112 68.5 c 128,-1,53
 78 110 78 110 58.5 164.5 c 128,-1,54
 39 219 39 219 39 292 c 0,55,56
 39 373 39 373 69.5 434.5 c 128,-1,57
 100 496 100 496 156 531 c 128,-1,58
 212 566 212 566 288 566 c 0,0,1
776 70 m 1,59,-1
 1066 70 l 1,60,-1
 1066 0 l 1,61,-1
 718 0 l 1,62,-1
 776 70 l 1,59,-1
EndSplineSet
EndChar

StartChar: fourmlym
Encoding: 3434 3434 100
Width: 797
GlyphClass: 2
Flags: W
AnchorPoint: "Anchor-3" 302 0 basechar 0
AnchorPoint: "Anchor-0" 398 554 basechar 0
LayerCount: 2
Fore
SplineSet
360 566 m 0,0,1
 433 566 433 566 488 546 c 128,-1,2
 543 526 543 526 586 488 c 0,3,4
 640 442 640 442 673.5 375 c 128,-1,5
 707 308 707 308 707 225 c 0,6,7
 707 150 707 150 681.5 97 c 128,-1,8
 656 44 656 44 607.5 16 c 128,-1,9
 559 -12 559 -12 490 -12 c 0,10,11
 424 -12 424 -12 379 13.5 c 128,-1,12
 334 39 334 39 311 83.5 c 128,-1,13
 288 128 288 128 288 183 c 0,14,15
 288 251 288 251 317 301.5 c 128,-1,16
 346 352 346 352 400.5 393.5 c 128,-1,17
 455 435 455 435 529 477 c 0,18,19
 589 509 589 509 628 531 c 128,-1,20
 667 553 667 553 685.5 573.5 c 128,-1,21
 704 594 704 594 704 621 c 0,22,23
 704 641 704 641 697 658.5 c 128,-1,24
 690 676 690 676 679 692 c 1,25,-1
 760 730 l 1,26,27
 777 708 777 708 784.5 681.5 c 128,-1,28
 792 655 792 655 792 626 c 0,29,30
 792 580 792 580 766.5 547.5 c 128,-1,31
 741 515 741 515 694 486 c 128,-1,32
 647 457 647 457 580 422 c 0,33,34
 511 383 511 383 466 347.5 c 128,-1,35
 421 312 421 312 398.5 272.5 c 128,-1,36
 376 233 376 233 376 183 c 0,37,38
 376 116 376 116 409.5 87.5 c 128,-1,39
 443 59 443 59 492 59 c 0,40,41
 535 59 535 59 562.5 77.5 c 128,-1,42
 590 96 590 96 604 133 c 128,-1,43
 618 170 618 170 618 225 c 0,44,45
 618 282 618 282 596.5 339.5 c 128,-1,46
 575 397 575 397 528 437 c 0,47,48
 498 463 498 463 456.5 478.5 c 128,-1,49
 415 494 415 494 362 494 c 0,50,51
 291 494 291 494 238 468 c 128,-1,52
 185 442 185 442 156.5 393 c 128,-1,53
 128 344 128 344 128 273 c 0,54,55
 128 221 128 221 143 180 c 128,-1,56
 158 139 158 139 185.5 108 c 128,-1,57
 213 77 213 77 250 54 c 1,58,-1
 200 -9 l 1,59,60
 157 16 157 16 120.5 55.5 c 128,-1,61
 84 95 84 95 61.5 150.5 c 128,-1,62
 39 206 39 206 39 277 c 0,63,64
 39 333 39 333 58 385 c 128,-1,65
 77 437 77 437 116 478 c 128,-1,66
 155 519 155 519 215.5 542.5 c 128,-1,67
 276 566 276 566 360 566 c 0,0,1
EndSplineSet
EndChar

